<svg width="69" height="67" viewBox="0 0 69 67" fill="none" xmlns="http://www.w3.org/2000/svg">
<path d="M69 38.9692H65.4026V42.4627H69V38.9692Z" fill="#3B3149"/>
<path d="M69 35.4751H65.4026V38.969H69V35.4751Z" fill="#3B3149"/>
<path d="M69 31.9817H65.4026V35.4751H69V31.9817Z" fill="#3B3149"/>
<path d="M69 28.4883H65.4026V31.9817H69V28.4883Z" fill="#3B3149"/>
<path d="M69 24.9944H65.4026V28.4883H69V24.9944Z" fill="#3B3149"/>
<path d="M65.4026 45.9558H61.8052V49.4497H65.4026V45.9558Z" fill="#3B3149"/>
<path d="M65.4026 42.4624H61.8052V45.9558H65.4026V42.4624Z" fill="#3B3149"/>
<path d="M65.4026 38.9692H61.8052V42.4627H65.4026V38.9692Z" fill="#3B3149"/>
<path d="M65.4026 35.4751H61.8052V38.969H65.4026V35.4751Z" fill="#3B3149"/>
<path d="M65.4026 31.9817H61.8052V35.4751H65.4026V31.9817Z" fill="#3B3149"/>
<path d="M65.4026 28.4883H61.8052V31.9817H65.4026V28.4883Z" fill="#3B3149"/>
<path d="M65.4026 24.9944H61.8052V28.4883H65.4026V24.9944Z" fill="#3B3149"/>
<path d="M65.4026 21.501H61.8052V24.9944H65.4026V21.501Z" fill="#3B3149"/>
<path d="M65.4026 18.0076H61.8052V21.501H65.4026V18.0076Z" fill="#3B3149"/>
<path d="M61.8052 49.45H58.2078V52.9434H61.8052V49.45Z" fill="#3B3149"/>
<path d="M61.8052 45.9558H58.2078V49.4497H61.8052V45.9558Z" fill="#3B3149"/>
<path d="M61.8052 42.4624H58.2078V45.9558H61.8052V42.4624Z" fill="#3B3149"/>
<path d="M61.8052 38.9692H58.2078V42.4627H61.8052V38.9692Z" fill="#3B3149"/>
<path d="M61.8052 35.4751H58.2078V38.969H61.8052V35.4751Z" fill="#3B3149"/>
<path d="M61.8052 31.9817H58.2078V35.4751H61.8052V31.9817Z" fill="#3B3149"/>
<path d="M61.8052 28.4883H58.2078V31.9817H61.8052V28.4883Z" fill="#3B3149"/>
<path d="M61.8052 24.9944H58.2078V28.4883H61.8052V24.9944Z" fill="#3B3149"/>
<path d="M61.8052 21.501H58.2078V24.9944H61.8052V21.501Z" fill="#3B3149"/>
<path d="M61.8052 18.0076H58.2078V21.501H61.8052V18.0076Z" fill="#3B3149"/>
<path d="M61.8052 14.5139H58.2078V18.0073H61.8052V14.5139Z" fill="#3B3149"/>
<path d="M58.2078 52.9431H54.6108V56.4365H58.2078V52.9431Z" fill="#3B3149"/>
<path d="M58.2078 49.45H54.6108V52.9434H58.2078V49.45Z" fill="#3B3149"/>
<path d="M58.2078 45.9558H54.6108V49.4497H58.2078V45.9558Z" fill="#3B3149"/>
<path d="M58.2078 42.4624H54.6108V45.9558H58.2078V42.4624Z" fill="#3B3149"/>
<path d="M58.2078 38.9692H54.6108V42.4627H58.2078V38.9692Z" fill="#3B3149"/>
<path d="M58.2078 35.4751H54.6108V38.969H58.2078V35.4751Z" fill="#3B3149"/>
<path d="M58.2078 31.9817H54.6108V35.4751H58.2078V31.9817Z" fill="#3B3149"/>
<path d="M58.2078 28.4883H54.6108V31.9817H58.2078V28.4883Z" fill="#3B3149"/>
<path d="M58.2078 24.9944H54.6108V28.4883H58.2078V24.9944Z" fill="#3B3149"/>
<path d="M58.2078 21.501H54.6108V24.9944H58.2078V21.501Z" fill="#3B3149"/>
<path d="M58.2078 18.0076H54.6108V21.501H58.2078V18.0076Z" fill="#3B3149"/>
<path d="M58.2078 14.5139H54.6108V18.0073H58.2078V14.5139Z" fill="#3B3149"/>
<path d="M58.2078 11.0203H54.6108V14.5141H58.2078V11.0203Z" fill="#3B3149"/>
<path d="M54.6108 56.4365H51.0134V59.9304H54.6108V56.4365Z" fill="#3B3149"/>
<path d="M54.6108 52.9431H51.0134V56.4365H54.6108V52.9431Z" fill="#3B3149"/>
<path d="M54.6108 49.45H51.0134V52.9434H54.6108V49.45Z" fill="#3B3149"/>
<path d="M54.6108 45.9558H51.0134V49.4497H54.6108V45.9558Z" fill="#3B3149"/>
<path d="M54.6108 42.4624H51.0134V45.9558H54.6108V42.4624Z" fill="#3B3149"/>
<path d="M54.6108 38.9692H51.0134V42.4627H54.6108V38.9692Z" fill="#3B3149"/>
<path d="M54.6108 35.4751H51.0134V38.969H54.6108V35.4751Z" fill="#3B3149"/>
<path d="M54.6108 31.9817H51.0134V35.4751H54.6108V31.9817Z" fill="#3B3149"/>
<path d="M54.6108 28.4883H51.0134V31.9817H54.6108V28.4883Z" fill="#3B3149"/>
<path d="M54.6108 24.9944H51.0134V28.4883H54.6108V24.9944Z" fill="#3B3149"/>
<path d="M54.6108 21.501H51.0134V24.9944H54.6108V21.501Z" fill="#3B3149"/>
<path d="M54.6108 18.0076H51.0134V21.501H54.6108V18.0076Z" fill="#3B3149"/>
<path d="M54.6108 14.5139H51.0134V18.0073H54.6108V14.5139Z" fill="#3B3149"/>
<path d="M54.6108 11.0203H51.0134V14.5141H54.6108V11.0203Z" fill="#3B3149"/>
<path d="M54.6108 7.52686H51.0134V11.0203H54.6108V7.52686Z" fill="#3B3149"/>
<path d="M51.0134 59.9302H47.416V63.4236H51.0134V59.9302Z" fill="#3B3149"/>
<path d="M51.0134 56.4365H47.416V59.9304H51.0134V56.4365Z" fill="#3B3149"/>
<path d="M51.0134 52.9431H47.416V56.4365H51.0134V52.9431Z" fill="#3B3149"/>
<path d="M51.0134 49.45H47.416V52.9434H51.0134V49.45Z" fill="#3B3149"/>
<path d="M51.0134 45.9558H47.416V49.4497H51.0134V45.9558Z" fill="#3B3149"/>
<path d="M51.0134 42.4624H47.416V45.9558H51.0134V42.4624Z" fill="#3B3149"/>
<path d="M51.0134 38.9692H47.416V42.4627H51.0134V38.9692Z" fill="#3B3149"/>
<path d="M51.0134 35.4751H47.416V38.969H51.0134V35.4751Z" fill="#3B3149"/>
<path d="M51.0134 31.9817H47.416V35.4751H51.0134V31.9817Z" fill="#3B3149"/>
<path d="M51.0134 28.4883H47.416V31.9817H51.0134V28.4883Z" fill="#3B3149"/>
<path d="M51.0134 24.9944H47.416V28.4883H51.0134V24.9944Z" fill="#3B3149"/>
<path d="M51.0134 21.501H47.416V24.9944H51.0134V21.501Z" fill="#3B3149"/>
<path d="M51.0134 18.0076H47.416V21.501H51.0134V18.0076Z" fill="#3B3149"/>
<path d="M51.0134 14.5139H47.416V18.0073H51.0134V14.5139Z" fill="#3B3149"/>
<path d="M51.0134 11.0203H47.416V14.5141H51.0134V11.0203Z" fill="#3B3149"/>
<path d="M51.0134 7.52686H47.416V11.0203H51.0134V7.52686Z" fill="#3B3149"/>
<path d="M51.0134 4.03369H47.416V7.52711H51.0134V4.03369Z" fill="#3B3149"/>
<path d="M47.416 59.9302H43.8186V63.4236H47.416V59.9302Z" fill="#3B3149"/>
<path d="M47.416 56.4365H43.8186V59.9304H47.416V56.4365Z" fill="#3B3149"/>
<path d="M47.416 52.9431H43.8186V56.4365H47.416V52.9431Z" fill="#3B3149"/>
<path d="M47.416 49.45H43.8186V52.9434H47.416V49.45Z" fill="#3B3149"/>
<path d="M47.416 45.9558H43.8186V49.4497H47.416V45.9558Z" fill="#3B3149"/>
<path d="M47.416 42.4624H43.8186V45.9558H47.416V42.4624Z" fill="#3B3149"/>
<path d="M47.416 38.9692H43.8186V42.4627H47.416V38.9692Z" fill="#3B3149"/>
<path d="M47.416 35.4751H43.8186V38.969H47.416V35.4751Z" fill="#3B3149"/>
<path d="M47.416 31.9817H43.8186V35.4751H47.416V31.9817Z" fill="#3B3149"/>
<path d="M47.416 28.4883H43.8186V31.9817H47.416V28.4883Z" fill="#3B3149"/>
<path d="M47.416 24.9944H43.8186V28.4883H47.416V24.9944Z" fill="#3B3149"/>
<path d="M47.416 21.501H43.8186V24.9944H47.416V21.501Z" fill="#3B3149"/>
<path d="M47.416 18.0076H43.8186V21.501H47.416V18.0076Z" fill="#3B3149"/>
<path d="M47.416 14.5139H43.8186V18.0073H47.416V14.5139Z" fill="#3B3149"/>
<path d="M47.416 11.0203H43.8186V14.5141H47.416V11.0203Z" fill="#3B3149"/>
<path d="M47.416 7.52686H43.8186V11.0203H47.416V7.52686Z" fill="#3B3149"/>
<path d="M47.416 4.03369H43.8186V7.52711H47.416V4.03369Z" fill="#3B3149"/>
<path d="M43.8186 63.4238H40.2217V66.9173H43.8186V63.4238Z" fill="#3B3149"/>
<path d="M43.8186 59.9302H40.2217V63.4236H43.8186V59.9302Z" fill="#3B3149"/>
<path d="M43.8186 56.4365H40.2217V59.9304H43.8186V56.4365Z" fill="#3B3149"/>
<path d="M43.8186 52.9431H40.2217V56.4365H43.8186V52.9431Z" fill="#3B3149"/>
<path d="M43.8186 49.45H40.2217V52.9434H43.8186V49.45Z" fill="#3B3149"/>
<path d="M43.8186 45.9558H40.2217V49.4497H43.8186V45.9558Z" fill="#3B3149"/>
<path d="M43.8186 42.4624H40.2217V45.9558H43.8186V42.4624Z" fill="#3B3149"/>
<path d="M43.8186 38.9692H40.2217V42.4627H43.8186V38.9692Z" fill="#3B3149"/>
<path d="M43.8186 35.4751H40.2217V38.969H43.8186V35.4751Z" fill="#3B3149"/>
<path d="M43.8186 31.9817H40.2217V35.4751H43.8186V31.9817Z" fill="#3B3149"/>
<path d="M43.8186 28.4883H40.2217V31.9817H43.8186V28.4883Z" fill="#3B3149"/>
<path d="M43.8186 24.9944H40.2217V28.4883H43.8186V24.9944Z" fill="#3B3149"/>
<path d="M43.8186 21.501H40.2217V24.9944H43.8186V21.501Z" fill="#3B3149"/>
<path d="M43.8186 18.0076H40.2217V21.501H43.8186V18.0076Z" fill="#3B3149"/>
<path d="M43.8186 14.5139H40.2217V18.0073H43.8186V14.5139Z" fill="#3B3149"/>
<path d="M43.8186 11.0203H40.2217V14.5141H43.8186V11.0203Z" fill="#3B3149"/>
<path d="M43.8186 7.52686H40.2217V11.0203H43.8186V7.52686Z" fill="#3B3149"/>
<path d="M43.8186 4.03369H40.2217V7.52711H43.8186V4.03369Z" fill="#3B3149"/>
<path d="M43.8186 0.539551H40.2217V4.03343H43.8186V0.539551Z" fill="#3B3149"/>
<path d="M40.2217 63.4238H36.6243V66.9173H40.2217V63.4238Z" fill="#3B3149"/>
<path d="M40.2217 59.9302H36.6243V63.4236H40.2217V59.9302Z" fill="#3B3149"/>
<path d="M40.2217 56.4365H36.6243V59.9304H40.2217V56.4365Z" fill="#3B3149"/>
<path d="M40.2217 52.9431H36.6243V56.4365H40.2217V52.9431Z" fill="#3B3149"/>
<path d="M40.2217 49.45H36.6243V52.9434H40.2217V49.45Z" fill="#3B3149"/>
<path d="M40.2217 45.9558H36.6243V49.4497H40.2217V45.9558Z" fill="#3B3149"/>
<path d="M40.2217 42.4624H36.6243V45.9558H40.2217V42.4624Z" fill="#3B3149"/>
<path d="M40.2217 38.9692H36.6243V42.4627H40.2217V38.9692Z" fill="#3B3149"/>
<path d="M40.2217 35.4751H36.6243V38.969H40.2217V35.4751Z" fill="#3B3149"/>
<path d="M40.2217 31.9817H36.6243V35.4751H40.2217V31.9817Z" fill="#3B3149"/>
<path d="M40.2217 28.4883H36.6243V31.9817H40.2217V28.4883Z" fill="#3B3149"/>
<path d="M40.2217 24.9944H36.6243V28.4883H40.2217V24.9944Z" fill="#3B3149"/>
<path d="M40.2217 21.501H36.6243V24.9944H40.2217V21.501Z" fill="#3B3149"/>
<path d="M40.2217 18.0076H36.6243V21.501H40.2217V18.0076Z" fill="#3B3149"/>
<path d="M40.2217 14.5139H36.6243V18.0073H40.2217V14.5139Z" fill="#3B3149"/>
<path d="M40.2217 11.0203H36.6243V14.5141H40.2217V11.0203Z" fill="#3B3149"/>
<path d="M40.2217 7.52686H36.6243V11.0203H40.2217V7.52686Z" fill="#3B3149"/>
<path d="M40.2217 4.03369H36.6243V7.52711H40.2217V4.03369Z" fill="#3B3149"/>
<path d="M40.2217 0.539551H36.6243V4.03343H40.2217V0.539551Z" fill="#3B3149"/>
<path d="M36.6243 63.4238H33.0269V66.9173H36.6243V63.4238Z" fill="#3B3149"/>
<path d="M36.6243 59.9302H33.0269V63.4236H36.6243V59.9302Z" fill="#3B3149"/>
<path d="M36.6243 56.4365H33.0269V59.9304H36.6243V56.4365Z" fill="#3B3149"/>
<path d="M36.6243 52.9431H33.0269V56.4365H36.6243V52.9431Z" fill="#3B3149"/>
<path d="M36.6243 49.45H33.0269V52.9434H36.6243V49.45Z" fill="#3B3149"/>
<path d="M36.6243 45.9558H33.0269V49.4497H36.6243V45.9558Z" fill="#3B3149"/>
<path d="M36.6243 42.4624H33.0269V45.9558H36.6243V42.4624Z" fill="#3B3149"/>
<path d="M36.6243 38.9692H33.0269V42.4627H36.6243V38.9692Z" fill="#3B3149"/>
<path d="M36.6243 35.4751H33.0269V38.969H36.6243V35.4751Z" fill="#3B3149"/>
<path d="M36.6243 31.9817H33.0269V35.4751H36.6243V31.9817Z" fill="#3B3149"/>
<path d="M36.6243 28.4883H33.0269V31.9817H36.6243V28.4883Z" fill="#3B3149"/>
<path d="M36.6243 24.9944H33.0269V28.4883H36.6243V24.9944Z" fill="#3B3149"/>
<path d="M36.6243 21.501H33.0269V24.9944H36.6243V21.501Z" fill="#3B3149"/>
<path d="M36.6243 18.0076H33.0269V21.501H36.6243V18.0076Z" fill="#3B3149"/>
<path d="M36.6243 14.5139H33.0269V18.0073H36.6243V14.5139Z" fill="#3B3149"/>
<path d="M36.6243 11.0203H33.0269V14.5141H36.6243V11.0203Z" fill="#3B3149"/>
<path d="M36.6243 7.52686H33.0269V11.0203H36.6243V7.52686Z" fill="#3B3149"/>
<path d="M36.6243 4.03369H33.0269V7.52711H36.6243V4.03369Z" fill="#3B3149"/>
<path d="M36.6243 0.539551H33.0269V4.03343H36.6243V0.539551Z" fill="#3B3149"/>
<path d="M33.0269 63.4238H29.4294V66.9173H33.0269V63.4238Z" fill="#3B3149"/>
<path d="M33.0269 59.9302H29.4294V63.4236H33.0269V59.9302Z" fill="#3B3149"/>
<path d="M33.0269 56.4365H29.4294V59.9304H33.0269V56.4365Z" fill="#3B3149"/>
<path d="M33.0269 52.9431H29.4294V56.4365H33.0269V52.9431Z" fill="#3B3149"/>
<path d="M33.0269 49.45H29.4294V52.9434H33.0269V49.45Z" fill="#3B3149"/>
<path d="M33.0269 45.9558H29.4294V49.4497H33.0269V45.9558Z" fill="#3B3149"/>
<path d="M33.0269 42.4624H29.4294V45.9558H33.0269V42.4624Z" fill="#3B3149"/>
<path d="M33.0269 38.9692H29.4294V42.4627H33.0269V38.9692Z" fill="#3B3149"/>
<path d="M33.0269 35.4751H29.4294V38.969H33.0269V35.4751Z" fill="#3B3149"/>
<path d="M33.0269 31.9817H29.4294V35.4751H33.0269V31.9817Z" fill="#3B3149"/>
<path d="M33.0269 28.4883H29.4294V31.9817H33.0269V28.4883Z" fill="#3B3149"/>
<path d="M33.0269 24.9944H29.4294V28.4883H33.0269V24.9944Z" fill="#3B3149"/>
<path d="M33.0269 21.501H29.4294V24.9944H33.0269V21.501Z" fill="#3B3149"/>
<path d="M33.0269 18.0076H29.4294V21.501H33.0269V18.0076Z" fill="#3B3149"/>
<path d="M33.0269 14.5139H29.4294V18.0073H33.0269V14.5139Z" fill="#3B3149"/>
<path d="M33.0269 11.0203H29.4294V14.5141H33.0269V11.0203Z" fill="#3B3149"/>
<path d="M33.0269 7.52686H29.4294V11.0203H33.0269V7.52686Z" fill="#3B3149"/>
<path d="M33.0269 4.03369H29.4294V7.52711H33.0269V4.03369Z" fill="#3B3149"/>
<path d="M33.0269 0.539551H29.4294V4.03343H33.0269V0.539551Z" fill="#3B3149"/>
<path d="M29.4295 63.4238H25.832V66.9173H29.4295V63.4238Z" fill="#3B3149"/>
<path d="M29.4295 59.9302H25.832V63.4236H29.4295V59.9302Z" fill="#3B3149"/>
<path d="M29.4295 56.4365H25.832V59.9304H29.4295V56.4365Z" fill="#3B3149"/>
<path d="M29.4295 52.9431H25.832V56.4365H29.4295V52.9431Z" fill="#3B3149"/>
<path d="M29.4295 49.45H25.832V52.9434H29.4295V49.45Z" fill="#3B3149"/>
<path d="M29.4295 45.9558H25.832V49.4497H29.4295V45.9558Z" fill="#3B3149"/>
<path d="M29.4295 42.4624H25.832V45.9558H29.4295V42.4624Z" fill="#3B3149"/>
<path d="M29.4295 38.9692H25.832V42.4627H29.4295V38.9692Z" fill="#3B3149"/>
<path d="M29.4295 35.4751H25.832V38.969H29.4295V35.4751Z" fill="#3B3149"/>
<path d="M29.4295 31.9817H25.832V35.4751H29.4295V31.9817Z" fill="#3B3149"/>
<path d="M29.4295 28.4883H25.832V31.9817H29.4295V28.4883Z" fill="#3B3149"/>
<path d="M29.4295 24.9944H25.832V28.4883H29.4295V24.9944Z" fill="#3B3149"/>
<path d="M29.4295 21.501H25.832V24.9944H29.4295V21.501Z" fill="#3B3149"/>
<path d="M29.4295 18.0076H25.832V21.501H29.4295V18.0076Z" fill="#3B3149"/>
<path d="M29.4295 14.5139H25.832V18.0073H29.4295V14.5139Z" fill="#3B3149"/>
<path d="M29.4295 11.0203H25.832V14.5141H29.4295V11.0203Z" fill="#3B3149"/>
<path d="M29.4295 7.52686H25.832V11.0203H29.4295V7.52686Z" fill="#3B3149"/>
<path d="M29.4295 4.03369H25.832V7.52711H29.4295V4.03369Z" fill="#3B3149"/>
<path d="M29.4295 0.539551H25.832V4.03343H29.4295V0.539551Z" fill="#3B3149"/>
<path d="M25.8318 59.9302H22.2349V63.4236H25.8318V59.9302Z" fill="#3B3149"/>
<path d="M25.8318 56.4365H22.2349V59.9304H25.8318V56.4365Z" fill="#3B3149"/>
<path d="M25.8318 52.9431H22.2349V56.4365H25.8318V52.9431Z" fill="#3B3149"/>
<path d="M25.8318 49.45H22.2349V52.9434H25.8318V49.45Z" fill="#3B3149"/>
<path d="M25.8318 45.9558H22.2349V49.4497H25.8318V45.9558Z" fill="#3B3149"/>
<path d="M25.8318 42.4624H22.2349V45.9558H25.8318V42.4624Z" fill="#3B3149"/>
<path d="M25.8318 38.9692H22.2349V42.4627H25.8318V38.9692Z" fill="#3B3149"/>
<path d="M25.8318 35.4751H22.2349V38.969H25.8318V35.4751Z" fill="#3B3149"/>
<path d="M25.8318 31.9817H22.2349V35.4751H25.8318V31.9817Z" fill="#3B3149"/>
<path d="M25.8318 28.4883H22.2349V31.9817H25.8318V28.4883Z" fill="#3B3149"/>
<path d="M25.8318 24.9944H22.2349V28.4883H25.8318V24.9944Z" fill="#3B3149"/>
<path d="M25.8318 21.501H22.2349V24.9944H25.8318V21.501Z" fill="#3B3149"/>
<path d="M25.8318 18.0076H22.2349V21.501H25.8318V18.0076Z" fill="#3B3149"/>
<path d="M25.8318 14.5139H22.2349V18.0073H25.8318V14.5139Z" fill="#3B3149"/>
<path d="M25.8318 11.0203H22.2349V14.5141H25.8318V11.0203Z" fill="#3B3149"/>
<path d="M25.8318 7.52686H22.2349V11.0203H25.8318V7.52686Z" fill="#3B3149"/>
<path d="M25.8318 4.03369H22.2349V7.52711H25.8318V4.03369Z" fill="#3B3149"/>
<path d="M22.2349 59.9302H18.6375V63.4236H22.2349V59.9302Z" fill="#3B3149"/>
<path d="M22.2349 56.4365H18.6375V59.9304H22.2349V56.4365Z" fill="#3B3149"/>
<path d="M22.2349 52.9431H18.6375V56.4365H22.2349V52.9431Z" fill="#3B3149"/>
<path d="M22.2349 49.45H18.6375V52.9434H22.2349V49.45Z" fill="#3B3149"/>
<path d="M22.2349 45.9558H18.6375V49.4497H22.2349V45.9558Z" fill="#3B3149"/>
<path d="M22.2349 42.4624H18.6375V45.9558H22.2349V42.4624Z" fill="#3B3149"/>
<path d="M22.2349 38.9692H18.6375V42.4627H22.2349V38.9692Z" fill="#3B3149"/>
<path d="M22.2349 35.4751H18.6375V38.969H22.2349V35.4751Z" fill="#3B3149"/>
<path d="M22.2349 31.9817H18.6375V35.4751H22.2349V31.9817Z" fill="#3B3149"/>
<path d="M22.2349 28.4883H18.6375V31.9817H22.2349V28.4883Z" fill="#3B3149"/>
<path d="M22.2349 24.9944H18.6375V28.4883H22.2349V24.9944Z" fill="#3B3149"/>
<path d="M22.2349 21.501H18.6375V24.9944H22.2349V21.501Z" fill="#3B3149"/>
<path d="M22.2349 18.0076H18.6375V21.501H22.2349V18.0076Z" fill="#3B3149"/>
<path d="M22.2349 14.5139H18.6375V18.0073H22.2349V14.5139Z" fill="#3B3149"/>
<path d="M22.2349 11.0203H18.6375V14.5141H22.2349V11.0203Z" fill="#3B3149"/>
<path d="M22.2349 7.52686H18.6375V11.0203H22.2349V7.52686Z" fill="#3B3149"/>
<path d="M22.2349 4.03369H18.6375V7.52711H22.2349V4.03369Z" fill="#3B3149"/>
<path d="M18.6375 56.4365H15.04V59.9304H18.6375V56.4365Z" fill="#3B3149"/>
<path d="M18.6375 52.9431H15.04V56.4365H18.6375V52.9431Z" fill="#3B3149"/>
<path d="M18.6375 49.45H15.04V52.9434H18.6375V49.45Z" fill="#3B3149"/>
<path d="M18.6375 45.9558H15.04V49.4497H18.6375V45.9558Z" fill="#3B3149"/>
<path d="M18.6375 42.4624H15.04V45.9558H18.6375V42.4624Z" fill="#3B3149"/>
<path d="M18.6375 38.9692H15.04V42.4627H18.6375V38.9692Z" fill="#3B3149"/>
<path d="M18.6375 35.4751H15.04V38.969H18.6375V35.4751Z" fill="#3B3149"/>
<path d="M18.6375 31.9817H15.04V35.4751H18.6375V31.9817Z" fill="#3B3149"/>
<path d="M18.6375 28.4883H15.04V31.9817H18.6375V28.4883Z" fill="#3B3149"/>
<path d="M18.6375 24.9944H15.04V28.4883H18.6375V24.9944Z" fill="#3B3149"/>
<path d="M18.6375 21.501H15.04V24.9944H18.6375V21.501Z" fill="#3B3149"/>
<path d="M18.6375 18.0076H15.04V21.501H18.6375V18.0076Z" fill="#3B3149"/>
<path d="M18.6375 14.5139H15.04V18.0073H18.6375V14.5139Z" fill="#3B3149"/>
<path d="M18.6375 11.0203H15.04V14.5141H18.6375V11.0203Z" fill="#3B3149"/>
<path d="M18.6375 7.52686H15.04V11.0203H18.6375V7.52686Z" fill="#3B3149"/>
<path d="M15.0401 52.9431H11.4426V56.4365H15.0401V52.9431Z" fill="#3B3149"/>
<path d="M15.0401 49.45H11.4426V52.9434H15.0401V49.45Z" fill="#3B3149"/>
<path d="M15.0401 45.9558H11.4426V49.4497H15.0401V45.9558Z" fill="#3B3149"/>
<path d="M15.0401 42.4624H11.4426V45.9558H15.0401V42.4624Z" fill="#3B3149"/>
<path d="M15.0401 38.9692H11.4426V42.4627H15.0401V38.9692Z" fill="#3B3149"/>
<path d="M15.0401 35.4751H11.4426V38.969H15.0401V35.4751Z" fill="#3B3149"/>
<path d="M15.0401 31.9817H11.4426V35.4751H15.0401V31.9817Z" fill="#3B3149"/>
<path d="M15.0401 28.4883H11.4426V31.9817H15.0401V28.4883Z" fill="#3B3149"/>
<path d="M15.0401 24.9944H11.4426V28.4883H15.0401V24.9944Z" fill="#3B3149"/>
<path d="M15.0401 21.501H11.4426V24.9944H15.0401V21.501Z" fill="#3B3149"/>
<path d="M15.0401 18.0076H11.4426V21.501H15.0401V18.0076Z" fill="#3B3149"/>
<path d="M15.0401 14.5139H11.4426V18.0073H15.0401V14.5139Z" fill="#3B3149"/>
<path d="M15.0401 11.0203H11.4426V14.5141H15.0401V11.0203Z" fill="#3B3149"/>
<path d="M11.4426 49.45H7.84521V52.9434H11.4426V49.45Z" fill="#3B3149"/>
<path d="M11.4426 45.9558H7.84521V49.4497H11.4426V45.9558Z" fill="#3B3149"/>
<path d="M11.4426 42.4624H7.84521V45.9558H11.4426V42.4624Z" fill="#3B3149"/>
<path d="M11.4426 38.9692H7.84521V42.4627H11.4426V38.9692Z" fill="#3B3149"/>
<path d="M11.4426 35.4751H7.84521V38.969H11.4426V35.4751Z" fill="#3B3149"/>
<path d="M11.4426 31.9817H7.84521V35.4751H11.4426V31.9817Z" fill="#3B3149"/>
<path d="M11.4426 28.4883H7.84521V31.9817H11.4426V28.4883Z" fill="#3B3149"/>
<path d="M11.4426 24.9944H7.84521V28.4883H11.4426V24.9944Z" fill="#3B3149"/>
<path d="M11.4426 21.501H7.84521V24.9944H11.4426V21.501Z" fill="#3B3149"/>
<path d="M11.4426 18.0076H7.84521V21.501H11.4426V18.0076Z" fill="#3B3149"/>
<path d="M11.4426 14.5139H7.84521V18.0073H11.4426V14.5139Z" fill="#3B3149"/>
<path d="M7.84526 45.9558H4.24829V49.4497H7.84526V45.9558Z" fill="#3B3149"/>
<path d="M7.84526 42.4624H4.24829V45.9558H7.84526V42.4624Z" fill="#3B3149"/>
<path d="M7.84526 38.9692H4.24829V42.4627H7.84526V38.9692Z" fill="#3B3149"/>
<path d="M7.84526 35.4751H4.24829V38.969H7.84526V35.4751Z" fill="#3B3149"/>
<path d="M7.84526 31.9817H4.24829V35.4751H7.84526V31.9817Z" fill="#3B3149"/>
<path d="M7.84526 28.4883H4.24829V31.9817H7.84526V28.4883Z" fill="#3B3149"/>
<path d="M7.84526 24.9944H4.24829V28.4883H7.84526V24.9944Z" fill="#3B3149"/>
<path d="M7.84526 21.501H4.24829V24.9944H7.84526V21.501Z" fill="#3B3149"/>
<path d="M7.84526 18.0076H4.24829V21.501H7.84526V18.0076Z" fill="#3B3149"/>
<path d="M4.2483 38.9692H0.650879V42.4627H4.2483V38.9692Z" fill="#3B3149"/>
<path d="M4.2483 35.4751H0.650879V38.969H4.2483V35.4751Z" fill="#3B3149"/>
<path d="M4.2483 31.9817H0.650879V35.4751H4.2483V31.9817Z" fill="#3B3149"/>
<path d="M4.2483 28.4883H0.650879V31.9817H4.2483V28.4883Z" fill="#3B3149"/>
<path d="M4.2483 24.9944H0.650879V28.4883H4.2483V24.9944Z" fill="#3B3149"/>
<path d="M47.0112 51.9561H45.1106V53.8567H47.0112V51.9561Z" fill="white"/>
<path d="M47.0112 50.0144H45.1106V51.915H47.0112V50.0144Z" fill="white"/>
<path d="M47.0112 48.1135H45.1106V50.0142H47.0112V48.1135Z" fill="white"/>
<path d="M47.0112 38.5281H45.1106V40.4287H47.0112V38.5281Z" fill="white"/>
<path d="M47.0112 36.627H45.1106V38.5276H47.0112V36.627Z" fill="white"/>
<path d="M47.0112 34.7268H45.1106V36.6274H47.0112V34.7268Z" fill="white"/>
<path d="M47.0112 25.1406H45.1106V27.0413H47.0112V25.1406Z" fill="white"/>
<path d="M47.0112 23.199H45.1106V25.0996H47.0112V23.199Z" fill="white"/>
<path d="M47.0112 21.2986H45.1106V23.1992H47.0112V21.2986Z" fill="white"/>
<path d="M47.0112 19.3979H45.1106V21.2986H47.0112V19.3979Z" fill="white"/>
<path d="M47.0112 17.4558H45.1106V19.3564H47.0112V17.4558Z" fill="white"/>
<path d="M45.1106 53.8567H43.21V55.7573H45.1106V53.8567Z" fill="white"/>
<path d="M45.1106 51.9561H43.21V53.8567H45.1106V51.9561Z" fill="white"/>
<path d="M45.1106 50.0144H43.21V51.915H45.1106V50.0144Z" fill="white"/>
<path d="M45.1106 48.1135H43.21V50.0142H45.1106V48.1135Z" fill="white"/>
<path d="M45.1106 46.2129H43.21V48.1135H45.1106V46.2129Z" fill="white"/>
<path d="M45.1106 40.4697H43.21V42.3704H45.1106V40.4697Z" fill="white"/>
<path d="M45.1106 38.5281H43.21V40.4287H45.1106V38.5281Z" fill="white"/>
<path d="M45.1106 36.627H43.21V38.5276H45.1106V36.627Z" fill="white"/>
<path d="M45.1106 34.7268H43.21V36.6274H45.1106V34.7268Z" fill="white"/>
<path d="M45.1106 28.9421H43.21V30.8428H45.1106V28.9421Z" fill="white"/>
<path d="M45.1106 27.0415H43.21V28.9421H45.1106V27.0415Z" fill="white"/>
<path d="M45.1106 25.1406H43.21V27.0413H45.1106V25.1406Z" fill="white"/>
<path d="M45.1106 23.199H43.21V25.0996H45.1106V23.199Z" fill="white"/>
<path d="M45.1106 21.2986H43.21V23.1992H45.1106V21.2986Z" fill="white"/>
<path d="M45.1106 19.3979H43.21V21.2986H45.1106V19.3979Z" fill="white"/>
<path d="M45.1106 17.4558H43.21V19.3564H45.1106V17.4558Z" fill="white"/>
<path d="M45.1106 15.5552H43.21V17.4558H45.1106V15.5552Z" fill="white"/>
<path d="M43.21 53.8567H41.3093V55.7573H43.21V53.8567Z" fill="white"/>
<path d="M43.21 51.9561H41.3093V53.8567H43.21V51.9561Z" fill="white"/>
<path d="M43.21 50.0144H41.3093V51.915H43.21V50.0144Z" fill="white"/>
<path d="M43.21 48.1135H41.3093V50.0142H43.21V48.1135Z" fill="white"/>
<path d="M43.21 46.2129H41.3093V48.1135H43.21V46.2129Z" fill="white"/>
<path d="M43.21 44.2708H41.3093V46.1714H43.21V44.2708Z" fill="white"/>
<path d="M43.21 42.3706H41.3093V44.2712H43.21V42.3706Z" fill="white"/>
<path d="M43.21 40.4697H41.3093V42.3704H43.21V40.4697Z" fill="white"/>
<path d="M43.21 38.5281H41.3093V40.4287H43.21V38.5281Z" fill="white"/>
<path d="M43.21 36.627H41.3093V38.5276H43.21V36.627Z" fill="white"/>
<path d="M43.21 34.7268H41.3093V36.6274H43.21V34.7268Z" fill="white"/>
<path d="M43.21 30.8843H41.3093V32.7849H43.21V30.8843Z" fill="white"/>
<path d="M43.21 28.9421H41.3093V30.8428H43.21V28.9421Z" fill="white"/>
<path d="M43.21 27.0415H41.3093V28.9421H43.21V27.0415Z" fill="white"/>
<path d="M43.21 25.1406H41.3093V27.0413H43.21V25.1406Z" fill="white"/>
<path d="M43.21 23.199H41.3093V25.0996H43.21V23.199Z" fill="white"/>
<path d="M43.21 21.2986H41.3093V23.1992H43.21V21.2986Z" fill="white"/>
<path d="M43.21 19.3979H41.3093V21.2986H43.21V19.3979Z" fill="white"/>
<path d="M43.21 17.4558H41.3093V19.3564H43.21V17.4558Z" fill="white"/>
<path d="M43.21 15.5552H41.3093V17.4558H43.21V15.5552Z" fill="white"/>
<path d="M43.21 13.6545H41.3093V15.5552H43.21V13.6545Z" fill="white"/>
<path d="M41.2678 51.9561H39.3672V53.8567H41.2678V51.9561Z" fill="white"/>
<path d="M41.2678 50.0144H39.3672V51.915H41.2678V50.0144Z" fill="white"/>
<path d="M41.2678 48.1135H39.3672V50.0142H41.2678V48.1135Z" fill="white"/>
<path d="M41.2678 46.2129H39.3672V48.1135H41.2678V46.2129Z" fill="white"/>
<path d="M41.2678 44.2708H39.3672V46.1714H41.2678V44.2708Z" fill="white"/>
<path d="M41.2678 42.3706H39.3672V44.2712H41.2678V42.3706Z" fill="white"/>
<path d="M41.2678 40.4697H39.3672V42.3704H41.2678V40.4697Z" fill="white"/>
<path d="M41.2678 38.5281H39.3672V40.4287H41.2678V38.5281Z" fill="white"/>
<path d="M41.2678 36.627H39.3672V38.5276H41.2678V36.627Z" fill="white"/>
<path d="M41.2678 30.8843H39.3672V32.7849H41.2678V30.8843Z" fill="white"/>
<path d="M41.2678 28.9421H39.3672V30.8428H41.2678V28.9421Z" fill="white"/>
<path d="M41.2678 27.0415H39.3672V28.9421H41.2678V27.0415Z" fill="white"/>
<path d="M41.2678 25.1406H39.3672V27.0413H41.2678V25.1406Z" fill="white"/>
<path d="M41.2678 23.199H39.3672V25.0996H41.2678V23.199Z" fill="white"/>
<path d="M41.2678 21.2986H39.3672V23.1992H41.2678V21.2986Z" fill="white"/>
<path d="M41.2678 19.3979H39.3672V21.2986H41.2678V19.3979Z" fill="white"/>
<path d="M41.2678 17.4558H39.3672V19.3564H41.2678V17.4558Z" fill="white"/>
<path d="M41.2678 15.5552H39.3672V17.4558H41.2678V15.5552Z" fill="white"/>
<path d="M41.2678 13.6545H39.3672V15.5552H41.2678V13.6545Z" fill="white"/>
<path d="M39.3674 50.0144H37.4668V51.915H39.3674V50.0144Z" fill="white"/>
<path d="M39.3674 48.1135H37.4668V50.0142H39.3674V48.1135Z" fill="white"/>
<path d="M39.3674 46.2129H37.4668V48.1135H39.3674V46.2129Z" fill="white"/>
<path d="M39.3674 44.2708H37.4668V46.1714H39.3674V44.2708Z" fill="white"/>
<path d="M39.3674 42.3706H37.4668V44.2712H39.3674V42.3706Z" fill="white"/>
<path d="M39.3674 40.4697H37.4668V42.3704H39.3674V40.4697Z" fill="white"/>
<path d="M39.3674 38.5281H37.4668V40.4287H39.3674V38.5281Z" fill="white"/>
<path d="M39.3674 36.627H37.4668V38.5276H39.3674V36.627Z" fill="white"/>
<path d="M39.3674 32.7849H37.4668V34.6855H39.3674V32.7849Z" fill="white"/>
<path d="M39.3674 30.8843H37.4668V32.7849H39.3674V30.8843Z" fill="white"/>
<path d="M39.3674 28.9421H37.4668V30.8428H39.3674V28.9421Z" fill="white"/>
<path d="M39.3674 27.0415H37.4668V28.9421H39.3674V27.0415Z" fill="white"/>
<path d="M39.3674 25.1406H37.4668V27.0413H39.3674V25.1406Z" fill="white"/>
<path d="M39.3674 19.3979H37.4668V21.2986H39.3674V19.3979Z" fill="white"/>
<path d="M39.3674 17.4558H37.4668V19.3564H39.3674V17.4558Z" fill="white"/>
<path d="M39.3674 15.5552H37.4668V17.4558H39.3674V15.5552Z" fill="white"/>
<path d="M39.3674 13.6545H37.4668V15.5552H39.3674V13.6545Z" fill="white"/>
<path d="M39.3674 11.7126H37.4668V13.6133H39.3674V11.7126Z" fill="white"/>
<path d="M37.4665 48.1135H35.5659V50.0142H37.4665V48.1135Z" fill="white"/>
<path d="M37.4665 46.2129H35.5659V48.1135H37.4665V46.2129Z" fill="white"/>
<path d="M37.4665 44.2708H35.5659V46.1714H37.4665V44.2708Z" fill="white"/>
<path d="M37.4665 42.3706H35.5659V44.2712H37.4665V42.3706Z" fill="white"/>
<path d="M37.4665 40.4697H35.5659V42.3704H37.4665V40.4697Z" fill="white"/>
<path d="M37.4665 38.5281H35.5659V40.4287H37.4665V38.5281Z" fill="white"/>
<path d="M37.4665 36.627H35.5659V38.5276H37.4665V36.627Z" fill="white"/>
<path d="M37.4665 32.7849H35.5659V34.6855H37.4665V32.7849Z" fill="white"/>
<path d="M37.4665 30.8843H35.5659V32.7849H37.4665V30.8843Z" fill="white"/>
<path d="M37.4665 28.9421H35.5659V30.8428H37.4665V28.9421Z" fill="white"/>
<path d="M37.4665 27.0415H35.5659V28.9421H37.4665V27.0415Z" fill="white"/>
<path d="M37.4665 17.4558H35.5659V19.3564H37.4665V17.4558Z" fill="white"/>
<path d="M37.4665 15.5552H35.5659V17.4558H37.4665V15.5552Z" fill="white"/>
<path d="M37.4665 13.6545H35.5659V15.5552H37.4665V13.6545Z" fill="white"/>
<path d="M37.4665 11.7126H35.5659V13.6133H37.4665V11.7126Z" fill="white"/>
<path d="M35.5246 46.2129H33.624V48.1135H35.5246V46.2129Z" fill="white"/>
<path d="M35.5246 44.2708H33.624V46.1714H35.5246V44.2708Z" fill="white"/>
<path d="M35.5246 42.3706H33.624V44.2712H35.5246V42.3706Z" fill="white"/>
<path d="M35.5246 40.4697H33.624V42.3704H35.5246V40.4697Z" fill="white"/>
<path d="M35.5246 38.5281H33.624V40.4287H35.5246V38.5281Z" fill="white"/>
<path d="M35.5246 36.627H33.624V38.5276H35.5246V36.627Z" fill="white"/>
<path d="M35.5246 32.7849H33.624V34.6855H35.5246V32.7849Z" fill="white"/>
<path d="M35.5246 30.8843H33.624V32.7849H35.5246V30.8843Z" fill="white"/>
<path d="M35.5246 28.9421H33.624V30.8428H35.5246V28.9421Z" fill="white"/>
<path d="M35.5246 27.0415H33.624V28.9421H35.5246V27.0415Z" fill="white"/>
<path d="M35.5246 17.4558H33.624V19.3564H35.5246V17.4558Z" fill="white"/>
<path d="M35.5246 15.5552H33.624V17.4558H35.5246V15.5552Z" fill="white"/>
<path d="M35.5246 13.6545H33.624V15.5552H35.5246V13.6545Z" fill="white"/>
<path d="M35.5246 11.7126H33.624V13.6133H35.5246V11.7126Z" fill="white"/>
<path d="M33.624 48.1135H31.7234V50.0142H33.624V48.1135Z" fill="white"/>
<path d="M33.624 46.2129H31.7234V48.1135H33.624V46.2129Z" fill="white"/>
<path d="M33.624 44.2708H31.7234V46.1714H33.624V44.2708Z" fill="white"/>
<path d="M33.624 42.3706H31.7234V44.2712H33.624V42.3706Z" fill="white"/>
<path d="M33.624 40.4697H31.7234V42.3704H33.624V40.4697Z" fill="white"/>
<path d="M33.624 38.5281H31.7234V40.4287H33.624V38.5281Z" fill="white"/>
<path d="M33.624 36.627H31.7234V38.5276H33.624V36.627Z" fill="white"/>
<path d="M33.624 32.7849H31.7234V34.6855H33.624V32.7849Z" fill="white"/>
<path d="M33.624 30.8843H31.7234V32.7849H33.624V30.8843Z" fill="white"/>
<path d="M33.624 28.9421H31.7234V30.8428H33.624V28.9421Z" fill="white"/>
<path d="M33.624 27.0415H31.7234V28.9421H33.624V27.0415Z" fill="white"/>
<path d="M33.624 25.1406H31.7234V27.0413H33.624V25.1406Z" fill="white"/>
<path d="M33.624 19.3979H31.7234V21.2986H33.624V19.3979Z" fill="white"/>
<path d="M33.624 17.4558H31.7234V19.3564H33.624V17.4558Z" fill="white"/>
<path d="M33.624 15.5552H31.7234V17.4558H33.624V15.5552Z" fill="white"/>
<path d="M33.624 13.6545H31.7234V15.5552H33.624V13.6545Z" fill="white"/>
<path d="M33.624 11.7126H31.7234V13.6133H33.624V11.7126Z" fill="white"/>
<path d="M31.6821 50.0144H29.7815V51.915H31.6821V50.0144Z" fill="white"/>
<path d="M31.6821 48.1135H29.7815V50.0142H31.6821V48.1135Z" fill="white"/>
<path d="M31.6821 46.2129H29.7815V48.1135H31.6821V46.2129Z" fill="white"/>
<path d="M31.6821 44.2708H29.7815V46.1714H31.6821V44.2708Z" fill="white"/>
<path d="M31.6821 42.3706H29.7815V44.2712H31.6821V42.3706Z" fill="white"/>
<path d="M31.6821 40.4697H29.7815V42.3704H31.6821V40.4697Z" fill="white"/>
<path d="M31.6821 38.5281H29.7815V40.4287H31.6821V38.5281Z" fill="white"/>
<path d="M31.6821 36.627H29.7815V38.5276H31.6821V36.627Z" fill="white"/>
<path d="M31.6821 30.8843H29.7815V32.7849H31.6821V30.8843Z" fill="white"/>
<path d="M31.6821 28.9421H29.7815V30.8428H31.6821V28.9421Z" fill="white"/>
<path d="M31.6821 27.0415H29.7815V28.9421H31.6821V27.0415Z" fill="white"/>
<path d="M31.6821 25.1406H29.7815V27.0413H31.6821V25.1406Z" fill="white"/>
<path d="M31.6821 23.199H29.7815V25.0996H31.6821V23.199Z" fill="white"/>
<path d="M31.6821 21.2986H29.7815V23.1992H31.6821V21.2986Z" fill="white"/>
<path d="M31.6821 19.3979H29.7815V21.2986H31.6821V19.3979Z" fill="white"/>
<path d="M31.6821 17.4558H29.7815V19.3564H31.6821V17.4558Z" fill="white"/>
<path d="M31.6821 15.5552H29.7815V17.4558H31.6821V15.5552Z" fill="white"/>
<path d="M31.6821 13.6545H29.7815V15.5552H31.6821V13.6545Z" fill="white"/>
<path d="M29.7815 53.8567H27.8809V55.7573H29.7815V53.8567Z" fill="white"/>
<path d="M29.7815 51.9561H27.8809V53.8567H29.7815V51.9561Z" fill="white"/>
<path d="M29.7815 50.0144H27.8809V51.915H29.7815V50.0144Z" fill="white"/>
<path d="M29.7815 48.1135H27.8809V50.0142H29.7815V48.1135Z" fill="white"/>
<path d="M29.7815 46.2129H27.8809V48.1135H29.7815V46.2129Z" fill="white"/>
<path d="M29.7815 44.2708H27.8809V46.1714H29.7815V44.2708Z" fill="white"/>
<path d="M29.7815 40.4697H27.8809V42.3704H29.7815V40.4697Z" fill="white"/>
<path d="M29.7815 38.5281H27.8809V40.4287H29.7815V38.5281Z" fill="white"/>
<path d="M29.7815 36.627H27.8809V38.5276H29.7815V36.627Z" fill="white"/>
<path d="M29.7815 34.7268H27.8809V36.6274H29.7815V34.7268Z" fill="white"/>
<path d="M29.7815 30.8843H27.8809V32.7849H29.7815V30.8843Z" fill="white"/>
<path d="M29.7815 28.9421H27.8809V30.8428H29.7815V28.9421Z" fill="white"/>
<path d="M29.7815 27.0415H27.8809V28.9421H29.7815V27.0415Z" fill="white"/>
<path d="M29.7815 25.1406H27.8809V27.0413H29.7815V25.1406Z" fill="white"/>
<path d="M29.7815 23.199H27.8809V25.0996H29.7815V23.199Z" fill="white"/>
<path d="M29.7815 21.2986H27.8809V23.1992H29.7815V21.2986Z" fill="white"/>
<path d="M29.7815 19.3979H27.8809V21.2986H29.7815V19.3979Z" fill="white"/>
<path d="M29.7815 17.4558H27.8809V19.3564H29.7815V17.4558Z" fill="white"/>
<path d="M29.7815 15.5552H27.8809V17.4558H29.7815V15.5552Z" fill="white"/>
<path d="M29.7815 13.6545H27.8809V15.5552H29.7815V13.6545Z" fill="white"/>
<path d="M27.8808 53.8567H25.9802V55.7573H27.8808V53.8567Z" fill="white"/>
<path d="M27.8808 51.9561H25.9802V53.8567H27.8808V51.9561Z" fill="white"/>
<path d="M27.8808 50.0144H25.9802V51.915H27.8808V50.0144Z" fill="white"/>
<path d="M27.8808 48.1135H25.9802V50.0142H27.8808V48.1135Z" fill="white"/>
<path d="M27.8808 46.2129H25.9802V48.1135H27.8808V46.2129Z" fill="white"/>
<path d="M27.8808 40.4697H25.9802V42.3704H27.8808V40.4697Z" fill="white"/>
<path d="M27.8808 38.5281H25.9802V40.4287H27.8808V38.5281Z" fill="white"/>
<path d="M27.8808 36.627H25.9802V38.5276H27.8808V36.627Z" fill="white"/>
<path d="M27.8808 34.7268H25.9802V36.6274H27.8808V34.7268Z" fill="white"/>
<path d="M27.8808 28.9421H25.9802V30.8428H27.8808V28.9421Z" fill="white"/>
<path d="M27.8808 27.0415H25.9802V28.9421H27.8808V27.0415Z" fill="white"/>
<path d="M27.8808 25.1406H25.9802V27.0413H27.8808V25.1406Z" fill="white"/>
<path d="M27.8808 23.199H25.9802V25.0996H27.8808V23.199Z" fill="white"/>
<path d="M27.8808 21.2986H25.9802V23.1992H27.8808V21.2986Z" fill="white"/>
<path d="M27.8808 19.3979H25.9802V21.2986H27.8808V19.3979Z" fill="white"/>
<path d="M27.8808 17.4558H25.9802V19.3564H27.8808V17.4558Z" fill="white"/>
<path d="M27.8808 15.5552H25.9802V17.4558H27.8808V15.5552Z" fill="white"/>
<path d="M25.939 51.9561H24.0383V53.8567H25.939V51.9561Z" fill="white"/>
<path d="M25.939 50.0144H24.0383V51.915H25.939V50.0144Z" fill="white"/>
<path d="M25.939 48.1135H24.0383V50.0142H25.939V48.1135Z" fill="white"/>
<path d="M25.939 38.5281H24.0383V40.4287H25.939V38.5281Z" fill="white"/>
<path d="M25.939 36.627H24.0383V38.5276H25.939V36.627Z" fill="white"/>
<path d="M25.939 34.7268H24.0383V36.6274H25.939V34.7268Z" fill="white"/>
<path d="M25.939 25.1406H24.0383V27.0413H25.939V25.1406Z" fill="white"/>
<path d="M25.939 23.199H24.0383V25.0996H25.939V23.199Z" fill="white"/>
<path d="M25.939 21.2986H24.0383V23.1992H25.939V21.2986Z" fill="white"/>
<path d="M25.939 19.3979H24.0383V21.2986H25.939V19.3979Z" fill="white"/>
<path d="M25.939 17.4558H24.0383V19.3564H25.939V17.4558Z" fill="white"/>
<path d="M24.0383 38.5281H22.1377V40.4287H24.0383V38.5281Z" fill="white"/>
<path d="M24.0383 36.627H22.1377V38.5276H24.0383V36.627Z" fill="white"/>
</svg>
