<svg width="69" height="67" viewBox="0 0 69 67" fill="none" xmlns="http://www.w3.org/2000/svg">
<path d="M69 38.7432H65.4026V42.2366H69V38.7432Z" fill="#3B3149"/>
<path d="M69 35.249H65.4026V38.7429H69V35.249Z" fill="#3B3149"/>
<path d="M69 31.7556H65.4026V35.249H69V31.7556Z" fill="#3B3149"/>
<path d="M69 28.2625H65.4026V31.7559H69V28.2625Z" fill="#3B3149"/>
<path d="M69 24.7683H65.4026V28.2622H69V24.7683Z" fill="#3B3149"/>
<path d="M65.4026 45.7297H61.8052V49.2236H65.4026V45.7297Z" fill="#3B3149"/>
<path d="M65.4026 42.2363H61.8052V45.7297H65.4026V42.2363Z" fill="#3B3149"/>
<path d="M65.4026 38.7432H61.8052V42.2366H65.4026V38.7432Z" fill="#3B3149"/>
<path d="M65.4026 35.249H61.8052V38.7429H65.4026V35.249Z" fill="#3B3149"/>
<path d="M65.4026 31.7556H61.8052V35.249H65.4026V31.7556Z" fill="#3B3149"/>
<path d="M65.4026 28.2625H61.8052V31.7559H65.4026V28.2625Z" fill="#3B3149"/>
<path d="M65.4026 24.7683H61.8052V28.2622H65.4026V24.7683Z" fill="#3B3149"/>
<path d="M65.4026 21.2749H61.8052V24.7683H65.4026V21.2749Z" fill="#3B3149"/>
<path d="M65.4026 17.7817H61.8052V21.2752H65.4026V17.7817Z" fill="#3B3149"/>
<path d="M61.8052 49.2239H58.2078V52.7173H61.8052V49.2239Z" fill="#3B3149"/>
<path d="M61.8052 45.7297H58.2078V49.2236H61.8052V45.7297Z" fill="#3B3149"/>
<path d="M61.8052 42.2363H58.2078V45.7297H61.8052V42.2363Z" fill="#3B3149"/>
<path d="M61.8052 38.7432H58.2078V42.2366H61.8052V38.7432Z" fill="#3B3149"/>
<path d="M61.8052 35.249H58.2078V38.7429H61.8052V35.249Z" fill="#3B3149"/>
<path d="M61.8052 31.7556H58.2078V35.249H61.8052V31.7556Z" fill="#3B3149"/>
<path d="M61.8052 28.2625H58.2078V31.7559H61.8052V28.2625Z" fill="#3B3149"/>
<path d="M61.8052 24.7683H58.2078V28.2622H61.8052V24.7683Z" fill="#3B3149"/>
<path d="M61.8052 21.2749H58.2078V24.7683H61.8052V21.2749Z" fill="#3B3149"/>
<path d="M61.8052 17.7817H58.2078V21.2752H61.8052V17.7817Z" fill="#3B3149"/>
<path d="M61.8052 14.2881H58.2078V17.7815H61.8052V14.2881Z" fill="#3B3149"/>
<path d="M58.2078 52.7173H54.6108V56.2107H58.2078V52.7173Z" fill="#3B3149"/>
<path d="M58.2078 49.2239H54.6108V52.7173H58.2078V49.2239Z" fill="#3B3149"/>
<path d="M58.2078 45.7297H54.6108V49.2236H58.2078V45.7297Z" fill="#3B3149"/>
<path d="M58.2078 42.2363H54.6108V45.7297H58.2078V42.2363Z" fill="#3B3149"/>
<path d="M58.2078 38.7432H54.6108V42.2366H58.2078V38.7432Z" fill="#3B3149"/>
<path d="M58.2078 35.249H54.6108V38.7429H58.2078V35.249Z" fill="#3B3149"/>
<path d="M58.2078 31.7556H54.6108V35.249H58.2078V31.7556Z" fill="#3B3149"/>
<path d="M58.2078 28.2625H54.6108V31.7559H58.2078V28.2625Z" fill="#3B3149"/>
<path d="M58.2078 24.7683H54.6108V28.2622H58.2078V24.7683Z" fill="#3B3149"/>
<path d="M58.2078 21.2749H54.6108V24.7683H58.2078V21.2749Z" fill="#3B3149"/>
<path d="M58.2078 17.7817H54.6108V21.2752H58.2078V17.7817Z" fill="#3B3149"/>
<path d="M58.2078 14.2881H54.6108V17.7815H58.2078V14.2881Z" fill="#3B3149"/>
<path d="M58.2078 10.7942H54.6108V14.2881H58.2078V10.7942Z" fill="#3B3149"/>
<path d="M54.6108 56.2104H51.0134V59.7043H54.6108V56.2104Z" fill="#3B3149"/>
<path d="M54.6108 52.7173H51.0134V56.2107H54.6108V52.7173Z" fill="#3B3149"/>
<path d="M54.6108 49.2239H51.0134V52.7173H54.6108V49.2239Z" fill="#3B3149"/>
<path d="M54.6108 45.7297H51.0134V49.2236H54.6108V45.7297Z" fill="#3B3149"/>
<path d="M54.6108 42.2363H51.0134V45.7297H54.6108V42.2363Z" fill="#3B3149"/>
<path d="M54.6108 38.7432H51.0134V42.2366H54.6108V38.7432Z" fill="#3B3149"/>
<path d="M54.6108 35.249H51.0134V38.7429H54.6108V35.249Z" fill="#3B3149"/>
<path d="M54.6108 31.7556H51.0134V35.249H54.6108V31.7556Z" fill="#3B3149"/>
<path d="M54.6108 28.2625H51.0134V31.7559H54.6108V28.2625Z" fill="#3B3149"/>
<path d="M54.6108 24.7683H51.0134V28.2622H54.6108V24.7683Z" fill="#3B3149"/>
<path d="M54.6108 21.2749H51.0134V24.7683H54.6108V21.2749Z" fill="#3B3149"/>
<path d="M54.6108 17.7817H51.0134V21.2752H54.6108V17.7817Z" fill="#3B3149"/>
<path d="M54.6108 14.2881H51.0134V17.7815H54.6108V14.2881Z" fill="#3B3149"/>
<path d="M54.6108 10.7942H51.0134V14.2881H54.6108V10.7942Z" fill="#3B3149"/>
<path d="M54.6108 7.30103H51.0134V10.7944H54.6108V7.30103Z" fill="#3B3149"/>
<path d="M51.0134 59.7041H47.416V63.1975H51.0134V59.7041Z" fill="#3B3149"/>
<path d="M51.0134 56.2104H47.416V59.7043H51.0134V56.2104Z" fill="#3B3149"/>
<path d="M51.0134 52.7173H47.416V56.2107H51.0134V52.7173Z" fill="#3B3149"/>
<path d="M51.0134 49.2239H47.416V52.7173H51.0134V49.2239Z" fill="#3B3149"/>
<path d="M51.0134 45.7297H47.416V49.2236H51.0134V45.7297Z" fill="#3B3149"/>
<path d="M51.0134 42.2363H47.416V45.7297H51.0134V42.2363Z" fill="#3B3149"/>
<path d="M51.0134 38.7432H47.416V42.2366H51.0134V38.7432Z" fill="#3B3149"/>
<path d="M51.0134 35.249H47.416V38.7429H51.0134V35.249Z" fill="#3B3149"/>
<path d="M51.0134 31.7556H47.416V35.249H51.0134V31.7556Z" fill="#3B3149"/>
<path d="M51.0134 28.2625H47.416V31.7559H51.0134V28.2625Z" fill="#3B3149"/>
<path d="M51.0134 24.7683H47.416V28.2622H51.0134V24.7683Z" fill="#3B3149"/>
<path d="M51.0134 21.2749H47.416V24.7683H51.0134V21.2749Z" fill="#3B3149"/>
<path d="M51.0134 17.7817H47.416V21.2752H51.0134V17.7817Z" fill="#3B3149"/>
<path d="M51.0134 14.2881H47.416V17.7815H51.0134V14.2881Z" fill="#3B3149"/>
<path d="M51.0134 10.7942H47.416V14.2881H51.0134V10.7942Z" fill="#3B3149"/>
<path d="M51.0134 7.30103H47.416V10.7944H51.0134V7.30103Z" fill="#3B3149"/>
<path d="M51.0134 3.80762H47.416V7.30104H51.0134V3.80762Z" fill="#3B3149"/>
<path d="M47.416 59.7041H43.8186V63.1975H47.416V59.7041Z" fill="#3B3149"/>
<path d="M47.416 56.2104H43.8186V59.7043H47.416V56.2104Z" fill="#3B3149"/>
<path d="M47.416 52.7173H43.8186V56.2107H47.416V52.7173Z" fill="#3B3149"/>
<path d="M47.416 49.2239H43.8186V52.7173H47.416V49.2239Z" fill="#3B3149"/>
<path d="M47.416 45.7297H43.8186V49.2236H47.416V45.7297Z" fill="#3B3149"/>
<path d="M47.416 42.2363H43.8186V45.7297H47.416V42.2363Z" fill="#3B3149"/>
<path d="M47.416 38.7432H43.8186V42.2366H47.416V38.7432Z" fill="#3B3149"/>
<path d="M47.416 35.249H43.8186V38.7429H47.416V35.249Z" fill="#3B3149"/>
<path d="M47.416 31.7556H43.8186V35.249H47.416V31.7556Z" fill="#3B3149"/>
<path d="M47.416 28.2625H43.8186V31.7559H47.416V28.2625Z" fill="#3B3149"/>
<path d="M47.416 24.7683H43.8186V28.2622H47.416V24.7683Z" fill="#3B3149"/>
<path d="M47.416 21.2749H43.8186V24.7683H47.416V21.2749Z" fill="#3B3149"/>
<path d="M47.416 17.7817H43.8186V21.2752H47.416V17.7817Z" fill="#3B3149"/>
<path d="M47.416 14.2881H43.8186V17.7815H47.416V14.2881Z" fill="#3B3149"/>
<path d="M47.416 10.7942H43.8186V14.2881H47.416V10.7942Z" fill="#3B3149"/>
<path d="M47.416 7.30103H43.8186V10.7944H47.416V7.30103Z" fill="#3B3149"/>
<path d="M47.416 3.80762H43.8186V7.30104H47.416V3.80762Z" fill="#3B3149"/>
<path d="M43.8186 63.198H40.2217V66.6914H43.8186V63.198Z" fill="#3B3149"/>
<path d="M43.8186 59.7041H40.2217V63.1975H43.8186V59.7041Z" fill="#3B3149"/>
<path d="M43.8186 56.2104H40.2217V59.7043H43.8186V56.2104Z" fill="#3B3149"/>
<path d="M43.8186 52.7173H40.2217V56.2107H43.8186V52.7173Z" fill="#3B3149"/>
<path d="M43.8186 49.2239H40.2217V52.7173H43.8186V49.2239Z" fill="#3B3149"/>
<path d="M43.8186 45.7297H40.2217V49.2236H43.8186V45.7297Z" fill="#3B3149"/>
<path d="M43.8186 42.2363H40.2217V45.7297H43.8186V42.2363Z" fill="#3B3149"/>
<path d="M43.8186 38.7432H40.2217V42.2366H43.8186V38.7432Z" fill="#3B3149"/>
<path d="M43.8186 35.249H40.2217V38.7429H43.8186V35.249Z" fill="#3B3149"/>
<path d="M43.8186 31.7556H40.2217V35.249H43.8186V31.7556Z" fill="#3B3149"/>
<path d="M43.8186 28.2625H40.2217V31.7559H43.8186V28.2625Z" fill="#3B3149"/>
<path d="M43.8186 24.7683H40.2217V28.2622H43.8186V24.7683Z" fill="#3B3149"/>
<path d="M43.8186 21.2749H40.2217V24.7683H43.8186V21.2749Z" fill="#3B3149"/>
<path d="M43.8186 17.7817H40.2217V21.2752H43.8186V17.7817Z" fill="#3B3149"/>
<path d="M43.8186 14.2881H40.2217V17.7815H43.8186V14.2881Z" fill="#3B3149"/>
<path d="M43.8186 10.7942H40.2217V14.2881H43.8186V10.7942Z" fill="#3B3149"/>
<path d="M43.8186 7.30103H40.2217V10.7944H43.8186V7.30103Z" fill="#3B3149"/>
<path d="M43.8186 3.80762H40.2217V7.30104H43.8186V3.80762Z" fill="#3B3149"/>
<path d="M43.8186 0.313477H40.2217V3.80735H43.8186V0.313477Z" fill="#3B3149"/>
<path d="M40.2217 63.198H36.6243V66.6914H40.2217V63.198Z" fill="#3B3149"/>
<path d="M40.2217 59.7041H36.6243V63.1975H40.2217V59.7041Z" fill="#3B3149"/>
<path d="M40.2217 56.2104H36.6243V59.7043H40.2217V56.2104Z" fill="#3B3149"/>
<path d="M40.2217 52.7173H36.6243V56.2107H40.2217V52.7173Z" fill="#3B3149"/>
<path d="M40.2217 49.2239H36.6243V52.7173H40.2217V49.2239Z" fill="#3B3149"/>
<path d="M40.2217 45.7297H36.6243V49.2236H40.2217V45.7297Z" fill="#3B3149"/>
<path d="M40.2217 42.2363H36.6243V45.7297H40.2217V42.2363Z" fill="#3B3149"/>
<path d="M40.2217 38.7432H36.6243V42.2366H40.2217V38.7432Z" fill="#3B3149"/>
<path d="M40.2217 35.249H36.6243V38.7429H40.2217V35.249Z" fill="#3B3149"/>
<path d="M40.2217 31.7556H36.6243V35.249H40.2217V31.7556Z" fill="#3B3149"/>
<path d="M40.2217 28.2625H36.6243V31.7559H40.2217V28.2625Z" fill="#3B3149"/>
<path d="M40.2217 24.7683H36.6243V28.2622H40.2217V24.7683Z" fill="#3B3149"/>
<path d="M40.2217 21.2749H36.6243V24.7683H40.2217V21.2749Z" fill="#3B3149"/>
<path d="M40.2217 17.7817H36.6243V21.2752H40.2217V17.7817Z" fill="#3B3149"/>
<path d="M40.2217 14.2881H36.6243V17.7815H40.2217V14.2881Z" fill="#3B3149"/>
<path d="M40.2217 10.7942H36.6243V14.2881H40.2217V10.7942Z" fill="#3B3149"/>
<path d="M40.2217 7.30103H36.6243V10.7944H40.2217V7.30103Z" fill="#3B3149"/>
<path d="M40.2217 3.80762H36.6243V7.30104H40.2217V3.80762Z" fill="#3B3149"/>
<path d="M40.2217 0.313477H36.6243V3.80735H40.2217V0.313477Z" fill="#3B3149"/>
<path d="M36.6243 63.198H33.0269V66.6914H36.6243V63.198Z" fill="#3B3149"/>
<path d="M36.6243 59.7041H33.0269V63.1975H36.6243V59.7041Z" fill="#3B3149"/>
<path d="M36.6243 56.2104H33.0269V59.7043H36.6243V56.2104Z" fill="#3B3149"/>
<path d="M36.6243 52.7173H33.0269V56.2107H36.6243V52.7173Z" fill="#3B3149"/>
<path d="M36.6243 49.2239H33.0269V52.7173H36.6243V49.2239Z" fill="#3B3149"/>
<path d="M36.6243 45.7297H33.0269V49.2236H36.6243V45.7297Z" fill="#3B3149"/>
<path d="M36.6243 42.2363H33.0269V45.7297H36.6243V42.2363Z" fill="#3B3149"/>
<path d="M36.6243 38.7432H33.0269V42.2366H36.6243V38.7432Z" fill="#3B3149"/>
<path d="M36.6243 35.249H33.0269V38.7429H36.6243V35.249Z" fill="#3B3149"/>
<path d="M36.6243 31.7556H33.0269V35.249H36.6243V31.7556Z" fill="#3B3149"/>
<path d="M36.6243 28.2625H33.0269V31.7559H36.6243V28.2625Z" fill="#3B3149"/>
<path d="M36.6243 24.7683H33.0269V28.2622H36.6243V24.7683Z" fill="#3B3149"/>
<path d="M36.6243 21.2749H33.0269V24.7683H36.6243V21.2749Z" fill="#3B3149"/>
<path d="M36.6243 17.7817H33.0269V21.2752H36.6243V17.7817Z" fill="#3B3149"/>
<path d="M36.6243 14.2881H33.0269V17.7815H36.6243V14.2881Z" fill="#3B3149"/>
<path d="M36.6243 10.7942H33.0269V14.2881H36.6243V10.7942Z" fill="#3B3149"/>
<path d="M36.6243 7.30103H33.0269V10.7944H36.6243V7.30103Z" fill="#3B3149"/>
<path d="M36.6243 3.80762H33.0269V7.30104H36.6243V3.80762Z" fill="#3B3149"/>
<path d="M36.6243 0.313477H33.0269V3.80735H36.6243V0.313477Z" fill="#3B3149"/>
<path d="M33.0269 63.198H29.4294V66.6914H33.0269V63.198Z" fill="#3B3149"/>
<path d="M33.0269 59.7041H29.4294V63.1975H33.0269V59.7041Z" fill="#3B3149"/>
<path d="M33.0269 56.2104H29.4294V59.7043H33.0269V56.2104Z" fill="#3B3149"/>
<path d="M33.0269 52.7173H29.4294V56.2107H33.0269V52.7173Z" fill="#3B3149"/>
<path d="M33.0269 49.2239H29.4294V52.7173H33.0269V49.2239Z" fill="#3B3149"/>
<path d="M33.0269 45.7297H29.4294V49.2236H33.0269V45.7297Z" fill="#3B3149"/>
<path d="M33.0269 42.2363H29.4294V45.7297H33.0269V42.2363Z" fill="#3B3149"/>
<path d="M33.0269 38.7432H29.4294V42.2366H33.0269V38.7432Z" fill="#3B3149"/>
<path d="M33.0269 35.249H29.4294V38.7429H33.0269V35.249Z" fill="#3B3149"/>
<path d="M33.0269 31.7556H29.4294V35.249H33.0269V31.7556Z" fill="#3B3149"/>
<path d="M33.0269 28.2625H29.4294V31.7559H33.0269V28.2625Z" fill="#3B3149"/>
<path d="M33.0269 24.7683H29.4294V28.2622H33.0269V24.7683Z" fill="#3B3149"/>
<path d="M33.0269 21.2749H29.4294V24.7683H33.0269V21.2749Z" fill="#3B3149"/>
<path d="M33.0269 17.7817H29.4294V21.2752H33.0269V17.7817Z" fill="#3B3149"/>
<path d="M33.0269 14.2881H29.4294V17.7815H33.0269V14.2881Z" fill="#3B3149"/>
<path d="M33.0269 10.7942H29.4294V14.2881H33.0269V10.7942Z" fill="#3B3149"/>
<path d="M33.0269 7.30103H29.4294V10.7944H33.0269V7.30103Z" fill="#3B3149"/>
<path d="M33.0269 3.80762H29.4294V7.30104H33.0269V3.80762Z" fill="#3B3149"/>
<path d="M33.0269 0.313477H29.4294V3.80735H33.0269V0.313477Z" fill="#3B3149"/>
<path d="M29.4295 63.198H25.832V66.6914H29.4295V63.198Z" fill="#3B3149"/>
<path d="M29.4295 59.7041H25.832V63.1975H29.4295V59.7041Z" fill="#3B3149"/>
<path d="M29.4295 56.2104H25.832V59.7043H29.4295V56.2104Z" fill="#3B3149"/>
<path d="M29.4295 52.7173H25.832V56.2107H29.4295V52.7173Z" fill="#3B3149"/>
<path d="M29.4295 49.2239H25.832V52.7173H29.4295V49.2239Z" fill="#3B3149"/>
<path d="M29.4295 45.7297H25.832V49.2236H29.4295V45.7297Z" fill="#3B3149"/>
<path d="M29.4295 42.2363H25.832V45.7297H29.4295V42.2363Z" fill="#3B3149"/>
<path d="M29.4295 38.7432H25.832V42.2366H29.4295V38.7432Z" fill="#3B3149"/>
<path d="M29.4295 35.249H25.832V38.7429H29.4295V35.249Z" fill="#3B3149"/>
<path d="M29.4295 31.7556H25.832V35.249H29.4295V31.7556Z" fill="#3B3149"/>
<path d="M29.4295 28.2625H25.832V31.7559H29.4295V28.2625Z" fill="#3B3149"/>
<path d="M29.4295 24.7683H25.832V28.2622H29.4295V24.7683Z" fill="#3B3149"/>
<path d="M29.4295 21.2749H25.832V24.7683H29.4295V21.2749Z" fill="#3B3149"/>
<path d="M29.4295 17.7817H25.832V21.2752H29.4295V17.7817Z" fill="#3B3149"/>
<path d="M29.4295 14.2881H25.832V17.7815H29.4295V14.2881Z" fill="#3B3149"/>
<path d="M29.4295 10.7942H25.832V14.2881H29.4295V10.7942Z" fill="#3B3149"/>
<path d="M29.4295 7.30103H25.832V10.7944H29.4295V7.30103Z" fill="#3B3149"/>
<path d="M29.4295 3.80762H25.832V7.30104H29.4295V3.80762Z" fill="#3B3149"/>
<path d="M29.4295 0.313477H25.832V3.80735H29.4295V0.313477Z" fill="#3B3149"/>
<path d="M25.8318 59.7041H22.2349V63.1975H25.8318V59.7041Z" fill="#3B3149"/>
<path d="M25.8318 56.2104H22.2349V59.7043H25.8318V56.2104Z" fill="#3B3149"/>
<path d="M25.8318 52.7173H22.2349V56.2107H25.8318V52.7173Z" fill="#3B3149"/>
<path d="M25.8318 49.2239H22.2349V52.7173H25.8318V49.2239Z" fill="#3B3149"/>
<path d="M25.8318 45.7297H22.2349V49.2236H25.8318V45.7297Z" fill="#3B3149"/>
<path d="M25.8318 42.2363H22.2349V45.7297H25.8318V42.2363Z" fill="#3B3149"/>
<path d="M25.8318 38.7432H22.2349V42.2366H25.8318V38.7432Z" fill="#3B3149"/>
<path d="M25.8318 35.249H22.2349V38.7429H25.8318V35.249Z" fill="#3B3149"/>
<path d="M25.8318 31.7556H22.2349V35.249H25.8318V31.7556Z" fill="#3B3149"/>
<path d="M25.8318 28.2625H22.2349V31.7559H25.8318V28.2625Z" fill="#3B3149"/>
<path d="M25.8318 24.7683H22.2349V28.2622H25.8318V24.7683Z" fill="#3B3149"/>
<path d="M25.8318 21.2749H22.2349V24.7683H25.8318V21.2749Z" fill="#3B3149"/>
<path d="M25.8318 17.7817H22.2349V21.2752H25.8318V17.7817Z" fill="#3B3149"/>
<path d="M25.8318 14.2881H22.2349V17.7815H25.8318V14.2881Z" fill="#3B3149"/>
<path d="M25.8318 10.7942H22.2349V14.2881H25.8318V10.7942Z" fill="#3B3149"/>
<path d="M25.8318 7.30103H22.2349V10.7944H25.8318V7.30103Z" fill="#3B3149"/>
<path d="M25.8318 3.80762H22.2349V7.30104H25.8318V3.80762Z" fill="#3B3149"/>
<path d="M22.2349 59.7041H18.6375V63.1975H22.2349V59.7041Z" fill="#3B3149"/>
<path d="M22.2349 56.2104H18.6375V59.7043H22.2349V56.2104Z" fill="#3B3149"/>
<path d="M22.2349 52.7173H18.6375V56.2107H22.2349V52.7173Z" fill="#3B3149"/>
<path d="M22.2349 49.2239H18.6375V52.7173H22.2349V49.2239Z" fill="#3B3149"/>
<path d="M22.2349 45.7297H18.6375V49.2236H22.2349V45.7297Z" fill="#3B3149"/>
<path d="M22.2349 42.2363H18.6375V45.7297H22.2349V42.2363Z" fill="#3B3149"/>
<path d="M22.2349 38.7432H18.6375V42.2366H22.2349V38.7432Z" fill="#3B3149"/>
<path d="M22.2349 35.249H18.6375V38.7429H22.2349V35.249Z" fill="#3B3149"/>
<path d="M22.2349 31.7556H18.6375V35.249H22.2349V31.7556Z" fill="#3B3149"/>
<path d="M22.2349 28.2625H18.6375V31.7559H22.2349V28.2625Z" fill="#3B3149"/>
<path d="M22.2349 24.7683H18.6375V28.2622H22.2349V24.7683Z" fill="#3B3149"/>
<path d="M22.2349 21.2749H18.6375V24.7683H22.2349V21.2749Z" fill="#3B3149"/>
<path d="M22.2349 17.7817H18.6375V21.2752H22.2349V17.7817Z" fill="#3B3149"/>
<path d="M22.2349 14.2881H18.6375V17.7815H22.2349V14.2881Z" fill="#3B3149"/>
<path d="M22.2349 10.7942H18.6375V14.2881H22.2349V10.7942Z" fill="#3B3149"/>
<path d="M22.2349 7.30103H18.6375V10.7944H22.2349V7.30103Z" fill="#3B3149"/>
<path d="M22.2349 3.80762H18.6375V7.30104H22.2349V3.80762Z" fill="#3B3149"/>
<path d="M18.6375 56.2104H15.04V59.7043H18.6375V56.2104Z" fill="#3B3149"/>
<path d="M18.6375 52.7173H15.04V56.2107H18.6375V52.7173Z" fill="#3B3149"/>
<path d="M18.6375 49.2239H15.04V52.7173H18.6375V49.2239Z" fill="#3B3149"/>
<path d="M18.6375 45.7297H15.04V49.2236H18.6375V45.7297Z" fill="#3B3149"/>
<path d="M18.6375 42.2363H15.04V45.7297H18.6375V42.2363Z" fill="#3B3149"/>
<path d="M18.6375 38.7432H15.04V42.2366H18.6375V38.7432Z" fill="#3B3149"/>
<path d="M18.6375 35.249H15.04V38.7429H18.6375V35.249Z" fill="#3B3149"/>
<path d="M18.6375 31.7556H15.04V35.249H18.6375V31.7556Z" fill="#3B3149"/>
<path d="M18.6375 28.2625H15.04V31.7559H18.6375V28.2625Z" fill="#3B3149"/>
<path d="M18.6375 24.7683H15.04V28.2622H18.6375V24.7683Z" fill="#3B3149"/>
<path d="M18.6375 21.2749H15.04V24.7683H18.6375V21.2749Z" fill="#3B3149"/>
<path d="M18.6375 17.7817H15.04V21.2752H18.6375V17.7817Z" fill="#3B3149"/>
<path d="M18.6375 14.2881H15.04V17.7815H18.6375V14.2881Z" fill="#3B3149"/>
<path d="M18.6375 10.7942H15.04V14.2881H18.6375V10.7942Z" fill="#3B3149"/>
<path d="M18.6375 7.30103H15.04V10.7944H18.6375V7.30103Z" fill="#3B3149"/>
<path d="M15.0401 52.7173H11.4426V56.2107H15.0401V52.7173Z" fill="#3B3149"/>
<path d="M15.0401 49.2239H11.4426V52.7173H15.0401V49.2239Z" fill="#3B3149"/>
<path d="M15.0401 45.7297H11.4426V49.2236H15.0401V45.7297Z" fill="#3B3149"/>
<path d="M15.0401 42.2363H11.4426V45.7297H15.0401V42.2363Z" fill="#3B3149"/>
<path d="M15.0401 38.7432H11.4426V42.2366H15.0401V38.7432Z" fill="#3B3149"/>
<path d="M15.0401 35.249H11.4426V38.7429H15.0401V35.249Z" fill="#3B3149"/>
<path d="M15.0401 31.7556H11.4426V35.249H15.0401V31.7556Z" fill="#3B3149"/>
<path d="M15.0401 28.2625H11.4426V31.7559H15.0401V28.2625Z" fill="#3B3149"/>
<path d="M15.0401 24.7683H11.4426V28.2622H15.0401V24.7683Z" fill="#3B3149"/>
<path d="M15.0401 21.2749H11.4426V24.7683H15.0401V21.2749Z" fill="#3B3149"/>
<path d="M15.0401 17.7817H11.4426V21.2752H15.0401V17.7817Z" fill="#3B3149"/>
<path d="M15.0401 14.2881H11.4426V17.7815H15.0401V14.2881Z" fill="#3B3149"/>
<path d="M15.0401 10.7942H11.4426V14.2881H15.0401V10.7942Z" fill="#3B3149"/>
<path d="M11.4426 49.2239H7.84521V52.7173H11.4426V49.2239Z" fill="#3B3149"/>
<path d="M11.4426 45.7297H7.84521V49.2236H11.4426V45.7297Z" fill="#3B3149"/>
<path d="M11.4426 42.2363H7.84521V45.7297H11.4426V42.2363Z" fill="#3B3149"/>
<path d="M11.4426 38.7432H7.84521V42.2366H11.4426V38.7432Z" fill="#3B3149"/>
<path d="M11.4426 35.249H7.84521V38.7429H11.4426V35.249Z" fill="#3B3149"/>
<path d="M11.4426 31.7556H7.84521V35.249H11.4426V31.7556Z" fill="#3B3149"/>
<path d="M11.4426 28.2625H7.84521V31.7559H11.4426V28.2625Z" fill="#3B3149"/>
<path d="M11.4426 24.7683H7.84521V28.2622H11.4426V24.7683Z" fill="#3B3149"/>
<path d="M11.4426 21.2749H7.84521V24.7683H11.4426V21.2749Z" fill="#3B3149"/>
<path d="M11.4426 17.7817H7.84521V21.2752H11.4426V17.7817Z" fill="#3B3149"/>
<path d="M11.4426 14.2881H7.84521V17.7815H11.4426V14.2881Z" fill="#3B3149"/>
<path d="M7.84526 45.7297H4.24829V49.2236H7.84526V45.7297Z" fill="#3B3149"/>
<path d="M7.84526 42.2363H4.24829V45.7297H7.84526V42.2363Z" fill="#3B3149"/>
<path d="M7.84526 38.7432H4.24829V42.2366H7.84526V38.7432Z" fill="#3B3149"/>
<path d="M7.84526 35.249H4.24829V38.7429H7.84526V35.249Z" fill="#3B3149"/>
<path d="M7.84526 31.7556H4.24829V35.249H7.84526V31.7556Z" fill="#3B3149"/>
<path d="M7.84526 28.2625H4.24829V31.7559H7.84526V28.2625Z" fill="#3B3149"/>
<path d="M7.84526 24.7683H4.24829V28.2622H7.84526V24.7683Z" fill="#3B3149"/>
<path d="M7.84526 21.2749H4.24829V24.7683H7.84526V21.2749Z" fill="#3B3149"/>
<path d="M7.84526 17.7817H4.24829V21.2752H7.84526V17.7817Z" fill="#3B3149"/>
<path d="M4.2483 38.7432H0.650879V42.2366H4.2483V38.7432Z" fill="#3B3149"/>
<path d="M4.2483 35.249H0.650879V38.7429H4.2483V35.249Z" fill="#3B3149"/>
<path d="M4.2483 31.7556H0.650879V35.249H4.2483V31.7556Z" fill="#3B3149"/>
<path d="M4.2483 28.2625H0.650879V31.7559H4.2483V28.2625Z" fill="#3B3149"/>
<path d="M4.2483 24.7683H0.650879V28.2622H4.2483V24.7683Z" fill="#3B3149"/>
<path d="M47.0112 51.7302H45.1106V53.6308H47.0112V51.7302Z" fill="#726683"/>
<path d="M47.0112 49.7883H45.1106V51.689H47.0112V49.7883Z" fill="#726683"/>
<path d="M47.0112 47.8877H45.1106V49.7883H47.0112V47.8877Z" fill="#726683"/>
<path d="M47.0112 38.302H45.1106V40.2026H47.0112V38.302Z" fill="#726683"/>
<path d="M47.0112 36.4009H45.1106V38.3015H47.0112V36.4009Z" fill="#726683"/>
<path d="M47.0112 34.5007H45.1106V36.4014H47.0112V34.5007Z" fill="#726683"/>
<path d="M47.0112 24.9148H45.1106V26.8154H47.0112V24.9148Z" fill="#726683"/>
<path d="M47.0112 22.9729H45.1106V24.8735H47.0112V22.9729Z" fill="#726683"/>
<path d="M47.0112 21.0728H45.1106V22.9734H47.0112V21.0728Z" fill="#726683"/>
<path d="M47.0112 19.1721H45.1106V21.0727H47.0112V19.1721Z" fill="#726683"/>
<path d="M47.0112 17.2297H45.1106V19.1303H47.0112V17.2297Z" fill="#726683"/>
<path d="M45.1106 53.6309H43.21V55.5315H45.1106V53.6309Z" fill="#726683"/>
<path d="M45.1106 51.7302H43.21V53.6308H45.1106V51.7302Z" fill="#726683"/>
<path d="M45.1106 49.7883H43.21V51.689H45.1106V49.7883Z" fill="#726683"/>
<path d="M45.1106 47.8877H43.21V49.7883H45.1106V47.8877Z" fill="#726683"/>
<path d="M45.1106 45.9871H43.21V47.8877H45.1106V45.9871Z" fill="#726683"/>
<path d="M45.1106 40.2439H43.21V42.1445H45.1106V40.2439Z" fill="#726683"/>
<path d="M45.1106 38.302H43.21V40.2026H45.1106V38.302Z" fill="#726683"/>
<path d="M45.1106 36.4009H43.21V38.3015H45.1106V36.4009Z" fill="#726683"/>
<path d="M45.1106 34.5007H43.21V36.4014H45.1106V34.5007Z" fill="#726683"/>
<path d="M45.1106 28.7161H43.21V30.6167H45.1106V28.7161Z" fill="#726683"/>
<path d="M45.1106 26.8154H43.21V28.7161H45.1106V26.8154Z" fill="#726683"/>
<path d="M45.1106 24.9148H43.21V26.8154H45.1106V24.9148Z" fill="#726683"/>
<path d="M45.1106 22.9729H43.21V24.8735H45.1106V22.9729Z" fill="#726683"/>
<path d="M45.1106 21.0728H43.21V22.9734H45.1106V21.0728Z" fill="#726683"/>
<path d="M45.1106 19.1721H43.21V21.0727H45.1106V19.1721Z" fill="#726683"/>
<path d="M45.1106 17.2297H43.21V19.1303H45.1106V17.2297Z" fill="#726683"/>
<path d="M45.1106 15.3291H43.21V17.2297H45.1106V15.3291Z" fill="#726683"/>
<path d="M43.21 53.6309H41.3093V55.5315H43.21V53.6309Z" fill="#726683"/>
<path d="M43.21 51.7302H41.3093V53.6308H43.21V51.7302Z" fill="#726683"/>
<path d="M43.21 49.7883H41.3093V51.689H43.21V49.7883Z" fill="#726683"/>
<path d="M43.21 47.8877H41.3093V49.7883H43.21V47.8877Z" fill="#726683"/>
<path d="M43.21 45.9871H41.3093V47.8877H43.21V45.9871Z" fill="#726683"/>
<path d="M43.21 44.0447H41.3093V45.9453H43.21V44.0447Z" fill="#726683"/>
<path d="M43.21 42.1445H41.3093V44.0452H43.21V42.1445Z" fill="#726683"/>
<path d="M43.21 40.2439H41.3093V42.1445H43.21V40.2439Z" fill="#726683"/>
<path d="M43.21 38.302H41.3093V40.2026H43.21V38.302Z" fill="#726683"/>
<path d="M43.21 36.4009H41.3093V38.3015H43.21V36.4009Z" fill="#726683"/>
<path d="M43.21 34.5007H41.3093V36.4014H43.21V34.5007Z" fill="#726683"/>
<path d="M43.21 30.6582H41.3093V32.5588H43.21V30.6582Z" fill="#726683"/>
<path d="M43.21 28.7161H41.3093V30.6167H43.21V28.7161Z" fill="#726683"/>
<path d="M43.21 26.8154H41.3093V28.7161H43.21V26.8154Z" fill="#726683"/>
<path d="M43.21 24.9148H41.3093V26.8154H43.21V24.9148Z" fill="#726683"/>
<path d="M43.21 22.9729H41.3093V24.8735H43.21V22.9729Z" fill="#726683"/>
<path d="M43.21 21.0728H41.3093V22.9734H43.21V21.0728Z" fill="#726683"/>
<path d="M43.21 19.1721H41.3093V21.0727H43.21V19.1721Z" fill="#726683"/>
<path d="M43.21 17.2297H41.3093V19.1303H43.21V17.2297Z" fill="#726683"/>
<path d="M43.21 15.3291H41.3093V17.2297H43.21V15.3291Z" fill="#726683"/>
<path d="M43.21 13.4285H41.3093V15.3291H43.21V13.4285Z" fill="#726683"/>
<path d="M41.2678 51.7302H39.3672V53.6308H41.2678V51.7302Z" fill="#726683"/>
<path d="M41.2678 49.7883H39.3672V51.689H41.2678V49.7883Z" fill="#726683"/>
<path d="M41.2678 47.8877H39.3672V49.7883H41.2678V47.8877Z" fill="#726683"/>
<path d="M41.2678 45.9871H39.3672V47.8877H41.2678V45.9871Z" fill="#726683"/>
<path d="M41.2678 44.0447H39.3672V45.9453H41.2678V44.0447Z" fill="#726683"/>
<path d="M41.2678 42.1445H39.3672V44.0452H41.2678V42.1445Z" fill="#726683"/>
<path d="M41.2678 40.2439H39.3672V42.1445H41.2678V40.2439Z" fill="#726683"/>
<path d="M41.2678 38.302H39.3672V40.2026H41.2678V38.302Z" fill="#726683"/>
<path d="M41.2678 36.4009H39.3672V38.3015H41.2678V36.4009Z" fill="#726683"/>
<path d="M41.2678 30.6582H39.3672V32.5588H41.2678V30.6582Z" fill="#726683"/>
<path d="M41.2678 28.7161H39.3672V30.6167H41.2678V28.7161Z" fill="#726683"/>
<path d="M41.2678 26.8154H39.3672V28.7161H41.2678V26.8154Z" fill="#726683"/>
<path d="M41.2678 24.9148H39.3672V26.8154H41.2678V24.9148Z" fill="#726683"/>
<path d="M41.2678 22.9729H39.3672V24.8735H41.2678V22.9729Z" fill="#726683"/>
<path d="M41.2678 21.0728H39.3672V22.9734H41.2678V21.0728Z" fill="#726683"/>
<path d="M41.2678 19.1721H39.3672V21.0727H41.2678V19.1721Z" fill="#726683"/>
<path d="M41.2678 17.2297H39.3672V19.1303H41.2678V17.2297Z" fill="#726683"/>
<path d="M41.2678 15.3291H39.3672V17.2297H41.2678V15.3291Z" fill="#726683"/>
<path d="M41.2678 13.4285H39.3672V15.3291H41.2678V13.4285Z" fill="#726683"/>
<path d="M39.3674 49.7883H37.4668V51.689H39.3674V49.7883Z" fill="#726683"/>
<path d="M39.3674 47.8877H37.4668V49.7883H39.3674V47.8877Z" fill="#726683"/>
<path d="M39.3674 45.9871H37.4668V47.8877H39.3674V45.9871Z" fill="#726683"/>
<path d="M39.3674 44.0447H37.4668V45.9453H39.3674V44.0447Z" fill="#726683"/>
<path d="M39.3674 42.1445H37.4668V44.0452H39.3674V42.1445Z" fill="#726683"/>
<path d="M39.3674 40.2439H37.4668V42.1445H39.3674V40.2439Z" fill="#726683"/>
<path d="M39.3674 38.302H37.4668V40.2026H39.3674V38.302Z" fill="#726683"/>
<path d="M39.3674 36.4009H37.4668V38.3015H39.3674V36.4009Z" fill="#726683"/>
<path d="M39.3674 32.5591H37.4668V34.4597H39.3674V32.5591Z" fill="#726683"/>
<path d="M39.3674 30.6582H37.4668V32.5588H39.3674V30.6582Z" fill="#726683"/>
<path d="M39.3674 28.7161H37.4668V30.6167H39.3674V28.7161Z" fill="#726683"/>
<path d="M39.3674 26.8154H37.4668V28.7161H39.3674V26.8154Z" fill="#726683"/>
<path d="M39.3674 24.9148H37.4668V26.8154H39.3674V24.9148Z" fill="#726683"/>
<path d="M39.3674 19.1721H37.4668V21.0727H39.3674V19.1721Z" fill="#726683"/>
<path d="M39.3674 17.2297H37.4668V19.1303H39.3674V17.2297Z" fill="#726683"/>
<path d="M39.3674 15.3291H37.4668V17.2297H39.3674V15.3291Z" fill="#726683"/>
<path d="M39.3674 13.4285H37.4668V15.3291H39.3674V13.4285Z" fill="#726683"/>
<path d="M39.3674 11.4868H37.4668V13.3874H39.3674V11.4868Z" fill="#726683"/>
<path d="M37.4665 47.8877H35.5659V49.7883H37.4665V47.8877Z" fill="#726683"/>
<path d="M37.4665 45.9871H35.5659V47.8877H37.4665V45.9871Z" fill="#726683"/>
<path d="M37.4665 44.0447H35.5659V45.9453H37.4665V44.0447Z" fill="#726683"/>
<path d="M37.4665 42.1445H35.5659V44.0452H37.4665V42.1445Z" fill="#726683"/>
<path d="M37.4665 40.2439H35.5659V42.1445H37.4665V40.2439Z" fill="#726683"/>
<path d="M37.4665 38.302H35.5659V40.2026H37.4665V38.302Z" fill="#726683"/>
<path d="M37.4665 36.4009H35.5659V38.3015H37.4665V36.4009Z" fill="#726683"/>
<path d="M37.4665 32.5591H35.5659V34.4597H37.4665V32.5591Z" fill="#726683"/>
<path d="M37.4665 30.6582H35.5659V32.5588H37.4665V30.6582Z" fill="#726683"/>
<path d="M37.4665 28.7161H35.5659V30.6167H37.4665V28.7161Z" fill="#726683"/>
<path d="M37.4665 26.8154H35.5659V28.7161H37.4665V26.8154Z" fill="#726683"/>
<path d="M37.4665 17.2297H35.5659V19.1303H37.4665V17.2297Z" fill="#726683"/>
<path d="M37.4665 15.3291H35.5659V17.2297H37.4665V15.3291Z" fill="#726683"/>
<path d="M37.4665 13.4285H35.5659V15.3291H37.4665V13.4285Z" fill="#726683"/>
<path d="M37.4665 11.4868H35.5659V13.3874H37.4665V11.4868Z" fill="#726683"/>
<path d="M35.5246 45.9871H33.624V47.8877H35.5246V45.9871Z" fill="#726683"/>
<path d="M35.5246 44.0447H33.624V45.9453H35.5246V44.0447Z" fill="#726683"/>
<path d="M35.5246 42.1445H33.624V44.0452H35.5246V42.1445Z" fill="#726683"/>
<path d="M35.5246 40.2439H33.624V42.1445H35.5246V40.2439Z" fill="#726683"/>
<path d="M35.5246 38.302H33.624V40.2026H35.5246V38.302Z" fill="#726683"/>
<path d="M35.5246 36.4009H33.624V38.3015H35.5246V36.4009Z" fill="#726683"/>
<path d="M35.5246 32.5591H33.624V34.4597H35.5246V32.5591Z" fill="#726683"/>
<path d="M35.5246 30.6582H33.624V32.5588H35.5246V30.6582Z" fill="#726683"/>
<path d="M35.5246 28.7161H33.624V30.6167H35.5246V28.7161Z" fill="#726683"/>
<path d="M35.5246 26.8154H33.624V28.7161H35.5246V26.8154Z" fill="#726683"/>
<path d="M35.5246 17.2297H33.624V19.1303H35.5246V17.2297Z" fill="#726683"/>
<path d="M35.5246 15.3291H33.624V17.2297H35.5246V15.3291Z" fill="#726683"/>
<path d="M35.5246 13.4285H33.624V15.3291H35.5246V13.4285Z" fill="#726683"/>
<path d="M35.5246 11.4868H33.624V13.3874H35.5246V11.4868Z" fill="#726683"/>
<path d="M33.624 47.8877H31.7234V49.7883H33.624V47.8877Z" fill="#726683"/>
<path d="M33.624 45.9871H31.7234V47.8877H33.624V45.9871Z" fill="#726683"/>
<path d="M33.624 44.0447H31.7234V45.9453H33.624V44.0447Z" fill="#726683"/>
<path d="M33.624 42.1445H31.7234V44.0452H33.624V42.1445Z" fill="#726683"/>
<path d="M33.624 40.2439H31.7234V42.1445H33.624V40.2439Z" fill="#726683"/>
<path d="M33.624 38.302H31.7234V40.2026H33.624V38.302Z" fill="#726683"/>
<path d="M33.624 36.4009H31.7234V38.3015H33.624V36.4009Z" fill="#726683"/>
<path d="M33.624 32.5591H31.7234V34.4597H33.624V32.5591Z" fill="#726683"/>
<path d="M33.624 30.6582H31.7234V32.5588H33.624V30.6582Z" fill="#726683"/>
<path d="M33.624 28.7161H31.7234V30.6167H33.624V28.7161Z" fill="#726683"/>
<path d="M33.624 26.8154H31.7234V28.7161H33.624V26.8154Z" fill="#726683"/>
<path d="M33.624 24.9148H31.7234V26.8154H33.624V24.9148Z" fill="#726683"/>
<path d="M33.624 19.1721H31.7234V21.0727H33.624V19.1721Z" fill="#726683"/>
<path d="M33.624 17.2297H31.7234V19.1303H33.624V17.2297Z" fill="#726683"/>
<path d="M33.624 15.3291H31.7234V17.2297H33.624V15.3291Z" fill="#726683"/>
<path d="M33.624 13.4285H31.7234V15.3291H33.624V13.4285Z" fill="#726683"/>
<path d="M33.624 11.4868H31.7234V13.3874H33.624V11.4868Z" fill="#726683"/>
<path d="M31.6821 49.7883H29.7815V51.689H31.6821V49.7883Z" fill="#726683"/>
<path d="M31.6821 47.8877H29.7815V49.7883H31.6821V47.8877Z" fill="#726683"/>
<path d="M31.6821 45.9871H29.7815V47.8877H31.6821V45.9871Z" fill="#726683"/>
<path d="M31.6821 44.0447H29.7815V45.9453H31.6821V44.0447Z" fill="#726683"/>
<path d="M31.6821 42.1445H29.7815V44.0452H31.6821V42.1445Z" fill="#726683"/>
<path d="M31.6821 40.2439H29.7815V42.1445H31.6821V40.2439Z" fill="#726683"/>
<path d="M31.6821 38.302H29.7815V40.2026H31.6821V38.302Z" fill="#726683"/>
<path d="M31.6821 36.4009H29.7815V38.3015H31.6821V36.4009Z" fill="#726683"/>
<path d="M31.6821 30.6582H29.7815V32.5588H31.6821V30.6582Z" fill="#726683"/>
<path d="M31.6821 28.7161H29.7815V30.6167H31.6821V28.7161Z" fill="#726683"/>
<path d="M31.6821 26.8154H29.7815V28.7161H31.6821V26.8154Z" fill="#726683"/>
<path d="M31.6821 24.9148H29.7815V26.8154H31.6821V24.9148Z" fill="#726683"/>
<path d="M31.6821 22.9729H29.7815V24.8735H31.6821V22.9729Z" fill="#726683"/>
<path d="M31.6821 21.0728H29.7815V22.9734H31.6821V21.0728Z" fill="#726683"/>
<path d="M31.6821 19.1721H29.7815V21.0727H31.6821V19.1721Z" fill="#726683"/>
<path d="M31.6821 17.2297H29.7815V19.1303H31.6821V17.2297Z" fill="#726683"/>
<path d="M31.6821 15.3291H29.7815V17.2297H31.6821V15.3291Z" fill="#726683"/>
<path d="M31.6821 13.4285H29.7815V15.3291H31.6821V13.4285Z" fill="#726683"/>
<path d="M29.7815 53.6309H27.8809V55.5315H29.7815V53.6309Z" fill="#726683"/>
<path d="M29.7815 51.7302H27.8809V53.6308H29.7815V51.7302Z" fill="#726683"/>
<path d="M29.7815 49.7883H27.8809V51.689H29.7815V49.7883Z" fill="#726683"/>
<path d="M29.7815 47.8877H27.8809V49.7883H29.7815V47.8877Z" fill="#726683"/>
<path d="M29.7815 45.9871H27.8809V47.8877H29.7815V45.9871Z" fill="#726683"/>
<path d="M29.7815 44.0447H27.8809V45.9453H29.7815V44.0447Z" fill="#726683"/>
<path d="M29.7815 40.2439H27.8809V42.1445H29.7815V40.2439Z" fill="#726683"/>
<path d="M29.7815 38.302H27.8809V40.2026H29.7815V38.302Z" fill="#726683"/>
<path d="M29.7815 36.4009H27.8809V38.3015H29.7815V36.4009Z" fill="#726683"/>
<path d="M29.7815 34.5007H27.8809V36.4014H29.7815V34.5007Z" fill="#726683"/>
<path d="M29.7815 30.6582H27.8809V32.5588H29.7815V30.6582Z" fill="#726683"/>
<path d="M29.7815 28.7161H27.8809V30.6167H29.7815V28.7161Z" fill="#726683"/>
<path d="M29.7815 26.8154H27.8809V28.7161H29.7815V26.8154Z" fill="#726683"/>
<path d="M29.7815 24.9148H27.8809V26.8154H29.7815V24.9148Z" fill="#726683"/>
<path d="M29.7815 22.9729H27.8809V24.8735H29.7815V22.9729Z" fill="#726683"/>
<path d="M29.7815 21.0728H27.8809V22.9734H29.7815V21.0728Z" fill="#726683"/>
<path d="M29.7815 19.1721H27.8809V21.0727H29.7815V19.1721Z" fill="#726683"/>
<path d="M29.7815 17.2297H27.8809V19.1303H29.7815V17.2297Z" fill="#726683"/>
<path d="M29.7815 15.3291H27.8809V17.2297H29.7815V15.3291Z" fill="#726683"/>
<path d="M29.7815 13.4285H27.8809V15.3291H29.7815V13.4285Z" fill="#726683"/>
<path d="M27.8808 53.6309H25.9802V55.5315H27.8808V53.6309Z" fill="#726683"/>
<path d="M27.8808 51.7302H25.9802V53.6308H27.8808V51.7302Z" fill="#726683"/>
<path d="M27.8808 49.7883H25.9802V51.689H27.8808V49.7883Z" fill="#726683"/>
<path d="M27.8808 47.8877H25.9802V49.7883H27.8808V47.8877Z" fill="#726683"/>
<path d="M27.8808 45.9871H25.9802V47.8877H27.8808V45.9871Z" fill="#726683"/>
<path d="M27.8808 40.2439H25.9802V42.1445H27.8808V40.2439Z" fill="#726683"/>
<path d="M27.8808 38.302H25.9802V40.2026H27.8808V38.302Z" fill="#726683"/>
<path d="M27.8808 36.4009H25.9802V38.3015H27.8808V36.4009Z" fill="#726683"/>
<path d="M27.8808 34.5007H25.9802V36.4014H27.8808V34.5007Z" fill="#726683"/>
<path d="M27.8808 28.7161H25.9802V30.6167H27.8808V28.7161Z" fill="#726683"/>
<path d="M27.8808 26.8154H25.9802V28.7161H27.8808V26.8154Z" fill="#726683"/>
<path d="M27.8808 24.9148H25.9802V26.8154H27.8808V24.9148Z" fill="#726683"/>
<path d="M27.8808 22.9729H25.9802V24.8735H27.8808V22.9729Z" fill="#726683"/>
<path d="M27.8808 21.0728H25.9802V22.9734H27.8808V21.0728Z" fill="#726683"/>
<path d="M27.8808 19.1721H25.9802V21.0727H27.8808V19.1721Z" fill="#726683"/>
<path d="M27.8808 17.2297H25.9802V19.1303H27.8808V17.2297Z" fill="#726683"/>
<path d="M27.8808 15.3291H25.9802V17.2297H27.8808V15.3291Z" fill="#726683"/>
<path d="M25.939 51.7302H24.0383V53.6308H25.939V51.7302Z" fill="#726683"/>
<path d="M25.939 49.7883H24.0383V51.689H25.939V49.7883Z" fill="#726683"/>
<path d="M25.939 47.8877H24.0383V49.7883H25.939V47.8877Z" fill="#726683"/>
<path d="M25.939 38.302H24.0383V40.2026H25.939V38.302Z" fill="#726683"/>
<path d="M25.939 36.4009H24.0383V38.3015H25.939V36.4009Z" fill="#726683"/>
<path d="M25.939 34.5007H24.0383V36.4014H25.939V34.5007Z" fill="#726683"/>
<path d="M25.939 24.9148H24.0383V26.8154H25.939V24.9148Z" fill="#726683"/>
<path d="M25.939 22.9729H24.0383V24.8735H25.939V22.9729Z" fill="#726683"/>
<path d="M25.939 21.0728H24.0383V22.9734H25.939V21.0728Z" fill="#726683"/>
<path d="M25.939 19.1721H24.0383V21.0727H25.939V19.1721Z" fill="#726683"/>
<path d="M25.939 17.2297H24.0383V19.1303H25.939V17.2297Z" fill="#726683"/>
<path d="M24.0383 38.302H22.1377V40.2026H24.0383V38.302Z" fill="#726683"/>
<path d="M24.0383 36.4009H22.1377V38.3015H24.0383V36.4009Z" fill="#726683"/>
</svg>
