<svg width="69" height="67" viewBox="0 0 69 67" fill="none" xmlns="http://www.w3.org/2000/svg">
<path d="M68.9226 38.7432H65.3252V42.2366H68.9226V38.7432Z" fill="#3B3149"/>
<path d="M68.9226 35.249H65.3252V38.7429H68.9226V35.249Z" fill="#3B3149"/>
<path d="M68.9226 31.7556H65.3252V35.249H68.9226V31.7556Z" fill="#3B3149"/>
<path d="M68.9226 28.2625H65.3252V31.7559H68.9226V28.2625Z" fill="#3B3149"/>
<path d="M68.9226 24.7683H65.3252V28.2622H68.9226V24.7683Z" fill="#3B3149"/>
<path d="M65.325 45.7297H61.7275V49.2236H65.325V45.7297Z" fill="#3B3149"/>
<path d="M65.325 42.2363H61.7275V45.7297H65.325V42.2363Z" fill="#3B3149"/>
<path d="M65.325 38.7432H61.7275V42.2366H65.325V38.7432Z" fill="#3B3149"/>
<path d="M65.325 35.249H61.7275V38.7429H65.325V35.249Z" fill="#3B3149"/>
<path d="M65.325 31.7556H61.7275V35.249H65.325V31.7556Z" fill="#3B3149"/>
<path d="M65.325 28.2625H61.7275V31.7559H65.325V28.2625Z" fill="#3B3149"/>
<path d="M65.325 24.7683H61.7275V28.2622H65.325V24.7683Z" fill="#3B3149"/>
<path d="M65.325 21.2749H61.7275V24.7683H65.325V21.2749Z" fill="#3B3149"/>
<path d="M65.325 17.7817H61.7275V21.2752H65.325V17.7817Z" fill="#3B3149"/>
<path d="M61.7278 49.2239H58.1304V52.7173H61.7278V49.2239Z" fill="#3B3149"/>
<path d="M61.7278 45.7297H58.1304V49.2236H61.7278V45.7297Z" fill="#3B3149"/>
<path d="M61.7278 42.2363H58.1304V45.7297H61.7278V42.2363Z" fill="#3B3149"/>
<path d="M61.7278 38.7432H58.1304V42.2366H61.7278V38.7432Z" fill="#3B3149"/>
<path d="M61.7278 35.249H58.1304V38.7429H61.7278V35.249Z" fill="#3B3149"/>
<path d="M61.7278 31.7556H58.1304V35.249H61.7278V31.7556Z" fill="#3B3149"/>
<path d="M61.7278 28.2625H58.1304V31.7559H61.7278V28.2625Z" fill="#3B3149"/>
<path d="M61.7278 24.7683H58.1304V28.2622H61.7278V24.7683Z" fill="#3B3149"/>
<path d="M61.7278 21.2749H58.1304V24.7683H61.7278V21.2749Z" fill="#3B3149"/>
<path d="M61.7278 17.7817H58.1304V21.2752H61.7278V17.7817Z" fill="#3B3149"/>
<path d="M61.7278 14.2881H58.1304V17.7815H61.7278V14.2881Z" fill="#3B3149"/>
<path d="M58.1302 52.7173H54.5332V56.2107H58.1302V52.7173Z" fill="#3B3149"/>
<path d="M58.1302 49.2239H54.5332V52.7173H58.1302V49.2239Z" fill="#3B3149"/>
<path d="M58.1302 45.7297H54.5332V49.2236H58.1302V45.7297Z" fill="#3B3149"/>
<path d="M58.1302 42.2363H54.5332V45.7297H58.1302V42.2363Z" fill="#3B3149"/>
<path d="M58.1302 38.7432H54.5332V42.2366H58.1302V38.7432Z" fill="#3B3149"/>
<path d="M58.1302 35.249H54.5332V38.7429H58.1302V35.249Z" fill="#3B3149"/>
<path d="M58.1302 31.7556H54.5332V35.249H58.1302V31.7556Z" fill="#3B3149"/>
<path d="M58.1302 28.2625H54.5332V31.7559H58.1302V28.2625Z" fill="#3B3149"/>
<path d="M58.1302 24.7683H54.5332V28.2622H58.1302V24.7683Z" fill="#3B3149"/>
<path d="M58.1302 21.2749H54.5332V24.7683H58.1302V21.2749Z" fill="#3B3149"/>
<path d="M58.1302 17.7817H54.5332V21.2752H58.1302V17.7817Z" fill="#3B3149"/>
<path d="M58.1302 14.2881H54.5332V17.7815H58.1302V14.2881Z" fill="#3B3149"/>
<path d="M58.1302 10.7942H54.5332V14.2881H58.1302V10.7942Z" fill="#3B3149"/>
<path d="M54.533 56.2104H50.9355V59.7043H54.533V56.2104Z" fill="#3B3149"/>
<path d="M54.533 52.7173H50.9355V56.2107H54.533V52.7173Z" fill="#3B3149"/>
<path d="M54.533 49.2239H50.9355V52.7173H54.533V49.2239Z" fill="#3B3149"/>
<path d="M54.533 45.7297H50.9355V49.2236H54.533V45.7297Z" fill="#3B3149"/>
<path d="M54.533 42.2363H50.9355V45.7297H54.533V42.2363Z" fill="#3B3149"/>
<path d="M54.533 38.7432H50.9355V42.2366H54.533V38.7432Z" fill="#3B3149"/>
<path d="M54.533 35.249H50.9355V38.7429H54.533V35.249Z" fill="#3B3149"/>
<path d="M54.533 31.7556H50.9355V35.249H54.533V31.7556Z" fill="#3B3149"/>
<path d="M54.533 28.2625H50.9355V31.7559H54.533V28.2625Z" fill="#3B3149"/>
<path d="M54.533 24.7683H50.9355V28.2622H54.533V24.7683Z" fill="#3B3149"/>
<path d="M54.533 21.2749H50.9355V24.7683H54.533V21.2749Z" fill="#3B3149"/>
<path d="M54.533 17.7817H50.9355V21.2752H54.533V17.7817Z" fill="#3B3149"/>
<path d="M54.533 14.2881H50.9355V17.7815H54.533V14.2881Z" fill="#3B3149"/>
<path d="M54.533 10.7942H50.9355V14.2881H54.533V10.7942Z" fill="#3B3149"/>
<path d="M54.533 7.30103H50.9355V10.7944H54.533V7.30103Z" fill="#3B3149"/>
<path d="M50.9358 59.7041H47.3384V63.1975H50.9358V59.7041Z" fill="#3B3149"/>
<path d="M50.9358 56.2104H47.3384V59.7043H50.9358V56.2104Z" fill="#3B3149"/>
<path d="M50.9358 52.7173H47.3384V56.2107H50.9358V52.7173Z" fill="#3B3149"/>
<path d="M50.9358 49.2239H47.3384V52.7173H50.9358V49.2239Z" fill="#3B3149"/>
<path d="M50.9358 45.7297H47.3384V49.2236H50.9358V45.7297Z" fill="#3B3149"/>
<path d="M50.9358 42.2363H47.3384V45.7297H50.9358V42.2363Z" fill="#3B3149"/>
<path d="M50.9358 38.7432H47.3384V42.2366H50.9358V38.7432Z" fill="#3B3149"/>
<path d="M50.9358 35.249H47.3384V38.7429H50.9358V35.249Z" fill="#3B3149"/>
<path d="M50.9358 31.7556H47.3384V35.249H50.9358V31.7556Z" fill="#3B3149"/>
<path d="M50.9358 28.2625H47.3384V31.7559H50.9358V28.2625Z" fill="#3B3149"/>
<path d="M50.9358 24.7683H47.3384V28.2622H50.9358V24.7683Z" fill="#3B3149"/>
<path d="M50.9358 21.2749H47.3384V24.7683H50.9358V21.2749Z" fill="#3B3149"/>
<path d="M50.9358 17.7817H47.3384V21.2752H50.9358V17.7817Z" fill="#3B3149"/>
<path d="M50.9358 14.2881H47.3384V17.7815H50.9358V14.2881Z" fill="#3B3149"/>
<path d="M50.9358 10.7942H47.3384V14.2881H50.9358V10.7942Z" fill="#3B3149"/>
<path d="M50.9358 7.30103H47.3384V10.7944H50.9358V7.30103Z" fill="#3B3149"/>
<path d="M50.9358 3.80762H47.3384V7.30104H50.9358V3.80762Z" fill="#3B3149"/>
<path d="M47.3381 59.7041H43.7407V63.1975H47.3381V59.7041Z" fill="#3B3149"/>
<path d="M47.3381 56.2104H43.7407V59.7043H47.3381V56.2104Z" fill="#3B3149"/>
<path d="M47.3381 52.7173H43.7407V56.2107H47.3381V52.7173Z" fill="#3B3149"/>
<path d="M47.3381 49.2239H43.7407V52.7173H47.3381V49.2239Z" fill="#3B3149"/>
<path d="M47.3381 45.7297H43.7407V49.2236H47.3381V45.7297Z" fill="#3B3149"/>
<path d="M47.3381 42.2363H43.7407V45.7297H47.3381V42.2363Z" fill="#3B3149"/>
<path d="M47.3381 38.7432H43.7407V42.2366H47.3381V38.7432Z" fill="#3B3149"/>
<path d="M47.3381 35.249H43.7407V38.7429H47.3381V35.249Z" fill="#3B3149"/>
<path d="M47.3381 31.7556H43.7407V35.249H47.3381V31.7556Z" fill="#3B3149"/>
<path d="M47.3381 28.2625H43.7407V31.7559H47.3381V28.2625Z" fill="#3B3149"/>
<path d="M47.3381 24.7683H43.7407V28.2622H47.3381V24.7683Z" fill="#3B3149"/>
<path d="M47.3381 21.2749H43.7407V24.7683H47.3381V21.2749Z" fill="#3B3149"/>
<path d="M47.3381 17.7817H43.7407V21.2752H47.3381V17.7817Z" fill="#3B3149"/>
<path d="M47.3381 14.2881H43.7407V17.7815H47.3381V14.2881Z" fill="#3B3149"/>
<path d="M47.3381 10.7942H43.7407V14.2881H47.3381V10.7942Z" fill="#3B3149"/>
<path d="M47.3381 7.30103H43.7407V10.7944H47.3381V7.30103Z" fill="#3B3149"/>
<path d="M47.3381 3.80762H43.7407V7.30104H47.3381V3.80762Z" fill="#3B3149"/>
<path d="M43.741 63.198H40.144V66.6914H43.741V63.198Z" fill="#3B3149"/>
<path d="M43.741 59.7041H40.144V63.1975H43.741V59.7041Z" fill="#3B3149"/>
<path d="M43.741 56.2104H40.144V59.7043H43.741V56.2104Z" fill="#3B3149"/>
<path d="M43.741 52.7173H40.144V56.2107H43.741V52.7173Z" fill="#3B3149"/>
<path d="M43.741 49.2239H40.144V52.7173H43.741V49.2239Z" fill="#3B3149"/>
<path d="M43.741 45.7297H40.144V49.2236H43.741V45.7297Z" fill="#3B3149"/>
<path d="M43.741 42.2363H40.144V45.7297H43.741V42.2363Z" fill="#3B3149"/>
<path d="M43.741 38.7432H40.144V42.2366H43.741V38.7432Z" fill="#3B3149"/>
<path d="M43.741 35.249H40.144V38.7429H43.741V35.249Z" fill="#3B3149"/>
<path d="M43.741 31.7556H40.144V35.249H43.741V31.7556Z" fill="#3B3149"/>
<path d="M43.741 28.2625H40.144V31.7559H43.741V28.2625Z" fill="#3B3149"/>
<path d="M43.741 24.7683H40.144V28.2622H43.741V24.7683Z" fill="#3B3149"/>
<path d="M43.741 21.2749H40.144V24.7683H43.741V21.2749Z" fill="#3B3149"/>
<path d="M43.741 17.7817H40.144V21.2752H43.741V17.7817Z" fill="#3B3149"/>
<path d="M43.741 14.2881H40.144V17.7815H43.741V14.2881Z" fill="#3B3149"/>
<path d="M43.741 10.7942H40.144V14.2881H43.741V10.7942Z" fill="#3B3149"/>
<path d="M43.741 7.30103H40.144V10.7944H43.741V7.30103Z" fill="#3B3149"/>
<path d="M43.741 3.80762H40.144V7.30104H43.741V3.80762Z" fill="#3B3149"/>
<path d="M43.741 0.313477H40.144V3.80735H43.741V0.313477Z" fill="#3B3149"/>
<path d="M40.1438 63.198H36.5464V66.6914H40.1438V63.198Z" fill="#3B3149"/>
<path d="M40.1438 59.7041H36.5464V63.1975H40.1438V59.7041Z" fill="#3B3149"/>
<path d="M40.1438 56.2104H36.5464V59.7043H40.1438V56.2104Z" fill="#3B3149"/>
<path d="M40.1438 52.7173H36.5464V56.2107H40.1438V52.7173Z" fill="#3B3149"/>
<path d="M40.1438 49.2239H36.5464V52.7173H40.1438V49.2239Z" fill="#3B3149"/>
<path d="M40.1438 45.7297H36.5464V49.2236H40.1438V45.7297Z" fill="#3B3149"/>
<path d="M40.1438 42.2363H36.5464V45.7297H40.1438V42.2363Z" fill="#3B3149"/>
<path d="M40.1438 38.7432H36.5464V42.2366H40.1438V38.7432Z" fill="#3B3149"/>
<path d="M40.1438 35.249H36.5464V38.7429H40.1438V35.249Z" fill="#3B3149"/>
<path d="M40.1438 31.7556H36.5464V35.249H40.1438V31.7556Z" fill="#3B3149"/>
<path d="M40.1438 28.2625H36.5464V31.7559H40.1438V28.2625Z" fill="#3B3149"/>
<path d="M40.1438 24.7683H36.5464V28.2622H40.1438V24.7683Z" fill="#3B3149"/>
<path d="M40.1438 21.2749H36.5464V24.7683H40.1438V21.2749Z" fill="#3B3149"/>
<path d="M40.1438 17.7817H36.5464V21.2752H40.1438V17.7817Z" fill="#3B3149"/>
<path d="M40.1438 14.2881H36.5464V17.7815H40.1438V14.2881Z" fill="#3B3149"/>
<path d="M40.1438 10.7942H36.5464V14.2881H40.1438V10.7942Z" fill="#3B3149"/>
<path d="M40.1438 7.30103H36.5464V10.7944H40.1438V7.30103Z" fill="#3B3149"/>
<path d="M40.1438 3.80762H36.5464V7.30104H40.1438V3.80762Z" fill="#3B3149"/>
<path d="M40.1438 0.313477H36.5464V3.80735H40.1438V0.313477Z" fill="#3B3149"/>
<path d="M36.5466 63.198H32.9492V66.6914H36.5466V63.198Z" fill="#3B3149"/>
<path d="M36.5466 59.7041H32.9492V63.1975H36.5466V59.7041Z" fill="#3B3149"/>
<path d="M36.5466 56.2104H32.9492V59.7043H36.5466V56.2104Z" fill="#3B3149"/>
<path d="M36.5466 52.7173H32.9492V56.2107H36.5466V52.7173Z" fill="#3B3149"/>
<path d="M36.5466 49.2239H32.9492V52.7173H36.5466V49.2239Z" fill="#3B3149"/>
<path d="M36.5466 45.7297H32.9492V49.2236H36.5466V45.7297Z" fill="#3B3149"/>
<path d="M36.5466 42.2363H32.9492V45.7297H36.5466V42.2363Z" fill="#3B3149"/>
<path d="M36.5466 38.7432H32.9492V42.2366H36.5466V38.7432Z" fill="#3B3149"/>
<path d="M36.5466 35.249H32.9492V38.7429H36.5466V35.249Z" fill="#3B3149"/>
<path d="M36.5466 31.7556H32.9492V35.249H36.5466V31.7556Z" fill="#3B3149"/>
<path d="M36.5466 28.2625H32.9492V31.7559H36.5466V28.2625Z" fill="#3B3149"/>
<path d="M36.5466 24.7683H32.9492V28.2622H36.5466V24.7683Z" fill="#3B3149"/>
<path d="M36.5466 21.2749H32.9492V24.7683H36.5466V21.2749Z" fill="#3B3149"/>
<path d="M36.5466 17.7817H32.9492V21.2752H36.5466V17.7817Z" fill="#3B3149"/>
<path d="M36.5466 14.2881H32.9492V17.7815H36.5466V14.2881Z" fill="#3B3149"/>
<path d="M36.5466 10.7942H32.9492V14.2881H36.5466V10.7942Z" fill="#3B3149"/>
<path d="M36.5466 7.30103H32.9492V10.7944H36.5466V7.30103Z" fill="#3B3149"/>
<path d="M36.5466 3.80762H32.9492V7.30104H36.5466V3.80762Z" fill="#3B3149"/>
<path d="M36.5466 0.313477H32.9492V3.80735H36.5466V0.313477Z" fill="#3B3149"/>
<path d="M32.949 63.198H29.3516V66.6914H32.949V63.198Z" fill="#3B3149"/>
<path d="M32.949 59.7041H29.3516V63.1975H32.949V59.7041Z" fill="#3B3149"/>
<path d="M32.949 56.2104H29.3516V59.7043H32.949V56.2104Z" fill="#3B3149"/>
<path d="M32.949 52.7173H29.3516V56.2107H32.949V52.7173Z" fill="#3B3149"/>
<path d="M32.949 49.2239H29.3516V52.7173H32.949V49.2239Z" fill="#3B3149"/>
<path d="M32.949 45.7297H29.3516V49.2236H32.949V45.7297Z" fill="#3B3149"/>
<path d="M32.949 42.2363H29.3516V45.7297H32.949V42.2363Z" fill="#3B3149"/>
<path d="M32.949 38.7432H29.3516V42.2366H32.949V38.7432Z" fill="#3B3149"/>
<path d="M32.949 35.249H29.3516V38.7429H32.949V35.249Z" fill="#3B3149"/>
<path d="M32.949 31.7556H29.3516V35.249H32.949V31.7556Z" fill="#3B3149"/>
<path d="M32.949 28.2625H29.3516V31.7559H32.949V28.2625Z" fill="#3B3149"/>
<path d="M32.949 24.7683H29.3516V28.2622H32.949V24.7683Z" fill="#3B3149"/>
<path d="M32.949 21.2749H29.3516V24.7683H32.949V21.2749Z" fill="#3B3149"/>
<path d="M32.949 17.7817H29.3516V21.2752H32.949V17.7817Z" fill="#3B3149"/>
<path d="M32.949 14.2881H29.3516V17.7815H32.949V14.2881Z" fill="#3B3149"/>
<path d="M32.949 10.7942H29.3516V14.2881H32.949V10.7942Z" fill="#3B3149"/>
<path d="M32.949 7.30103H29.3516V10.7944H32.949V7.30103Z" fill="#3B3149"/>
<path d="M32.949 3.80762H29.3516V7.30104H32.949V3.80762Z" fill="#3B3149"/>
<path d="M32.949 0.313477H29.3516V3.80735H32.949V0.313477Z" fill="#3B3149"/>
<path d="M29.3518 63.198H25.7544V66.6914H29.3518V63.198Z" fill="#3B3149"/>
<path d="M29.3518 59.7041H25.7544V63.1975H29.3518V59.7041Z" fill="#3B3149"/>
<path d="M29.3518 56.2104H25.7544V59.7043H29.3518V56.2104Z" fill="#3B3149"/>
<path d="M29.3518 52.7173H25.7544V56.2107H29.3518V52.7173Z" fill="#3B3149"/>
<path d="M29.3518 49.2239H25.7544V52.7173H29.3518V49.2239Z" fill="#3B3149"/>
<path d="M29.3518 45.7297H25.7544V49.2236H29.3518V45.7297Z" fill="#3B3149"/>
<path d="M29.3518 42.2363H25.7544V45.7297H29.3518V42.2363Z" fill="#3B3149"/>
<path d="M29.3518 38.7432H25.7544V42.2366H29.3518V38.7432Z" fill="#3B3149"/>
<path d="M29.3518 35.249H25.7544V38.7429H29.3518V35.249Z" fill="#3B3149"/>
<path d="M29.3518 31.7556H25.7544V35.249H29.3518V31.7556Z" fill="#3B3149"/>
<path d="M29.3518 28.2625H25.7544V31.7559H29.3518V28.2625Z" fill="#3B3149"/>
<path d="M29.3518 24.7683H25.7544V28.2622H29.3518V24.7683Z" fill="#3B3149"/>
<path d="M29.3518 21.2749H25.7544V24.7683H29.3518V21.2749Z" fill="#3B3149"/>
<path d="M29.3518 17.7817H25.7544V21.2752H29.3518V17.7817Z" fill="#3B3149"/>
<path d="M29.3518 14.2881H25.7544V17.7815H29.3518V14.2881Z" fill="#3B3149"/>
<path d="M29.3518 10.7942H25.7544V14.2881H29.3518V10.7942Z" fill="#3B3149"/>
<path d="M29.3518 7.30103H25.7544V10.7944H29.3518V7.30103Z" fill="#3B3149"/>
<path d="M29.3518 3.80762H25.7544V7.30104H29.3518V3.80762Z" fill="#3B3149"/>
<path d="M29.3518 0.313477H25.7544V3.80735H29.3518V0.313477Z" fill="#3B3149"/>
<path d="M25.7542 59.7041H22.1572V63.1975H25.7542V59.7041Z" fill="#3B3149"/>
<path d="M25.7542 56.2104H22.1572V59.7043H25.7542V56.2104Z" fill="#3B3149"/>
<path d="M25.7542 52.7173H22.1572V56.2107H25.7542V52.7173Z" fill="#3B3149"/>
<path d="M25.7542 49.2239H22.1572V52.7173H25.7542V49.2239Z" fill="#3B3149"/>
<path d="M25.7542 45.7297H22.1572V49.2236H25.7542V45.7297Z" fill="#3B3149"/>
<path d="M25.7542 42.2363H22.1572V45.7297H25.7542V42.2363Z" fill="#3B3149"/>
<path d="M25.7542 38.7432H22.1572V42.2366H25.7542V38.7432Z" fill="#3B3149"/>
<path d="M25.7542 35.249H22.1572V38.7429H25.7542V35.249Z" fill="#3B3149"/>
<path d="M25.7542 31.7556H22.1572V35.249H25.7542V31.7556Z" fill="#3B3149"/>
<path d="M25.7542 28.2625H22.1572V31.7559H25.7542V28.2625Z" fill="#3B3149"/>
<path d="M25.7542 24.7683H22.1572V28.2622H25.7542V24.7683Z" fill="#3B3149"/>
<path d="M25.7542 21.2749H22.1572V24.7683H25.7542V21.2749Z" fill="#3B3149"/>
<path d="M25.7542 17.7817H22.1572V21.2752H25.7542V17.7817Z" fill="#3B3149"/>
<path d="M25.7542 14.2881H22.1572V17.7815H25.7542V14.2881Z" fill="#3B3149"/>
<path d="M25.7542 10.7942H22.1572V14.2881H25.7542V10.7942Z" fill="#3B3149"/>
<path d="M25.7542 7.30103H22.1572V10.7944H25.7542V7.30103Z" fill="#3B3149"/>
<path d="M25.7542 3.80762H22.1572V7.30104H25.7542V3.80762Z" fill="#3B3149"/>
<path d="M22.1575 59.7041H18.5601V63.1975H22.1575V59.7041Z" fill="#3B3149"/>
<path d="M22.1575 56.2104H18.5601V59.7043H22.1575V56.2104Z" fill="#3B3149"/>
<path d="M22.1575 52.7173H18.5601V56.2107H22.1575V52.7173Z" fill="#3B3149"/>
<path d="M22.1575 49.2239H18.5601V52.7173H22.1575V49.2239Z" fill="#3B3149"/>
<path d="M22.1575 45.7297H18.5601V49.2236H22.1575V45.7297Z" fill="#3B3149"/>
<path d="M22.1575 42.2363H18.5601V45.7297H22.1575V42.2363Z" fill="#3B3149"/>
<path d="M22.1575 38.7432H18.5601V42.2366H22.1575V38.7432Z" fill="#3B3149"/>
<path d="M22.1575 35.249H18.5601V38.7429H22.1575V35.249Z" fill="#3B3149"/>
<path d="M22.1575 31.7556H18.5601V35.249H22.1575V31.7556Z" fill="#3B3149"/>
<path d="M22.1575 28.2625H18.5601V31.7559H22.1575V28.2625Z" fill="#3B3149"/>
<path d="M22.1575 24.7683H18.5601V28.2622H22.1575V24.7683Z" fill="#3B3149"/>
<path d="M22.1575 21.2749H18.5601V24.7683H22.1575V21.2749Z" fill="#3B3149"/>
<path d="M22.1575 17.7817H18.5601V21.2752H22.1575V17.7817Z" fill="#3B3149"/>
<path d="M22.1575 14.2881H18.5601V17.7815H22.1575V14.2881Z" fill="#3B3149"/>
<path d="M22.1575 10.7942H18.5601V14.2881H22.1575V10.7942Z" fill="#3B3149"/>
<path d="M22.1575 7.30103H18.5601V10.7944H22.1575V7.30103Z" fill="#3B3149"/>
<path d="M22.1575 3.80762H18.5601V7.30104H22.1575V3.80762Z" fill="#3B3149"/>
<path d="M18.5598 56.2104H14.9624V59.7043H18.5598V56.2104Z" fill="#3B3149"/>
<path d="M18.5598 52.7173H14.9624V56.2107H18.5598V52.7173Z" fill="#3B3149"/>
<path d="M18.5598 49.2239H14.9624V52.7173H18.5598V49.2239Z" fill="#3B3149"/>
<path d="M18.5598 45.7297H14.9624V49.2236H18.5598V45.7297Z" fill="#3B3149"/>
<path d="M18.5598 42.2363H14.9624V45.7297H18.5598V42.2363Z" fill="#3B3149"/>
<path d="M18.5598 38.7432H14.9624V42.2366H18.5598V38.7432Z" fill="#3B3149"/>
<path d="M18.5598 35.249H14.9624V38.7429H18.5598V35.249Z" fill="#3B3149"/>
<path d="M18.5598 31.7556H14.9624V35.249H18.5598V31.7556Z" fill="#3B3149"/>
<path d="M18.5598 28.2625H14.9624V31.7559H18.5598V28.2625Z" fill="#3B3149"/>
<path d="M18.5598 24.7683H14.9624V28.2622H18.5598V24.7683Z" fill="#3B3149"/>
<path d="M18.5598 21.2749H14.9624V24.7683H18.5598V21.2749Z" fill="#3B3149"/>
<path d="M18.5598 17.7817H14.9624V21.2752H18.5598V17.7817Z" fill="#3B3149"/>
<path d="M18.5598 14.2881H14.9624V17.7815H18.5598V14.2881Z" fill="#3B3149"/>
<path d="M18.5598 10.7942H14.9624V14.2881H18.5598V10.7942Z" fill="#3B3149"/>
<path d="M18.5598 7.30103H14.9624V10.7944H18.5598V7.30103Z" fill="#3B3149"/>
<path d="M14.9627 52.7173H11.3652V56.2107H14.9627V52.7173Z" fill="#3B3149"/>
<path d="M14.9627 49.2239H11.3652V52.7173H14.9627V49.2239Z" fill="#3B3149"/>
<path d="M14.9627 45.7297H11.3652V49.2236H14.9627V45.7297Z" fill="#3B3149"/>
<path d="M14.9627 42.2363H11.3652V45.7297H14.9627V42.2363Z" fill="#3B3149"/>
<path d="M14.9627 38.7432H11.3652V42.2366H14.9627V38.7432Z" fill="#3B3149"/>
<path d="M14.9627 35.249H11.3652V38.7429H14.9627V35.249Z" fill="#3B3149"/>
<path d="M14.9627 31.7556H11.3652V35.249H14.9627V31.7556Z" fill="#3B3149"/>
<path d="M14.9627 28.2625H11.3652V31.7559H14.9627V28.2625Z" fill="#3B3149"/>
<path d="M14.9627 24.7683H11.3652V28.2622H14.9627V24.7683Z" fill="#3B3149"/>
<path d="M14.9627 21.2749H11.3652V24.7683H14.9627V21.2749Z" fill="#3B3149"/>
<path d="M14.9627 17.7817H11.3652V21.2752H14.9627V17.7817Z" fill="#3B3149"/>
<path d="M14.9627 14.2881H11.3652V17.7815H14.9627V14.2881Z" fill="#3B3149"/>
<path d="M14.9627 10.7942H11.3652V14.2881H14.9627V10.7942Z" fill="#3B3149"/>
<path d="M11.365 49.2239H7.76758V52.7173H11.365V49.2239Z" fill="#3B3149"/>
<path d="M11.365 45.7297H7.76758V49.2236H11.365V45.7297Z" fill="#3B3149"/>
<path d="M11.365 42.2363H7.76758V45.7297H11.365V42.2363Z" fill="#3B3149"/>
<path d="M11.365 38.7432H7.76758V42.2366H11.365V38.7432Z" fill="#3B3149"/>
<path d="M11.365 35.249H7.76758V38.7429H11.365V35.249Z" fill="#3B3149"/>
<path d="M11.365 31.7556H7.76758V35.249H11.365V31.7556Z" fill="#3B3149"/>
<path d="M11.365 28.2625H7.76758V31.7559H11.365V28.2625Z" fill="#3B3149"/>
<path d="M11.365 24.7683H7.76758V28.2622H11.365V24.7683Z" fill="#3B3149"/>
<path d="M11.365 21.2749H7.76758V24.7683H11.365V21.2749Z" fill="#3B3149"/>
<path d="M11.365 17.7817H7.76758V21.2752H11.365V17.7817Z" fill="#3B3149"/>
<path d="M11.365 14.2881H7.76758V17.7815H11.365V14.2881Z" fill="#3B3149"/>
<path d="M7.76738 45.7297H4.17041V49.2236H7.76738V45.7297Z" fill="#3B3149"/>
<path d="M7.76738 42.2363H4.17041V45.7297H7.76738V42.2363Z" fill="#3B3149"/>
<path d="M7.76738 38.7432H4.17041V42.2366H7.76738V38.7432Z" fill="#3B3149"/>
<path d="M7.76738 35.249H4.17041V38.7429H7.76738V35.249Z" fill="#3B3149"/>
<path d="M7.76738 31.7556H4.17041V35.249H7.76738V31.7556Z" fill="#3B3149"/>
<path d="M7.76738 28.2625H4.17041V31.7559H7.76738V28.2625Z" fill="#3B3149"/>
<path d="M7.76738 24.7683H4.17041V28.2622H7.76738V24.7683Z" fill="#3B3149"/>
<path d="M7.76738 21.2749H4.17041V24.7683H7.76738V21.2749Z" fill="#3B3149"/>
<path d="M7.76738 17.7817H4.17041V21.2752H7.76738V17.7817Z" fill="#3B3149"/>
<path d="M4.17067 38.7432H0.573242V42.2366H4.17067V38.7432Z" fill="#3B3149"/>
<path d="M4.17067 35.249H0.573242V38.7429H4.17067V35.249Z" fill="#3B3149"/>
<path d="M4.17067 31.7556H0.573242V35.249H4.17067V31.7556Z" fill="#3B3149"/>
<path d="M4.17067 28.2625H0.573242V31.7559H4.17067V28.2625Z" fill="#3B3149"/>
<path d="M4.17067 24.7683H0.573242V28.2622H4.17067V24.7683Z" fill="#3B3149"/>
<path d="M49.8249 32.4268H47.9243V34.3274H49.8249V32.4268Z" fill="#726683"/>
<path d="M49.8249 30.4849H47.9243V32.3855H49.8249V30.4849Z" fill="#726683"/>
<path d="M49.8249 28.5842H47.9243V30.4849H49.8249V28.5842Z" fill="#726683"/>
<path d="M49.8249 26.6836H47.9243V28.5842H49.8249V26.6836Z" fill="#726683"/>
<path d="M49.8249 24.7419H47.9243V26.6426H49.8249V24.7419Z" fill="#726683"/>
<path d="M49.8249 22.8416H47.9243V24.7422H49.8249V22.8416Z" fill="#726683"/>
<path d="M49.8249 20.9409H47.9243V22.8415H49.8249V20.9409Z" fill="#726683"/>
<path d="M47.9246 43.9133H46.0239V45.814H47.9246V43.9133Z" fill="#726683"/>
<path d="M47.9246 42.0127H46.0239V43.9133H47.9246V42.0127Z" fill="#726683"/>
<path d="M47.9246 40.071H46.0239V41.9717H47.9246V40.071Z" fill="#726683"/>
<path d="M47.9246 38.1704H46.0239V40.071H47.9246V38.1704Z" fill="#726683"/>
<path d="M47.9246 36.2695H46.0239V38.1702H47.9246V36.2695Z" fill="#726683"/>
<path d="M47.9246 34.3274H46.0239V36.228H47.9246V34.3274Z" fill="#726683"/>
<path d="M47.9246 32.4268H46.0239V34.3274H47.9246V32.4268Z" fill="#726683"/>
<path d="M47.9246 30.4849H46.0239V32.3855H47.9246V30.4849Z" fill="#726683"/>
<path d="M47.9246 28.5842H46.0239V30.4849H47.9246V28.5842Z" fill="#726683"/>
<path d="M47.9246 26.6836H46.0239V28.5842H47.9246V26.6836Z" fill="#726683"/>
<path d="M47.9246 24.7419H46.0239V26.6426H47.9246V24.7419Z" fill="#726683"/>
<path d="M47.9246 22.8416H46.0239V24.7422H47.9246V22.8416Z" fill="#726683"/>
<path d="M47.9246 20.9409H46.0239V22.8415H47.9246V20.9409Z" fill="#726683"/>
<path d="M45.9827 47.7559H44.082V49.6565H45.9827V47.7559Z" fill="#726683"/>
<path d="M45.9827 45.8142H44.082V47.7148H45.9827V45.8142Z" fill="#726683"/>
<path d="M45.9827 43.9133H44.082V45.814H45.9827V43.9133Z" fill="#726683"/>
<path d="M45.9827 42.0127H44.082V43.9133H45.9827V42.0127Z" fill="#726683"/>
<path d="M45.9827 40.071H44.082V41.9717H45.9827V40.071Z" fill="#726683"/>
<path d="M45.9827 38.1704H44.082V40.071H45.9827V38.1704Z" fill="#726683"/>
<path d="M45.9827 36.2695H44.082V38.1702H45.9827V36.2695Z" fill="#726683"/>
<path d="M45.9827 34.3274H44.082V36.228H45.9827V34.3274Z" fill="#726683"/>
<path d="M45.9827 32.4268H44.082V34.3274H45.9827V32.4268Z" fill="#726683"/>
<path d="M45.9827 30.4849H44.082V32.3855H45.9827V30.4849Z" fill="#726683"/>
<path d="M45.9827 28.5842H44.082V30.4849H45.9827V28.5842Z" fill="#726683"/>
<path d="M45.9827 26.6836H44.082V28.5842H45.9827V26.6836Z" fill="#726683"/>
<path d="M45.9827 24.7419H44.082V26.6426H45.9827V24.7419Z" fill="#726683"/>
<path d="M45.9827 22.8416H44.082V24.7422H45.9827V22.8416Z" fill="#726683"/>
<path d="M45.9827 20.9409H44.082V22.8415H45.9827V20.9409Z" fill="#726683"/>
<path d="M44.0818 49.6565H42.1812V51.5571H44.0818V49.6565Z" fill="#726683"/>
<path d="M44.0818 47.7559H42.1812V49.6565H44.0818V47.7559Z" fill="#726683"/>
<path d="M44.0818 45.8142H42.1812V47.7148H44.0818V45.8142Z" fill="#726683"/>
<path d="M44.0818 43.9133H42.1812V45.814H44.0818V43.9133Z" fill="#726683"/>
<path d="M44.0818 42.0127H42.1812V43.9133H44.0818V42.0127Z" fill="#726683"/>
<path d="M44.0818 40.071H42.1812V41.9717H44.0818V40.071Z" fill="#726683"/>
<path d="M44.0818 38.1704H42.1812V40.071H44.0818V38.1704Z" fill="#726683"/>
<path d="M44.0818 36.2695H42.1812V38.1702H44.0818V36.2695Z" fill="#726683"/>
<path d="M44.0818 34.3274H42.1812V36.228H44.0818V34.3274Z" fill="#726683"/>
<path d="M44.0818 32.4268H42.1812V34.3274H44.0818V32.4268Z" fill="#726683"/>
<path d="M44.0818 30.4849H42.1812V32.3855H44.0818V30.4849Z" fill="#726683"/>
<path d="M44.0818 28.5842H42.1812V30.4849H44.0818V28.5842Z" fill="#726683"/>
<path d="M44.0818 26.6836H42.1812V28.5842H44.0818V26.6836Z" fill="#726683"/>
<path d="M44.0818 24.7419H42.1812V26.6426H44.0818V24.7419Z" fill="#726683"/>
<path d="M44.0818 22.8416H42.1812V24.7422H44.0818V22.8416Z" fill="#726683"/>
<path d="M44.0818 20.9409H42.1812V22.8415H44.0818V20.9409Z" fill="#726683"/>
<path d="M42.1814 49.6565H40.2808V51.5571H42.1814V49.6565Z" fill="#726683"/>
<path d="M42.1814 47.7559H40.2808V49.6565H42.1814V47.7559Z" fill="#726683"/>
<path d="M42.1814 45.8142H40.2808V47.7148H42.1814V45.8142Z" fill="#726683"/>
<path d="M42.1814 43.9133H40.2808V45.814H42.1814V43.9133Z" fill="#726683"/>
<path d="M42.1814 42.0127H40.2808V43.9133H42.1814V42.0127Z" fill="#726683"/>
<path d="M42.1814 40.071H40.2808V41.9717H42.1814V40.071Z" fill="#726683"/>
<path d="M42.1814 38.1704H40.2808V40.071H42.1814V38.1704Z" fill="#726683"/>
<path d="M42.1814 36.2695H40.2808V38.1702H42.1814V36.2695Z" fill="#726683"/>
<path d="M42.1814 34.3274H40.2808V36.228H42.1814V34.3274Z" fill="#726683"/>
<path d="M42.1814 32.4268H40.2808V34.3274H42.1814V32.4268Z" fill="#726683"/>
<path d="M42.1814 30.4849H40.2808V32.3855H42.1814V30.4849Z" fill="#726683"/>
<path d="M42.1814 28.5842H40.2808V30.4849H42.1814V28.5842Z" fill="#726683"/>
<path d="M42.1814 26.6836H40.2808V28.5842H42.1814V26.6836Z" fill="#726683"/>
<path d="M42.1814 24.7419H40.2808V26.6426H42.1814V24.7419Z" fill="#726683"/>
<path d="M42.1814 22.8416H40.2808V24.7422H42.1814V22.8416Z" fill="#726683"/>
<path d="M40.2395 47.7559H38.3389V49.6565H40.2395V47.7559Z" fill="#726683"/>
<path d="M40.2395 45.8142H38.3389V47.7148H40.2395V45.8142Z" fill="#726683"/>
<path d="M40.2395 43.9133H38.3389V45.814H40.2395V43.9133Z" fill="#726683"/>
<path d="M40.2395 42.0127H38.3389V43.9133H40.2395V42.0127Z" fill="#726683"/>
<path d="M40.2395 40.071H38.3389V41.9717H40.2395V40.071Z" fill="#726683"/>
<path d="M40.2395 38.1704H38.3389V40.071H40.2395V38.1704Z" fill="#726683"/>
<path d="M40.2395 36.2695H38.3389V38.1702H40.2395V36.2695Z" fill="#726683"/>
<path d="M40.2395 34.3274H38.3389V36.228H40.2395V34.3274Z" fill="#726683"/>
<path d="M40.2395 32.4268H38.3389V34.3274H40.2395V32.4268Z" fill="#726683"/>
<path d="M40.2395 30.4849H38.3389V32.3855H40.2395V30.4849Z" fill="#726683"/>
<path d="M40.2395 26.6836H38.3389V28.5842H40.2395V26.6836Z" fill="#726683"/>
<path d="M40.2395 24.7419H38.3389V26.6426H40.2395V24.7419Z" fill="#726683"/>
<path d="M40.2395 22.8416H38.3389V24.7422H40.2395V22.8416Z" fill="#726683"/>
<path d="M38.3386 45.8142H36.438V47.7148H38.3386V45.8142Z" fill="#726683"/>
<path d="M38.3386 43.9133H36.438V45.814H38.3386V43.9133Z" fill="#726683"/>
<path d="M38.3386 42.0127H36.438V43.9133H38.3386V42.0127Z" fill="#726683"/>
<path d="M38.3386 40.071H36.438V41.9717H38.3386V40.071Z" fill="#726683"/>
<path d="M38.3386 38.1704H36.438V40.071H38.3386V38.1704Z" fill="#726683"/>
<path d="M38.3386 36.2695H36.438V38.1702H38.3386V36.2695Z" fill="#726683"/>
<path d="M38.3386 34.3274H36.438V36.228H38.3386V34.3274Z" fill="#726683"/>
<path d="M38.3386 32.4268H36.438V34.3274H38.3386V32.4268Z" fill="#726683"/>
<path d="M38.3386 28.5842H36.438V30.4849H38.3386V28.5842Z" fill="#726683"/>
<path d="M38.3386 26.6836H36.438V28.5842H38.3386V26.6836Z" fill="#726683"/>
<path d="M38.3386 24.7419H36.438V26.6426H38.3386V24.7419Z" fill="#726683"/>
<path d="M38.3386 22.8416H36.438V24.7422H38.3386V22.8416Z" fill="#726683"/>
<path d="M36.3967 45.8142H34.4961V47.7148H36.3967V45.8142Z" fill="#726683"/>
<path d="M36.3967 43.9133H34.4961V45.814H36.3967V43.9133Z" fill="#726683"/>
<path d="M36.3967 42.0127H34.4961V43.9133H36.3967V42.0127Z" fill="#726683"/>
<path d="M36.3967 40.071H34.4961V41.9717H36.3967V40.071Z" fill="#726683"/>
<path d="M36.3967 38.1704H34.4961V40.071H36.3967V38.1704Z" fill="#726683"/>
<path d="M36.3967 36.2695H34.4961V38.1702H36.3967V36.2695Z" fill="#726683"/>
<path d="M36.3967 34.3274H34.4961V36.228H36.3967V34.3274Z" fill="#726683"/>
<path d="M36.3967 30.4849H34.4961V32.3855H36.3967V30.4849Z" fill="#726683"/>
<path d="M36.3967 28.5842H34.4961V30.4849H36.3967V28.5842Z" fill="#726683"/>
<path d="M36.3967 26.6836H34.4961V28.5842H36.3967V26.6836Z" fill="#726683"/>
<path d="M36.3967 24.7419H34.4961V26.6426H36.3967V24.7419Z" fill="#726683"/>
<path d="M34.4963 43.9133H32.5957V45.814H34.4963V43.9133Z" fill="#726683"/>
<path d="M34.4963 42.0127H32.5957V43.9133H34.4963V42.0127Z" fill="#726683"/>
<path d="M34.4963 40.071H32.5957V41.9717H34.4963V40.071Z" fill="#726683"/>
<path d="M34.4963 38.1704H32.5957V40.071H34.4963V38.1704Z" fill="#726683"/>
<path d="M34.4963 36.2695H32.5957V38.1702H34.4963V36.2695Z" fill="#726683"/>
<path d="M34.4963 32.4268H32.5957V34.3274H34.4963V32.4268Z" fill="#726683"/>
<path d="M34.4963 30.4849H32.5957V32.3855H34.4963V30.4849Z" fill="#726683"/>
<path d="M34.4963 28.5842H32.5957V30.4849H34.4963V28.5842Z" fill="#726683"/>
<path d="M34.4963 26.6836H32.5957V28.5842H34.4963V26.6836Z" fill="#726683"/>
<path d="M34.4963 24.7419H32.5957V26.6426H34.4963V24.7419Z" fill="#726683"/>
<path d="M32.5954 42.0127H30.6948V43.9133H32.5954V42.0127Z" fill="#726683"/>
<path d="M32.5954 40.071H30.6948V41.9717H32.5954V40.071Z" fill="#726683"/>
<path d="M32.5954 38.1704H30.6948V40.071H32.5954V38.1704Z" fill="#726683"/>
<path d="M32.5954 32.4268H30.6948V34.3274H32.5954V32.4268Z" fill="#726683"/>
<path d="M32.5954 30.4849H30.6948V32.3855H32.5954V30.4849Z" fill="#726683"/>
<path d="M32.5954 28.5842H30.6948V30.4849H32.5954V28.5842Z" fill="#726683"/>
<path d="M32.5954 26.6836H30.6948V28.5842H32.5954V26.6836Z" fill="#726683"/>
<path d="M30.6536 42.0127H28.7529V43.9133H30.6536V42.0127Z" fill="#726683"/>
<path d="M30.6536 40.071H28.7529V41.9717H30.6536V40.071Z" fill="#726683"/>
<path d="M30.6536 34.3274H28.7529V36.228H30.6536V34.3274Z" fill="#726683"/>
<path d="M30.6536 32.4268H28.7529V34.3274H30.6536V32.4268Z" fill="#726683"/>
<path d="M30.6536 30.4849H28.7529V32.3855H30.6536V30.4849Z" fill="#726683"/>
<path d="M30.6536 28.5842H28.7529V30.4849H30.6536V28.5842Z" fill="#726683"/>
<path d="M30.6536 26.6836H28.7529V28.5842H30.6536V26.6836Z" fill="#726683"/>
<path d="M28.7532 34.3274H26.8525V36.228H28.7532V34.3274Z" fill="#726683"/>
<path d="M28.7532 32.4268H26.8525V34.3274H28.7532V32.4268Z" fill="#726683"/>
<path d="M28.7532 30.4849H26.8525V32.3855H28.7532V30.4849Z" fill="#726683"/>
<path d="M28.7532 28.5842H26.8525V30.4849H28.7532V28.5842Z" fill="#726683"/>
<path d="M28.7532 26.6836H26.8525V28.5842H28.7532V26.6836Z" fill="#726683"/>
<path d="M26.8523 36.2695H24.9517V38.1702H26.8523V36.2695Z" fill="#726683"/>
<path d="M26.8523 34.3274H24.9517V36.228H26.8523V34.3274Z" fill="#726683"/>
<path d="M26.8523 32.4268H24.9517V34.3274H26.8523V32.4268Z" fill="#726683"/>
<path d="M26.8523 30.4849H24.9517V32.3855H26.8523V30.4849Z" fill="#726683"/>
<path d="M26.8523 28.5842H24.9517V30.4849H26.8523V28.5842Z" fill="#726683"/>
<path d="M24.9104 38.1704H23.0098V40.071H24.9104V38.1704Z" fill="#726683"/>
<path d="M24.9104 36.2695H23.0098V38.1702H24.9104V36.2695Z" fill="#726683"/>
<path d="M24.9104 34.3274H23.0098V36.228H24.9104V34.3274Z" fill="#726683"/>
<path d="M24.9104 32.4268H23.0098V34.3274H24.9104V32.4268Z" fill="#726683"/>
<path d="M24.9104 30.4849H23.0098V32.3855H24.9104V30.4849Z" fill="#726683"/>
<path d="M24.9104 28.5842H23.0098V30.4849H24.9104V28.5842Z" fill="#726683"/>
<path d="M23.01 38.1704H21.1094V40.071H23.01V38.1704Z" fill="#726683"/>
<path d="M23.01 36.2695H21.1094V38.1702H23.01V36.2695Z" fill="#726683"/>
<path d="M23.01 34.3274H21.1094V36.228H23.01V34.3274Z" fill="#726683"/>
<path d="M23.01 32.4268H21.1094V34.3274H23.01V32.4268Z" fill="#726683"/>
<path d="M23.01 30.4849H21.1094V32.3855H23.01V30.4849Z" fill="#726683"/>
<path d="M21.1091 38.1704H19.2085V40.071H21.1091V38.1704Z" fill="#726683"/>
<path d="M21.1091 36.2695H19.2085V38.1702H21.1091V36.2695Z" fill="#726683"/>
<path d="M21.1091 34.3274H19.2085V36.228H21.1091V34.3274Z" fill="#726683"/>
<path d="M21.1091 32.4268H19.2085V34.3274H21.1091V32.4268Z" fill="#726683"/>
<path d="M21.1091 30.4849H19.2085V32.3855H21.1091V30.4849Z" fill="#726683"/>
<path d="M19.1672 36.2695H17.2666V38.1702H19.1672V36.2695Z" fill="#726683"/>
<path d="M19.1672 34.3274H17.2666V36.228H19.1672V34.3274Z" fill="#726683"/>
<path d="M19.1672 32.4268H17.2666V34.3274H19.1672V32.4268Z" fill="#726683"/>
<path d="M17.2668 36.2695H15.3662V38.1702H17.2668V36.2695Z" fill="#726683"/>
<path d="M17.2668 34.3274H15.3662V36.228H17.2668V34.3274Z" fill="#726683"/>
<path d="M17.2668 32.4268H15.3662V34.3274H17.2668V32.4268Z" fill="#726683"/>
<path d="M15.366 36.2695H13.4653V38.1702H15.366V36.2695Z" fill="#726683"/>
<path d="M15.366 34.3274H13.4653V36.228H15.366V34.3274Z" fill="#726683"/>
</svg>
