<svg width="69" height="67" viewBox="0 0 69 67" fill="none" xmlns="http://www.w3.org/2000/svg">
<path d="M68.4612 38.9692H64.8638V42.4627H68.4612V38.9692Z" fill="#3B3149"/>
<path d="M68.4612 35.4751H64.8638V38.969H68.4612V35.4751Z" fill="#3B3149"/>
<path d="M68.4612 31.9817H64.8638V35.4751H68.4612V31.9817Z" fill="#3B3149"/>
<path d="M68.4612 28.4883H64.8638V31.9817H68.4612V28.4883Z" fill="#3B3149"/>
<path d="M68.4612 24.9944H64.8638V28.4883H68.4612V24.9944Z" fill="#3B3149"/>
<path d="M64.8635 45.9558H61.2661V49.4497H64.8635V45.9558Z" fill="#3B3149"/>
<path d="M64.8635 42.4624H61.2661V45.9558H64.8635V42.4624Z" fill="#3B3149"/>
<path d="M64.8635 38.9692H61.2661V42.4627H64.8635V38.9692Z" fill="#3B3149"/>
<path d="M64.8635 35.4751H61.2661V38.969H64.8635V35.4751Z" fill="#3B3149"/>
<path d="M64.8635 31.9817H61.2661V35.4751H64.8635V31.9817Z" fill="#3B3149"/>
<path d="M64.8635 28.4883H61.2661V31.9817H64.8635V28.4883Z" fill="#3B3149"/>
<path d="M64.8635 24.9944H61.2661V28.4883H64.8635V24.9944Z" fill="#3B3149"/>
<path d="M64.8635 21.501H61.2661V24.9944H64.8635V21.501Z" fill="#3B3149"/>
<path d="M64.8635 18.0076H61.2661V21.501H64.8635V18.0076Z" fill="#3B3149"/>
<path d="M61.2664 49.45H57.6689V52.9434H61.2664V49.45Z" fill="#3B3149"/>
<path d="M61.2664 45.9558H57.6689V49.4497H61.2664V45.9558Z" fill="#3B3149"/>
<path d="M61.2664 42.4624H57.6689V45.9558H61.2664V42.4624Z" fill="#3B3149"/>
<path d="M61.2664 38.9692H57.6689V42.4627H61.2664V38.9692Z" fill="#3B3149"/>
<path d="M61.2664 35.4751H57.6689V38.969H61.2664V35.4751Z" fill="#3B3149"/>
<path d="M61.2664 31.9817H57.6689V35.4751H61.2664V31.9817Z" fill="#3B3149"/>
<path d="M61.2664 28.4883H57.6689V31.9817H61.2664V28.4883Z" fill="#3B3149"/>
<path d="M61.2664 24.9944H57.6689V28.4883H61.2664V24.9944Z" fill="#3B3149"/>
<path d="M61.2664 21.501H57.6689V24.9944H61.2664V21.501Z" fill="#3B3149"/>
<path d="M61.2664 18.0076H57.6689V21.501H61.2664V18.0076Z" fill="#3B3149"/>
<path d="M61.2664 14.5139H57.6689V18.0073H61.2664V14.5139Z" fill="#3B3149"/>
<path d="M57.6687 52.9431H54.0718V56.4365H57.6687V52.9431Z" fill="#3B3149"/>
<path d="M57.6687 49.45H54.0718V52.9434H57.6687V49.45Z" fill="#3B3149"/>
<path d="M57.6687 45.9558H54.0718V49.4497H57.6687V45.9558Z" fill="#3B3149"/>
<path d="M57.6687 42.4624H54.0718V45.9558H57.6687V42.4624Z" fill="#3B3149"/>
<path d="M57.6687 38.9692H54.0718V42.4627H57.6687V38.9692Z" fill="#3B3149"/>
<path d="M57.6687 35.4751H54.0718V38.969H57.6687V35.4751Z" fill="#3B3149"/>
<path d="M57.6687 31.9817H54.0718V35.4751H57.6687V31.9817Z" fill="#3B3149"/>
<path d="M57.6687 28.4883H54.0718V31.9817H57.6687V28.4883Z" fill="#3B3149"/>
<path d="M57.6687 24.9944H54.0718V28.4883H57.6687V24.9944Z" fill="#3B3149"/>
<path d="M57.6687 21.501H54.0718V24.9944H57.6687V21.501Z" fill="#3B3149"/>
<path d="M57.6687 18.0076H54.0718V21.501H57.6687V18.0076Z" fill="#3B3149"/>
<path d="M57.6687 14.5139H54.0718V18.0073H57.6687V14.5139Z" fill="#3B3149"/>
<path d="M57.6687 11.0203H54.0718V14.5141H57.6687V11.0203Z" fill="#3B3149"/>
<path d="M54.072 56.4365H50.4746V59.9304H54.072V56.4365Z" fill="#3B3149"/>
<path d="M54.072 52.9431H50.4746V56.4365H54.072V52.9431Z" fill="#3B3149"/>
<path d="M54.072 49.45H50.4746V52.9434H54.072V49.45Z" fill="#3B3149"/>
<path d="M54.072 45.9558H50.4746V49.4497H54.072V45.9558Z" fill="#3B3149"/>
<path d="M54.072 42.4624H50.4746V45.9558H54.072V42.4624Z" fill="#3B3149"/>
<path d="M54.072 38.9692H50.4746V42.4627H54.072V38.9692Z" fill="#3B3149"/>
<path d="M54.072 35.4751H50.4746V38.969H54.072V35.4751Z" fill="#3B3149"/>
<path d="M54.072 31.9817H50.4746V35.4751H54.072V31.9817Z" fill="#3B3149"/>
<path d="M54.072 28.4883H50.4746V31.9817H54.072V28.4883Z" fill="#3B3149"/>
<path d="M54.072 24.9944H50.4746V28.4883H54.072V24.9944Z" fill="#3B3149"/>
<path d="M54.072 21.501H50.4746V24.9944H54.072V21.501Z" fill="#3B3149"/>
<path d="M54.072 18.0076H50.4746V21.501H54.072V18.0076Z" fill="#3B3149"/>
<path d="M54.072 14.5139H50.4746V18.0073H54.072V14.5139Z" fill="#3B3149"/>
<path d="M54.072 11.0203H50.4746V14.5141H54.072V11.0203Z" fill="#3B3149"/>
<path d="M54.072 7.52686H50.4746V11.0203H54.072V7.52686Z" fill="#3B3149"/>
<path d="M50.4744 59.9302H46.877V63.4236H50.4744V59.9302Z" fill="#3B3149"/>
<path d="M50.4744 56.4365H46.877V59.9304H50.4744V56.4365Z" fill="#3B3149"/>
<path d="M50.4744 52.9431H46.877V56.4365H50.4744V52.9431Z" fill="#3B3149"/>
<path d="M50.4744 49.45H46.877V52.9434H50.4744V49.45Z" fill="#3B3149"/>
<path d="M50.4744 45.9558H46.877V49.4497H50.4744V45.9558Z" fill="#3B3149"/>
<path d="M50.4744 42.4624H46.877V45.9558H50.4744V42.4624Z" fill="#3B3149"/>
<path d="M50.4744 38.9692H46.877V42.4627H50.4744V38.9692Z" fill="#3B3149"/>
<path d="M50.4744 35.4751H46.877V38.969H50.4744V35.4751Z" fill="#3B3149"/>
<path d="M50.4744 31.9817H46.877V35.4751H50.4744V31.9817Z" fill="#3B3149"/>
<path d="M50.4744 28.4883H46.877V31.9817H50.4744V28.4883Z" fill="#3B3149"/>
<path d="M50.4744 24.9944H46.877V28.4883H50.4744V24.9944Z" fill="#3B3149"/>
<path d="M50.4744 21.501H46.877V24.9944H50.4744V21.501Z" fill="#3B3149"/>
<path d="M50.4744 18.0076H46.877V21.501H50.4744V18.0076Z" fill="#3B3149"/>
<path d="M50.4744 14.5139H46.877V18.0073H50.4744V14.5139Z" fill="#3B3149"/>
<path d="M50.4744 11.0203H46.877V14.5141H50.4744V11.0203Z" fill="#3B3149"/>
<path d="M50.4744 7.52686H46.877V11.0203H50.4744V7.52686Z" fill="#3B3149"/>
<path d="M50.4744 4.03369H46.877V7.52711H50.4744V4.03369Z" fill="#3B3149"/>
<path d="M46.8767 59.9302H43.2793V63.4236H46.8767V59.9302Z" fill="#3B3149"/>
<path d="M46.8767 56.4365H43.2793V59.9304H46.8767V56.4365Z" fill="#3B3149"/>
<path d="M46.8767 52.9431H43.2793V56.4365H46.8767V52.9431Z" fill="#3B3149"/>
<path d="M46.8767 49.45H43.2793V52.9434H46.8767V49.45Z" fill="#3B3149"/>
<path d="M46.8767 45.9558H43.2793V49.4497H46.8767V45.9558Z" fill="#3B3149"/>
<path d="M46.8767 42.4624H43.2793V45.9558H46.8767V42.4624Z" fill="#3B3149"/>
<path d="M46.8767 38.9692H43.2793V42.4627H46.8767V38.9692Z" fill="#3B3149"/>
<path d="M46.8767 35.4751H43.2793V38.969H46.8767V35.4751Z" fill="#3B3149"/>
<path d="M46.8767 31.9817H43.2793V35.4751H46.8767V31.9817Z" fill="#3B3149"/>
<path d="M46.8767 28.4883H43.2793V31.9817H46.8767V28.4883Z" fill="#3B3149"/>
<path d="M46.8767 24.9944H43.2793V28.4883H46.8767V24.9944Z" fill="#3B3149"/>
<path d="M46.8767 21.501H43.2793V24.9944H46.8767V21.501Z" fill="#3B3149"/>
<path d="M46.8767 18.0076H43.2793V21.501H46.8767V18.0076Z" fill="#3B3149"/>
<path d="M46.8767 14.5139H43.2793V18.0073H46.8767V14.5139Z" fill="#3B3149"/>
<path d="M46.8767 11.0203H43.2793V14.5141H46.8767V11.0203Z" fill="#3B3149"/>
<path d="M46.8767 7.52686H43.2793V11.0203H46.8767V7.52686Z" fill="#3B3149"/>
<path d="M46.8767 4.03369H43.2793V7.52711H46.8767V4.03369Z" fill="#3B3149"/>
<path d="M43.2796 63.4238H39.6826V66.9173H43.2796V63.4238Z" fill="#3B3149"/>
<path d="M43.2796 59.9302H39.6826V63.4236H43.2796V59.9302Z" fill="#3B3149"/>
<path d="M43.2796 56.4365H39.6826V59.9304H43.2796V56.4365Z" fill="#3B3149"/>
<path d="M43.2796 52.9431H39.6826V56.4365H43.2796V52.9431Z" fill="#3B3149"/>
<path d="M43.2796 49.45H39.6826V52.9434H43.2796V49.45Z" fill="#3B3149"/>
<path d="M43.2796 45.9558H39.6826V49.4497H43.2796V45.9558Z" fill="#3B3149"/>
<path d="M43.2796 42.4624H39.6826V45.9558H43.2796V42.4624Z" fill="#3B3149"/>
<path d="M43.2796 38.9692H39.6826V42.4627H43.2796V38.9692Z" fill="#3B3149"/>
<path d="M43.2796 35.4751H39.6826V38.969H43.2796V35.4751Z" fill="#3B3149"/>
<path d="M43.2796 31.9817H39.6826V35.4751H43.2796V31.9817Z" fill="#3B3149"/>
<path d="M43.2796 28.4883H39.6826V31.9817H43.2796V28.4883Z" fill="#3B3149"/>
<path d="M43.2796 24.9944H39.6826V28.4883H43.2796V24.9944Z" fill="#3B3149"/>
<path d="M43.2796 21.501H39.6826V24.9944H43.2796V21.501Z" fill="#3B3149"/>
<path d="M43.2796 18.0076H39.6826V21.501H43.2796V18.0076Z" fill="#3B3149"/>
<path d="M43.2796 14.5139H39.6826V18.0073H43.2796V14.5139Z" fill="#3B3149"/>
<path d="M43.2796 11.0203H39.6826V14.5141H43.2796V11.0203Z" fill="#3B3149"/>
<path d="M43.2796 7.52686H39.6826V11.0203H43.2796V7.52686Z" fill="#3B3149"/>
<path d="M43.2796 4.03369H39.6826V7.52711H43.2796V4.03369Z" fill="#3B3149"/>
<path d="M43.2796 0.539551H39.6826V4.03343H43.2796V0.539551Z" fill="#3B3149"/>
<path d="M39.6824 63.4238H36.085V66.9173H39.6824V63.4238Z" fill="#3B3149"/>
<path d="M39.6824 59.9302H36.085V63.4236H39.6824V59.9302Z" fill="#3B3149"/>
<path d="M39.6824 56.4365H36.085V59.9304H39.6824V56.4365Z" fill="#3B3149"/>
<path d="M39.6824 52.9431H36.085V56.4365H39.6824V52.9431Z" fill="#3B3149"/>
<path d="M39.6824 49.45H36.085V52.9434H39.6824V49.45Z" fill="#3B3149"/>
<path d="M39.6824 45.9558H36.085V49.4497H39.6824V45.9558Z" fill="#3B3149"/>
<path d="M39.6824 42.4624H36.085V45.9558H39.6824V42.4624Z" fill="#3B3149"/>
<path d="M39.6824 38.9692H36.085V42.4627H39.6824V38.9692Z" fill="#3B3149"/>
<path d="M39.6824 35.4751H36.085V38.969H39.6824V35.4751Z" fill="#3B3149"/>
<path d="M39.6824 31.9817H36.085V35.4751H39.6824V31.9817Z" fill="#3B3149"/>
<path d="M39.6824 28.4883H36.085V31.9817H39.6824V28.4883Z" fill="#3B3149"/>
<path d="M39.6824 24.9944H36.085V28.4883H39.6824V24.9944Z" fill="#3B3149"/>
<path d="M39.6824 21.501H36.085V24.9944H39.6824V21.501Z" fill="#3B3149"/>
<path d="M39.6824 18.0076H36.085V21.501H39.6824V18.0076Z" fill="#3B3149"/>
<path d="M39.6824 14.5139H36.085V18.0073H39.6824V14.5139Z" fill="#3B3149"/>
<path d="M39.6824 11.0203H36.085V14.5141H39.6824V11.0203Z" fill="#3B3149"/>
<path d="M39.6824 7.52686H36.085V11.0203H39.6824V7.52686Z" fill="#3B3149"/>
<path d="M39.6824 4.03369H36.085V7.52711H39.6824V4.03369Z" fill="#3B3149"/>
<path d="M39.6824 0.539551H36.085V4.03343H39.6824V0.539551Z" fill="#3B3149"/>
<path d="M36.0852 63.4238H32.4878V66.9173H36.0852V63.4238Z" fill="#3B3149"/>
<path d="M36.0852 59.9302H32.4878V63.4236H36.0852V59.9302Z" fill="#3B3149"/>
<path d="M36.0852 56.4365H32.4878V59.9304H36.0852V56.4365Z" fill="#3B3149"/>
<path d="M36.0852 52.9431H32.4878V56.4365H36.0852V52.9431Z" fill="#3B3149"/>
<path d="M36.0852 49.45H32.4878V52.9434H36.0852V49.45Z" fill="#3B3149"/>
<path d="M36.0852 45.9558H32.4878V49.4497H36.0852V45.9558Z" fill="#3B3149"/>
<path d="M36.0852 42.4624H32.4878V45.9558H36.0852V42.4624Z" fill="#3B3149"/>
<path d="M36.0852 38.9692H32.4878V42.4627H36.0852V38.9692Z" fill="#3B3149"/>
<path d="M36.0852 35.4751H32.4878V38.969H36.0852V35.4751Z" fill="#3B3149"/>
<path d="M36.0852 31.9817H32.4878V35.4751H36.0852V31.9817Z" fill="#3B3149"/>
<path d="M36.0852 28.4883H32.4878V31.9817H36.0852V28.4883Z" fill="#3B3149"/>
<path d="M36.0852 24.9944H32.4878V28.4883H36.0852V24.9944Z" fill="#3B3149"/>
<path d="M36.0852 21.501H32.4878V24.9944H36.0852V21.501Z" fill="#3B3149"/>
<path d="M36.0852 18.0076H32.4878V21.501H36.0852V18.0076Z" fill="#3B3149"/>
<path d="M36.0852 14.5139H32.4878V18.0073H36.0852V14.5139Z" fill="#3B3149"/>
<path d="M36.0852 11.0203H32.4878V14.5141H36.0852V11.0203Z" fill="#3B3149"/>
<path d="M36.0852 7.52686H32.4878V11.0203H36.0852V7.52686Z" fill="#3B3149"/>
<path d="M36.0852 4.03369H32.4878V7.52711H36.0852V4.03369Z" fill="#3B3149"/>
<path d="M36.0852 0.539551H32.4878V4.03343H36.0852V0.539551Z" fill="#3B3149"/>
<path d="M32.4876 63.4238H28.8901V66.9173H32.4876V63.4238Z" fill="#3B3149"/>
<path d="M32.4876 59.9302H28.8901V63.4236H32.4876V59.9302Z" fill="#3B3149"/>
<path d="M32.4876 56.4365H28.8901V59.9304H32.4876V56.4365Z" fill="#3B3149"/>
<path d="M32.4876 52.9431H28.8901V56.4365H32.4876V52.9431Z" fill="#3B3149"/>
<path d="M32.4876 49.45H28.8901V52.9434H32.4876V49.45Z" fill="#3B3149"/>
<path d="M32.4876 45.9558H28.8901V49.4497H32.4876V45.9558Z" fill="#3B3149"/>
<path d="M32.4876 42.4624H28.8901V45.9558H32.4876V42.4624Z" fill="#3B3149"/>
<path d="M32.4876 38.9692H28.8901V42.4627H32.4876V38.9692Z" fill="#3B3149"/>
<path d="M32.4876 35.4751H28.8901V38.969H32.4876V35.4751Z" fill="#3B3149"/>
<path d="M32.4876 31.9817H28.8901V35.4751H32.4876V31.9817Z" fill="#3B3149"/>
<path d="M32.4876 28.4883H28.8901V31.9817H32.4876V28.4883Z" fill="#3B3149"/>
<path d="M32.4876 24.9944H28.8901V28.4883H32.4876V24.9944Z" fill="#3B3149"/>
<path d="M32.4876 21.501H28.8901V24.9944H32.4876V21.501Z" fill="#3B3149"/>
<path d="M32.4876 18.0076H28.8901V21.501H32.4876V18.0076Z" fill="#3B3149"/>
<path d="M32.4876 14.5139H28.8901V18.0073H32.4876V14.5139Z" fill="#3B3149"/>
<path d="M32.4876 11.0203H28.8901V14.5141H32.4876V11.0203Z" fill="#3B3149"/>
<path d="M32.4876 7.52686H28.8901V11.0203H32.4876V7.52686Z" fill="#3B3149"/>
<path d="M32.4876 4.03369H28.8901V7.52711H32.4876V4.03369Z" fill="#3B3149"/>
<path d="M32.4876 0.539551H28.8901V4.03343H32.4876V0.539551Z" fill="#3B3149"/>
<path d="M28.8904 63.4238H25.293V66.9173H28.8904V63.4238Z" fill="#3B3149"/>
<path d="M28.8904 59.9302H25.293V63.4236H28.8904V59.9302Z" fill="#3B3149"/>
<path d="M28.8904 56.4365H25.293V59.9304H28.8904V56.4365Z" fill="#3B3149"/>
<path d="M28.8904 52.9431H25.293V56.4365H28.8904V52.9431Z" fill="#3B3149"/>
<path d="M28.8904 49.45H25.293V52.9434H28.8904V49.45Z" fill="#3B3149"/>
<path d="M28.8904 45.9558H25.293V49.4497H28.8904V45.9558Z" fill="#3B3149"/>
<path d="M28.8904 42.4624H25.293V45.9558H28.8904V42.4624Z" fill="#3B3149"/>
<path d="M28.8904 38.9692H25.293V42.4627H28.8904V38.9692Z" fill="#3B3149"/>
<path d="M28.8904 35.4751H25.293V38.969H28.8904V35.4751Z" fill="#3B3149"/>
<path d="M28.8904 31.9817H25.293V35.4751H28.8904V31.9817Z" fill="#3B3149"/>
<path d="M28.8904 28.4883H25.293V31.9817H28.8904V28.4883Z" fill="#3B3149"/>
<path d="M28.8904 24.9944H25.293V28.4883H28.8904V24.9944Z" fill="#3B3149"/>
<path d="M28.8904 21.501H25.293V24.9944H28.8904V21.501Z" fill="#3B3149"/>
<path d="M28.8904 18.0076H25.293V21.501H28.8904V18.0076Z" fill="#3B3149"/>
<path d="M28.8904 14.5139H25.293V18.0073H28.8904V14.5139Z" fill="#3B3149"/>
<path d="M28.8904 11.0203H25.293V14.5141H28.8904V11.0203Z" fill="#3B3149"/>
<path d="M28.8904 7.52686H25.293V11.0203H28.8904V7.52686Z" fill="#3B3149"/>
<path d="M28.8904 4.03369H25.293V7.52711H28.8904V4.03369Z" fill="#3B3149"/>
<path d="M28.8904 0.539551H25.293V4.03343H28.8904V0.539551Z" fill="#3B3149"/>
<path d="M25.2928 59.9302H21.6958V63.4236H25.2928V59.9302Z" fill="#3B3149"/>
<path d="M25.2928 56.4365H21.6958V59.9304H25.2928V56.4365Z" fill="#3B3149"/>
<path d="M25.2928 52.9431H21.6958V56.4365H25.2928V52.9431Z" fill="#3B3149"/>
<path d="M25.2928 49.45H21.6958V52.9434H25.2928V49.45Z" fill="#3B3149"/>
<path d="M25.2928 45.9558H21.6958V49.4497H25.2928V45.9558Z" fill="#3B3149"/>
<path d="M25.2928 42.4624H21.6958V45.9558H25.2928V42.4624Z" fill="#3B3149"/>
<path d="M25.2928 38.9692H21.6958V42.4627H25.2928V38.9692Z" fill="#3B3149"/>
<path d="M25.2928 35.4751H21.6958V38.969H25.2928V35.4751Z" fill="#3B3149"/>
<path d="M25.2928 31.9817H21.6958V35.4751H25.2928V31.9817Z" fill="#3B3149"/>
<path d="M25.2928 28.4883H21.6958V31.9817H25.2928V28.4883Z" fill="#3B3149"/>
<path d="M25.2928 24.9944H21.6958V28.4883H25.2928V24.9944Z" fill="#3B3149"/>
<path d="M25.2928 21.501H21.6958V24.9944H25.2928V21.501Z" fill="#3B3149"/>
<path d="M25.2928 18.0076H21.6958V21.501H25.2928V18.0076Z" fill="#3B3149"/>
<path d="M25.2928 14.5139H21.6958V18.0073H25.2928V14.5139Z" fill="#3B3149"/>
<path d="M25.2928 11.0203H21.6958V14.5141H25.2928V11.0203Z" fill="#3B3149"/>
<path d="M25.2928 7.52686H21.6958V11.0203H25.2928V7.52686Z" fill="#3B3149"/>
<path d="M25.2928 4.03369H21.6958V7.52711H25.2928V4.03369Z" fill="#3B3149"/>
<path d="M21.6961 59.9302H18.0986V63.4236H21.6961V59.9302Z" fill="#3B3149"/>
<path d="M21.6961 56.4365H18.0986V59.9304H21.6961V56.4365Z" fill="#3B3149"/>
<path d="M21.6961 52.9431H18.0986V56.4365H21.6961V52.9431Z" fill="#3B3149"/>
<path d="M21.6961 49.45H18.0986V52.9434H21.6961V49.45Z" fill="#3B3149"/>
<path d="M21.6961 45.9558H18.0986V49.4497H21.6961V45.9558Z" fill="#3B3149"/>
<path d="M21.6961 42.4624H18.0986V45.9558H21.6961V42.4624Z" fill="#3B3149"/>
<path d="M21.6961 38.9692H18.0986V42.4627H21.6961V38.9692Z" fill="#3B3149"/>
<path d="M21.6961 35.4751H18.0986V38.969H21.6961V35.4751Z" fill="#3B3149"/>
<path d="M21.6961 31.9817H18.0986V35.4751H21.6961V31.9817Z" fill="#3B3149"/>
<path d="M21.6961 28.4883H18.0986V31.9817H21.6961V28.4883Z" fill="#3B3149"/>
<path d="M21.6961 24.9944H18.0986V28.4883H21.6961V24.9944Z" fill="#3B3149"/>
<path d="M21.6961 21.501H18.0986V24.9944H21.6961V21.501Z" fill="#3B3149"/>
<path d="M21.6961 18.0076H18.0986V21.501H21.6961V18.0076Z" fill="#3B3149"/>
<path d="M21.6961 14.5139H18.0986V18.0073H21.6961V14.5139Z" fill="#3B3149"/>
<path d="M21.6961 11.0203H18.0986V14.5141H21.6961V11.0203Z" fill="#3B3149"/>
<path d="M21.6961 7.52686H18.0986V11.0203H21.6961V7.52686Z" fill="#3B3149"/>
<path d="M21.6961 4.03369H18.0986V7.52711H21.6961V4.03369Z" fill="#3B3149"/>
<path d="M18.0984 56.4365H14.501V59.9304H18.0984V56.4365Z" fill="#3B3149"/>
<path d="M18.0984 52.9431H14.501V56.4365H18.0984V52.9431Z" fill="#3B3149"/>
<path d="M18.0984 49.45H14.501V52.9434H18.0984V49.45Z" fill="#3B3149"/>
<path d="M18.0984 45.9558H14.501V49.4497H18.0984V45.9558Z" fill="#3B3149"/>
<path d="M18.0984 42.4624H14.501V45.9558H18.0984V42.4624Z" fill="#3B3149"/>
<path d="M18.0984 38.9692H14.501V42.4627H18.0984V38.9692Z" fill="#3B3149"/>
<path d="M18.0984 35.4751H14.501V38.969H18.0984V35.4751Z" fill="#3B3149"/>
<path d="M18.0984 31.9817H14.501V35.4751H18.0984V31.9817Z" fill="#3B3149"/>
<path d="M18.0984 28.4883H14.501V31.9817H18.0984V28.4883Z" fill="#3B3149"/>
<path d="M18.0984 24.9944H14.501V28.4883H18.0984V24.9944Z" fill="#3B3149"/>
<path d="M18.0984 21.501H14.501V24.9944H18.0984V21.501Z" fill="#3B3149"/>
<path d="M18.0984 18.0076H14.501V21.501H18.0984V18.0076Z" fill="#3B3149"/>
<path d="M18.0984 14.5139H14.501V18.0073H18.0984V14.5139Z" fill="#3B3149"/>
<path d="M18.0984 11.0203H14.501V14.5141H18.0984V11.0203Z" fill="#3B3149"/>
<path d="M18.0984 7.52686H14.501V11.0203H18.0984V7.52686Z" fill="#3B3149"/>
<path d="M14.5012 52.9431H10.9038V56.4365H14.5012V52.9431Z" fill="#3B3149"/>
<path d="M14.5012 49.45H10.9038V52.9434H14.5012V49.45Z" fill="#3B3149"/>
<path d="M14.5012 45.9558H10.9038V49.4497H14.5012V45.9558Z" fill="#3B3149"/>
<path d="M14.5012 42.4624H10.9038V45.9558H14.5012V42.4624Z" fill="#3B3149"/>
<path d="M14.5012 38.9692H10.9038V42.4627H14.5012V38.9692Z" fill="#3B3149"/>
<path d="M14.5012 35.4751H10.9038V38.969H14.5012V35.4751Z" fill="#3B3149"/>
<path d="M14.5012 31.9817H10.9038V35.4751H14.5012V31.9817Z" fill="#3B3149"/>
<path d="M14.5012 28.4883H10.9038V31.9817H14.5012V28.4883Z" fill="#3B3149"/>
<path d="M14.5012 24.9944H10.9038V28.4883H14.5012V24.9944Z" fill="#3B3149"/>
<path d="M14.5012 21.501H10.9038V24.9944H14.5012V21.501Z" fill="#3B3149"/>
<path d="M14.5012 18.0076H10.9038V21.501H14.5012V18.0076Z" fill="#3B3149"/>
<path d="M14.5012 14.5139H10.9038V18.0073H14.5012V14.5139Z" fill="#3B3149"/>
<path d="M14.5012 11.0203H10.9038V14.5141H14.5012V11.0203Z" fill="#3B3149"/>
<path d="M10.9036 49.45H7.30615V52.9434H10.9036V49.45Z" fill="#3B3149"/>
<path d="M10.9036 45.9558H7.30615V49.4497H10.9036V45.9558Z" fill="#3B3149"/>
<path d="M10.9036 42.4624H7.30615V45.9558H10.9036V42.4624Z" fill="#3B3149"/>
<path d="M10.9036 38.9692H7.30615V42.4627H10.9036V38.9692Z" fill="#3B3149"/>
<path d="M10.9036 35.4751H7.30615V38.969H10.9036V35.4751Z" fill="#3B3149"/>
<path d="M10.9036 31.9817H7.30615V35.4751H10.9036V31.9817Z" fill="#3B3149"/>
<path d="M10.9036 28.4883H7.30615V31.9817H10.9036V28.4883Z" fill="#3B3149"/>
<path d="M10.9036 24.9944H7.30615V28.4883H10.9036V24.9944Z" fill="#3B3149"/>
<path d="M10.9036 21.501H7.30615V24.9944H10.9036V21.501Z" fill="#3B3149"/>
<path d="M10.9036 18.0076H7.30615V21.501H10.9036V18.0076Z" fill="#3B3149"/>
<path d="M10.9036 14.5139H7.30615V18.0073H10.9036V14.5139Z" fill="#3B3149"/>
<path d="M7.30644 45.9558H3.70947V49.4497H7.30644V45.9558Z" fill="#3B3149"/>
<path d="M7.30644 42.4624H3.70947V45.9558H7.30644V42.4624Z" fill="#3B3149"/>
<path d="M7.30644 38.9692H3.70947V42.4627H7.30644V38.9692Z" fill="#3B3149"/>
<path d="M7.30644 35.4751H3.70947V38.969H7.30644V35.4751Z" fill="#3B3149"/>
<path d="M7.30644 31.9817H3.70947V35.4751H7.30644V31.9817Z" fill="#3B3149"/>
<path d="M7.30644 28.4883H3.70947V31.9817H7.30644V28.4883Z" fill="#3B3149"/>
<path d="M7.30644 24.9944H3.70947V28.4883H7.30644V24.9944Z" fill="#3B3149"/>
<path d="M7.30644 21.501H3.70947V24.9944H7.30644V21.501Z" fill="#3B3149"/>
<path d="M7.30644 18.0076H3.70947V21.501H7.30644V18.0076Z" fill="#3B3149"/>
<path d="M3.70924 38.9692H0.111816V42.4627H3.70924V38.9692Z" fill="#3B3149"/>
<path d="M3.70924 35.4751H0.111816V38.969H3.70924V35.4751Z" fill="#3B3149"/>
<path d="M3.70924 31.9817H0.111816V35.4751H3.70924V31.9817Z" fill="#3B3149"/>
<path d="M3.70924 28.4883H0.111816V31.9817H3.70924V28.4883Z" fill="#3B3149"/>
<path d="M3.70924 24.9944H0.111816V28.4883H3.70924V24.9944Z" fill="#3B3149"/>
<path d="M56.1897 42.2395H54.2891V44.1401H56.1897V42.2395Z" fill="white"/>
<path d="M56.1897 23.0679H54.2891V24.9685H56.1897V23.0679Z" fill="white"/>
<path d="M56.1897 21.1672H54.2891V23.0679H56.1897V21.1672Z" fill="white"/>
<path d="M54.2888 44.1401H52.3882V46.0408H54.2888V44.1401Z" fill="white"/>
<path d="M54.2888 42.2395H52.3882V44.1401H54.2888V42.2395Z" fill="white"/>
<path d="M54.2888 40.3386H52.3882V42.2392H54.2888V40.3386Z" fill="white"/>
<path d="M54.2888 26.9104H52.3882V28.811H54.2888V26.9104Z" fill="white"/>
<path d="M54.2888 25.0095H52.3882V26.9101H54.2888V25.0095Z" fill="white"/>
<path d="M54.2888 23.0679H52.3882V24.9685H54.2888V23.0679Z" fill="white"/>
<path d="M54.2888 21.1672H52.3882V23.0679H54.2888V21.1672Z" fill="white"/>
<path d="M52.3884 44.1401H50.4878V46.0408H52.3884V44.1401Z" fill="white"/>
<path d="M52.3884 42.2395H50.4878V44.1401H52.3884V42.2395Z" fill="white"/>
<path d="M52.3884 40.3386H50.4878V42.2392H52.3884V40.3386Z" fill="white"/>
<path d="M52.3884 38.397H50.4878V40.2976H52.3884V38.397Z" fill="white"/>
<path d="M52.3884 28.811H50.4878V30.7117H52.3884V28.811Z" fill="white"/>
<path d="M52.3884 26.9104H50.4878V28.811H52.3884V26.9104Z" fill="white"/>
<path d="M52.3884 25.0095H50.4878V26.9101H52.3884V25.0095Z" fill="white"/>
<path d="M52.3884 23.0679H50.4878V24.9685H52.3884V23.0679Z" fill="white"/>
<path d="M52.3884 21.1672H50.4878V23.0679H52.3884V21.1672Z" fill="white"/>
<path d="M50.4465 44.1401H48.5459V46.0408H50.4465V44.1401Z" fill="white"/>
<path d="M50.4465 42.2395H48.5459V44.1401H50.4465V42.2395Z" fill="white"/>
<path d="M50.4465 40.3386H48.5459V42.2392H50.4465V40.3386Z" fill="white"/>
<path d="M50.4465 38.397H48.5459V40.2976H50.4465V38.397Z" fill="white"/>
<path d="M50.4465 36.4963H48.5459V38.397H50.4465V36.4963Z" fill="white"/>
<path d="M50.4465 34.5957H48.5459V36.4963H50.4465V34.5957Z" fill="white"/>
<path d="M50.4465 32.6533H48.5459V34.5539H50.4465V32.6533Z" fill="white"/>
<path d="M50.4465 30.7527H48.5459V32.6533H50.4465V30.7527Z" fill="white"/>
<path d="M50.4465 28.811H48.5459V30.7117H50.4465V28.811Z" fill="white"/>
<path d="M50.4465 26.9104H48.5459V28.811H50.4465V26.9104Z" fill="white"/>
<path d="M50.4465 25.0095H48.5459V26.9101H50.4465V25.0095Z" fill="white"/>
<path d="M50.4465 23.0679H48.5459V24.9685H50.4465V23.0679Z" fill="white"/>
<path d="M50.4465 21.1672H48.5459V23.0679H50.4465V21.1672Z" fill="white"/>
<path d="M48.5456 44.1401H46.645V46.0408H48.5456V44.1401Z" fill="white"/>
<path d="M48.5456 42.2395H46.645V44.1401H48.5456V42.2395Z" fill="white"/>
<path d="M48.5456 40.3386H46.645V42.2392H48.5456V40.3386Z" fill="white"/>
<path d="M48.5456 38.397H46.645V40.2976H48.5456V38.397Z" fill="white"/>
<path d="M48.5456 36.4963H46.645V38.397H48.5456V36.4963Z" fill="white"/>
<path d="M48.5456 34.5957H46.645V36.4963H48.5456V34.5957Z" fill="white"/>
<path d="M48.5456 32.6533H46.645V34.5539H48.5456V32.6533Z" fill="white"/>
<path d="M48.5456 30.7527H46.645V32.6533H48.5456V30.7527Z" fill="white"/>
<path d="M48.5456 28.811H46.645V30.7117H48.5456V28.811Z" fill="white"/>
<path d="M48.5456 26.9104H46.645V28.811H48.5456V26.9104Z" fill="white"/>
<path d="M48.5456 25.0095H46.645V26.9101H48.5456V25.0095Z" fill="white"/>
<path d="M48.5456 23.0679H46.645V24.9685H48.5456V23.0679Z" fill="white"/>
<path d="M46.6448 42.2395H44.7441V44.1401H46.6448V42.2395Z" fill="white"/>
<path d="M46.6448 40.3386H44.7441V42.2392H46.6448V40.3386Z" fill="white"/>
<path d="M46.6448 38.397H44.7441V40.2976H46.6448V38.397Z" fill="white"/>
<path d="M46.6448 36.4963H44.7441V38.397H46.6448V36.4963Z" fill="white"/>
<path d="M46.6448 34.5957H44.7441V36.4963H46.6448V34.5957Z" fill="white"/>
<path d="M46.6448 32.6533H44.7441V34.5539H46.6448V32.6533Z" fill="white"/>
<path d="M46.6448 30.7527H44.7441V32.6533H46.6448V30.7527Z" fill="white"/>
<path d="M46.6448 28.811H44.7441V30.7117H46.6448V28.811Z" fill="white"/>
<path d="M46.6448 26.9104H44.7441V28.811H46.6448V26.9104Z" fill="white"/>
<path d="M46.6448 25.0095H44.7441V26.9101H46.6448V25.0095Z" fill="white"/>
<path d="M44.7033 40.3386H42.8027V42.2392H44.7033V40.3386Z" fill="white"/>
<path d="M44.7033 38.397H42.8027V40.2976H44.7033V38.397Z" fill="white"/>
<path d="M44.7033 36.4963H42.8027V38.397H44.7033V36.4963Z" fill="white"/>
<path d="M44.7033 34.5957H42.8027V36.4963H44.7033V34.5957Z" fill="white"/>
<path d="M44.7033 32.6533H42.8027V34.5539H44.7033V32.6533Z" fill="white"/>
<path d="M44.7033 30.7527H42.8027V32.6533H44.7033V30.7527Z" fill="white"/>
<path d="M44.7033 28.811H42.8027V30.7117H44.7033V28.811Z" fill="white"/>
<path d="M42.8025 38.397H40.9019V40.2976H42.8025V38.397Z" fill="white"/>
<path d="M42.8025 36.4963H40.9019V38.397H42.8025V36.4963Z" fill="white"/>
<path d="M42.8025 34.5957H40.9019V36.4963H42.8025V34.5957Z" fill="white"/>
<path d="M42.8025 32.6533H40.9019V34.5539H42.8025V32.6533Z" fill="white"/>
<path d="M42.8025 30.7527H40.9019V32.6533H42.8025V30.7527Z" fill="white"/>
<path d="M40.9021 36.4963H39.0015V38.397H40.9021V36.4963Z" fill="white"/>
<path d="M40.9021 34.5957H39.0015V36.4963H40.9021V34.5957Z" fill="white"/>
<path d="M40.9021 32.6533H39.0015V34.5539H40.9021V32.6533Z" fill="white"/>
<path d="M38.9602 44.1401H37.0596V46.0408H38.9602V44.1401Z" fill="white"/>
<path d="M38.9602 42.2395H37.0596V44.1401H38.9602V42.2395Z" fill="white"/>
<path d="M38.9602 40.3386H37.0596V42.2392H38.9602V40.3386Z" fill="white"/>
<path d="M38.9602 38.397H37.0596V40.2976H38.9602V38.397Z" fill="white"/>
<path d="M38.9602 36.4963H37.0596V38.397H38.9602V36.4963Z" fill="white"/>
<path d="M38.9602 34.5957H37.0596V36.4963H38.9602V34.5957Z" fill="white"/>
<path d="M38.9602 32.6533H37.0596V34.5539H38.9602V32.6533Z" fill="white"/>
<path d="M38.9602 30.7527H37.0596V32.6533H38.9602V30.7527Z" fill="white"/>
<path d="M38.9602 28.811H37.0596V30.7117H38.9602V28.811Z" fill="white"/>
<path d="M38.9602 26.9104H37.0596V28.811H38.9602V26.9104Z" fill="white"/>
<path d="M38.9602 25.0095H37.0596V26.9101H38.9602V25.0095Z" fill="white"/>
<path d="M38.9602 23.0679H37.0596V24.9685H38.9602V23.0679Z" fill="white"/>
<path d="M38.9602 21.1672H37.0596V23.0679H38.9602V21.1672Z" fill="white"/>
<path d="M37.0593 44.1401H35.1587V46.0408H37.0593V44.1401Z" fill="white"/>
<path d="M37.0593 42.2395H35.1587V44.1401H37.0593V42.2395Z" fill="white"/>
<path d="M37.0593 40.3386H35.1587V42.2392H37.0593V40.3386Z" fill="white"/>
<path d="M37.0593 38.397H35.1587V40.2976H37.0593V38.397Z" fill="white"/>
<path d="M37.0593 36.4963H35.1587V38.397H37.0593V36.4963Z" fill="white"/>
<path d="M37.0593 34.5957H35.1587V36.4963H37.0593V34.5957Z" fill="white"/>
<path d="M37.0593 32.6533H35.1587V34.5539H37.0593V32.6533Z" fill="white"/>
<path d="M37.0593 30.7527H35.1587V32.6533H37.0593V30.7527Z" fill="white"/>
<path d="M37.0593 28.811H35.1587V30.7117H37.0593V28.811Z" fill="white"/>
<path d="M37.0593 26.9104H35.1587V28.811H37.0593V26.9104Z" fill="white"/>
<path d="M37.0593 25.0095H35.1587V26.9101H37.0593V25.0095Z" fill="white"/>
<path d="M37.0593 23.0679H35.1587V24.9685H37.0593V23.0679Z" fill="white"/>
<path d="M37.0593 21.1672H35.1587V23.0679H37.0593V21.1672Z" fill="white"/>
<path d="M35.1174 44.1401H33.2168V46.0408H35.1174V44.1401Z" fill="white"/>
<path d="M35.1174 42.2395H33.2168V44.1401H35.1174V42.2395Z" fill="white"/>
<path d="M35.1174 40.3386H33.2168V42.2392H35.1174V40.3386Z" fill="white"/>
<path d="M35.1174 38.397H33.2168V40.2976H35.1174V38.397Z" fill="white"/>
<path d="M35.1174 36.4963H33.2168V38.397H35.1174V36.4963Z" fill="white"/>
<path d="M35.1174 34.5957H33.2168V36.4963H35.1174V34.5957Z" fill="white"/>
<path d="M35.1174 32.6533H33.2168V34.5539H35.1174V32.6533Z" fill="white"/>
<path d="M35.1174 30.7527H33.2168V32.6533H35.1174V30.7527Z" fill="white"/>
<path d="M35.1174 28.811H33.2168V30.7117H35.1174V28.811Z" fill="white"/>
<path d="M35.1174 26.9104H33.2168V28.811H35.1174V26.9104Z" fill="white"/>
<path d="M35.1174 25.0095H33.2168V26.9101H35.1174V25.0095Z" fill="white"/>
<path d="M35.1174 23.0679H33.2168V24.9685H35.1174V23.0679Z" fill="white"/>
<path d="M35.1174 21.1672H33.2168V23.0679H35.1174V21.1672Z" fill="white"/>
<path d="M33.2165 44.1401H31.3159V46.0408H33.2165V44.1401Z" fill="white"/>
<path d="M33.2165 42.2395H31.3159V44.1401H33.2165V42.2395Z" fill="white"/>
<path d="M33.2165 40.3386H31.3159V42.2392H33.2165V40.3386Z" fill="white"/>
<path d="M33.2165 38.397H31.3159V40.2976H33.2165V38.397Z" fill="white"/>
<path d="M33.2165 36.4963H31.3159V38.397H33.2165V36.4963Z" fill="white"/>
<path d="M33.2165 34.5957H31.3159V36.4963H33.2165V34.5957Z" fill="white"/>
<path d="M33.2165 32.6533H31.3159V34.5539H33.2165V32.6533Z" fill="white"/>
<path d="M33.2165 30.7527H31.3159V32.6533H33.2165V30.7527Z" fill="white"/>
<path d="M33.2165 28.811H31.3159V30.7117H33.2165V28.811Z" fill="white"/>
<path d="M33.2165 26.9104H31.3159V28.811H33.2165V26.9104Z" fill="white"/>
<path d="M33.2165 25.0095H31.3159V26.9101H33.2165V25.0095Z" fill="white"/>
<path d="M33.2165 23.0679H31.3159V24.9685H33.2165V23.0679Z" fill="white"/>
<path d="M33.2165 21.1672H31.3159V23.0679H33.2165V21.1672Z" fill="white"/>
<path d="M31.3162 44.1401H29.4155V46.0408H31.3162V44.1401Z" fill="white"/>
<path d="M31.3162 42.2395H29.4155V44.1401H31.3162V42.2395Z" fill="white"/>
<path d="M31.3162 40.3386H29.4155V42.2392H31.3162V40.3386Z" fill="white"/>
<path d="M31.3162 38.397H29.4155V40.2976H31.3162V38.397Z" fill="white"/>
<path d="M31.3162 36.4963H29.4155V38.397H31.3162V36.4963Z" fill="white"/>
<path d="M31.3162 34.5957H29.4155V36.4963H31.3162V34.5957Z" fill="white"/>
<path d="M31.3162 25.0095H29.4155V26.9101H31.3162V25.0095Z" fill="white"/>
<path d="M31.3162 23.0679H29.4155V24.9685H31.3162V23.0679Z" fill="white"/>
<path d="M31.3162 21.1672H29.4155V23.0679H31.3162V21.1672Z" fill="white"/>
<path d="M29.3743 44.1401H27.4736V46.0408H29.3743V44.1401Z" fill="white"/>
<path d="M29.3743 42.2395H27.4736V44.1401H29.3743V42.2395Z" fill="white"/>
<path d="M29.3743 40.3386H27.4736V42.2392H29.3743V40.3386Z" fill="white"/>
<path d="M29.3743 38.397H27.4736V40.2976H29.3743V38.397Z" fill="white"/>
<path d="M29.3743 36.4963H27.4736V38.397H29.3743V36.4963Z" fill="white"/>
<path d="M29.3743 34.5957H27.4736V36.4963H29.3743V34.5957Z" fill="white"/>
<path d="M29.3743 21.1672H27.4736V23.0679H29.3743V21.1672Z" fill="white"/>
<path d="M27.4734 42.2395H25.5728V44.1401H27.4734V42.2395Z" fill="white"/>
<path d="M27.4734 40.3386H25.5728V42.2392H27.4734V40.3386Z" fill="white"/>
<path d="M27.4734 38.397H25.5728V40.2976H27.4734V38.397Z" fill="white"/>
<path d="M27.4734 36.4963H25.5728V38.397H27.4734V36.4963Z" fill="white"/>
<path d="M27.4734 34.5957H25.5728V36.4963H27.4734V34.5957Z" fill="white"/>
<path d="M27.4734 32.6533H25.5728V34.5539H27.4734V32.6533Z" fill="white"/>
<path d="M25.573 40.3386H23.6724V42.2392H25.573V40.3386Z" fill="white"/>
<path d="M25.573 38.397H23.6724V40.2976H25.573V38.397Z" fill="white"/>
<path d="M25.573 36.4963H23.6724V38.397H25.573V36.4963Z" fill="white"/>
<path d="M25.573 34.5957H23.6724V36.4963H25.573V34.5957Z" fill="white"/>
<path d="M25.573 32.6533H23.6724V34.5539H25.573V32.6533Z" fill="white"/>
<path d="M25.573 30.7527H23.6724V32.6533H25.573V30.7527Z" fill="white"/>
<path d="M25.573 28.811H23.6724V30.7117H25.573V28.811Z" fill="white"/>
<path d="M23.6311 38.397H21.7305V40.2976H23.6311V38.397Z" fill="white"/>
<path d="M23.6311 36.4963H21.7305V38.397H23.6311V36.4963Z" fill="white"/>
<path d="M23.6311 34.5957H21.7305V36.4963H23.6311V34.5957Z" fill="white"/>
<path d="M23.6311 32.6533H21.7305V34.5539H23.6311V32.6533Z" fill="white"/>
<path d="M23.6311 30.7527H21.7305V32.6533H23.6311V30.7527Z" fill="white"/>
<path d="M23.6311 28.811H21.7305V30.7117H23.6311V28.811Z" fill="white"/>
<path d="M23.6311 26.9104H21.7305V28.811H23.6311V26.9104Z" fill="white"/>
<path d="M23.6311 25.0095H21.7305V26.9101H23.6311V25.0095Z" fill="white"/>
<path d="M21.7302 36.4963H19.8296V38.397H21.7302V36.4963Z" fill="white"/>
<path d="M21.7302 34.5957H19.8296V36.4963H21.7302V34.5957Z" fill="white"/>
<path d="M21.7302 32.6533H19.8296V34.5539H21.7302V32.6533Z" fill="white"/>
<path d="M21.7302 30.7527H19.8296V32.6533H21.7302V30.7527Z" fill="white"/>
<path d="M21.7302 28.811H19.8296V30.7117H21.7302V28.811Z" fill="white"/>
<path d="M21.7302 26.9104H19.8296V28.811H21.7302V26.9104Z" fill="white"/>
<path d="M21.7302 25.0095H19.8296V26.9101H21.7302V25.0095Z" fill="white"/>
<path d="M21.7302 23.0679H19.8296V24.9685H21.7302V23.0679Z" fill="white"/>
<path d="M21.7302 21.1672H19.8296V23.0679H21.7302V21.1672Z" fill="white"/>
<path d="M19.8298 34.5957H17.9292V36.4963H19.8298V34.5957Z" fill="white"/>
<path d="M19.8298 32.6533H17.9292V34.5539H19.8298V32.6533Z" fill="white"/>
<path d="M19.8298 30.7527H17.9292V32.6533H19.8298V30.7527Z" fill="white"/>
<path d="M19.8298 28.811H17.9292V30.7117H19.8298V28.811Z" fill="white"/>
<path d="M19.8298 26.9104H17.9292V28.811H19.8298V26.9104Z" fill="white"/>
<path d="M19.8298 25.0095H17.9292V26.9101H19.8298V25.0095Z" fill="white"/>
<path d="M19.8298 23.0679H17.9292V24.9685H19.8298V23.0679Z" fill="white"/>
<path d="M19.8298 21.1672H17.9292V23.0679H19.8298V21.1672Z" fill="white"/>
<path d="M17.8879 30.7527H15.9873V32.6533H17.8879V30.7527Z" fill="white"/>
<path d="M17.8879 28.811H15.9873V30.7117H17.8879V28.811Z" fill="white"/>
<path d="M17.8879 26.9104H15.9873V28.811H17.8879V26.9104Z" fill="white"/>
<path d="M17.8879 25.0095H15.9873V26.9101H17.8879V25.0095Z" fill="white"/>
<path d="M17.8879 23.0679H15.9873V24.9685H17.8879V23.0679Z" fill="white"/>
<path d="M17.8879 21.1672H15.9873V23.0679H17.8879V21.1672Z" fill="white"/>
<path d="M15.987 26.9104H14.0864V28.811H15.987V26.9104Z" fill="white"/>
<path d="M15.987 25.0095H14.0864V26.9101H15.987V25.0095Z" fill="white"/>
<path d="M15.987 23.0679H14.0864V24.9685H15.987V23.0679Z" fill="white"/>
<path d="M15.987 21.1672H14.0864V23.0679H15.987V21.1672Z" fill="white"/>
<path d="M14.0452 21.167H12.1445V23.0676H14.0452V21.167Z" fill="white"/>
<path d="M56.1897 44.1401H54.2891V46.0408H56.1897V44.1401Z" fill="white"/>
</svg>
