<svg width="69" height="67" viewBox="0 0 69 67" fill="none" xmlns="http://www.w3.org/2000/svg">
<path d="M68.4612 38.7432H64.8638V42.2366H68.4612V38.7432Z" fill="#3B3149"/>
<path d="M68.4612 35.249H64.8638V38.7429H68.4612V35.249Z" fill="#3B3149"/>
<path d="M68.4612 31.7556H64.8638V35.249H68.4612V31.7556Z" fill="#3B3149"/>
<path d="M68.4612 28.2625H64.8638V31.7559H68.4612V28.2625Z" fill="#3B3149"/>
<path d="M68.4612 24.7683H64.8638V28.2622H68.4612V24.7683Z" fill="#3B3149"/>
<path d="M64.8635 45.7297H61.2661V49.2236H64.8635V45.7297Z" fill="#3B3149"/>
<path d="M64.8635 42.2363H61.2661V45.7297H64.8635V42.2363Z" fill="#3B3149"/>
<path d="M64.8635 38.7432H61.2661V42.2366H64.8635V38.7432Z" fill="#3B3149"/>
<path d="M64.8635 35.249H61.2661V38.7429H64.8635V35.249Z" fill="#3B3149"/>
<path d="M64.8635 31.7556H61.2661V35.249H64.8635V31.7556Z" fill="#3B3149"/>
<path d="M64.8635 28.2625H61.2661V31.7559H64.8635V28.2625Z" fill="#3B3149"/>
<path d="M64.8635 24.7683H61.2661V28.2622H64.8635V24.7683Z" fill="#3B3149"/>
<path d="M64.8635 21.2749H61.2661V24.7683H64.8635V21.2749Z" fill="#3B3149"/>
<path d="M64.8635 17.7817H61.2661V21.2752H64.8635V17.7817Z" fill="#3B3149"/>
<path d="M61.2664 49.2239H57.6689V52.7173H61.2664V49.2239Z" fill="#3B3149"/>
<path d="M61.2664 45.7297H57.6689V49.2236H61.2664V45.7297Z" fill="#3B3149"/>
<path d="M61.2664 42.2363H57.6689V45.7297H61.2664V42.2363Z" fill="#3B3149"/>
<path d="M61.2664 38.7432H57.6689V42.2366H61.2664V38.7432Z" fill="#3B3149"/>
<path d="M61.2664 35.249H57.6689V38.7429H61.2664V35.249Z" fill="#3B3149"/>
<path d="M61.2664 31.7556H57.6689V35.249H61.2664V31.7556Z" fill="#3B3149"/>
<path d="M61.2664 28.2625H57.6689V31.7559H61.2664V28.2625Z" fill="#3B3149"/>
<path d="M61.2664 24.7683H57.6689V28.2622H61.2664V24.7683Z" fill="#3B3149"/>
<path d="M61.2664 21.2749H57.6689V24.7683H61.2664V21.2749Z" fill="#3B3149"/>
<path d="M61.2664 17.7817H57.6689V21.2752H61.2664V17.7817Z" fill="#3B3149"/>
<path d="M61.2664 14.2881H57.6689V17.7815H61.2664V14.2881Z" fill="#3B3149"/>
<path d="M57.6687 52.7173H54.0718V56.2107H57.6687V52.7173Z" fill="#3B3149"/>
<path d="M57.6687 49.2239H54.0718V52.7173H57.6687V49.2239Z" fill="#3B3149"/>
<path d="M57.6687 45.7297H54.0718V49.2236H57.6687V45.7297Z" fill="#3B3149"/>
<path d="M57.6687 42.2363H54.0718V45.7297H57.6687V42.2363Z" fill="#3B3149"/>
<path d="M57.6687 38.7432H54.0718V42.2366H57.6687V38.7432Z" fill="#3B3149"/>
<path d="M57.6687 35.249H54.0718V38.7429H57.6687V35.249Z" fill="#3B3149"/>
<path d="M57.6687 31.7556H54.0718V35.249H57.6687V31.7556Z" fill="#3B3149"/>
<path d="M57.6687 28.2625H54.0718V31.7559H57.6687V28.2625Z" fill="#3B3149"/>
<path d="M57.6687 24.7683H54.0718V28.2622H57.6687V24.7683Z" fill="#3B3149"/>
<path d="M57.6687 21.2749H54.0718V24.7683H57.6687V21.2749Z" fill="#3B3149"/>
<path d="M57.6687 17.7817H54.0718V21.2752H57.6687V17.7817Z" fill="#3B3149"/>
<path d="M57.6687 14.2881H54.0718V17.7815H57.6687V14.2881Z" fill="#3B3149"/>
<path d="M57.6687 10.7942H54.0718V14.2881H57.6687V10.7942Z" fill="#3B3149"/>
<path d="M54.072 56.2104H50.4746V59.7043H54.072V56.2104Z" fill="#3B3149"/>
<path d="M54.072 52.7173H50.4746V56.2107H54.072V52.7173Z" fill="#3B3149"/>
<path d="M54.072 49.2239H50.4746V52.7173H54.072V49.2239Z" fill="#3B3149"/>
<path d="M54.072 45.7297H50.4746V49.2236H54.072V45.7297Z" fill="#3B3149"/>
<path d="M54.072 42.2363H50.4746V45.7297H54.072V42.2363Z" fill="#3B3149"/>
<path d="M54.072 38.7432H50.4746V42.2366H54.072V38.7432Z" fill="#3B3149"/>
<path d="M54.072 35.249H50.4746V38.7429H54.072V35.249Z" fill="#3B3149"/>
<path d="M54.072 31.7556H50.4746V35.249H54.072V31.7556Z" fill="#3B3149"/>
<path d="M54.072 28.2625H50.4746V31.7559H54.072V28.2625Z" fill="#3B3149"/>
<path d="M54.072 24.7683H50.4746V28.2622H54.072V24.7683Z" fill="#3B3149"/>
<path d="M54.072 21.2749H50.4746V24.7683H54.072V21.2749Z" fill="#3B3149"/>
<path d="M54.072 17.7817H50.4746V21.2752H54.072V17.7817Z" fill="#3B3149"/>
<path d="M54.072 14.2881H50.4746V17.7815H54.072V14.2881Z" fill="#3B3149"/>
<path d="M54.072 10.7942H50.4746V14.2881H54.072V10.7942Z" fill="#3B3149"/>
<path d="M54.072 7.30103H50.4746V10.7944H54.072V7.30103Z" fill="#3B3149"/>
<path d="M50.4744 59.7041H46.877V63.1975H50.4744V59.7041Z" fill="#3B3149"/>
<path d="M50.4744 56.2104H46.877V59.7043H50.4744V56.2104Z" fill="#3B3149"/>
<path d="M50.4744 52.7173H46.877V56.2107H50.4744V52.7173Z" fill="#3B3149"/>
<path d="M50.4744 49.2239H46.877V52.7173H50.4744V49.2239Z" fill="#3B3149"/>
<path d="M50.4744 45.7297H46.877V49.2236H50.4744V45.7297Z" fill="#3B3149"/>
<path d="M50.4744 42.2363H46.877V45.7297H50.4744V42.2363Z" fill="#3B3149"/>
<path d="M50.4744 38.7432H46.877V42.2366H50.4744V38.7432Z" fill="#3B3149"/>
<path d="M50.4744 35.249H46.877V38.7429H50.4744V35.249Z" fill="#3B3149"/>
<path d="M50.4744 31.7556H46.877V35.249H50.4744V31.7556Z" fill="#3B3149"/>
<path d="M50.4744 28.2625H46.877V31.7559H50.4744V28.2625Z" fill="#3B3149"/>
<path d="M50.4744 24.7683H46.877V28.2622H50.4744V24.7683Z" fill="#3B3149"/>
<path d="M50.4744 21.2749H46.877V24.7683H50.4744V21.2749Z" fill="#3B3149"/>
<path d="M50.4744 17.7817H46.877V21.2752H50.4744V17.7817Z" fill="#3B3149"/>
<path d="M50.4744 14.2881H46.877V17.7815H50.4744V14.2881Z" fill="#3B3149"/>
<path d="M50.4744 10.7942H46.877V14.2881H50.4744V10.7942Z" fill="#3B3149"/>
<path d="M50.4744 7.30103H46.877V10.7944H50.4744V7.30103Z" fill="#3B3149"/>
<path d="M50.4744 3.80762H46.877V7.30104H50.4744V3.80762Z" fill="#3B3149"/>
<path d="M46.8767 59.7041H43.2793V63.1975H46.8767V59.7041Z" fill="#3B3149"/>
<path d="M46.8767 56.2104H43.2793V59.7043H46.8767V56.2104Z" fill="#3B3149"/>
<path d="M46.8767 52.7173H43.2793V56.2107H46.8767V52.7173Z" fill="#3B3149"/>
<path d="M46.8767 49.2239H43.2793V52.7173H46.8767V49.2239Z" fill="#3B3149"/>
<path d="M46.8767 45.7297H43.2793V49.2236H46.8767V45.7297Z" fill="#3B3149"/>
<path d="M46.8767 42.2363H43.2793V45.7297H46.8767V42.2363Z" fill="#3B3149"/>
<path d="M46.8767 38.7432H43.2793V42.2366H46.8767V38.7432Z" fill="#3B3149"/>
<path d="M46.8767 35.249H43.2793V38.7429H46.8767V35.249Z" fill="#3B3149"/>
<path d="M46.8767 31.7556H43.2793V35.249H46.8767V31.7556Z" fill="#3B3149"/>
<path d="M46.8767 28.2625H43.2793V31.7559H46.8767V28.2625Z" fill="#3B3149"/>
<path d="M46.8767 24.7683H43.2793V28.2622H46.8767V24.7683Z" fill="#3B3149"/>
<path d="M46.8767 21.2749H43.2793V24.7683H46.8767V21.2749Z" fill="#3B3149"/>
<path d="M46.8767 17.7817H43.2793V21.2752H46.8767V17.7817Z" fill="#3B3149"/>
<path d="M46.8767 14.2881H43.2793V17.7815H46.8767V14.2881Z" fill="#3B3149"/>
<path d="M46.8767 10.7942H43.2793V14.2881H46.8767V10.7942Z" fill="#3B3149"/>
<path d="M46.8767 7.30103H43.2793V10.7944H46.8767V7.30103Z" fill="#3B3149"/>
<path d="M46.8767 3.80762H43.2793V7.30104H46.8767V3.80762Z" fill="#3B3149"/>
<path d="M43.2796 63.198H39.6826V66.6914H43.2796V63.198Z" fill="#3B3149"/>
<path d="M43.2796 59.7041H39.6826V63.1975H43.2796V59.7041Z" fill="#3B3149"/>
<path d="M43.2796 56.2104H39.6826V59.7043H43.2796V56.2104Z" fill="#3B3149"/>
<path d="M43.2796 52.7173H39.6826V56.2107H43.2796V52.7173Z" fill="#3B3149"/>
<path d="M43.2796 49.2239H39.6826V52.7173H43.2796V49.2239Z" fill="#3B3149"/>
<path d="M43.2796 45.7297H39.6826V49.2236H43.2796V45.7297Z" fill="#3B3149"/>
<path d="M43.2796 42.2363H39.6826V45.7297H43.2796V42.2363Z" fill="#3B3149"/>
<path d="M43.2796 38.7432H39.6826V42.2366H43.2796V38.7432Z" fill="#3B3149"/>
<path d="M43.2796 35.249H39.6826V38.7429H43.2796V35.249Z" fill="#3B3149"/>
<path d="M43.2796 31.7556H39.6826V35.249H43.2796V31.7556Z" fill="#3B3149"/>
<path d="M43.2796 28.2625H39.6826V31.7559H43.2796V28.2625Z" fill="#3B3149"/>
<path d="M43.2796 24.7683H39.6826V28.2622H43.2796V24.7683Z" fill="#3B3149"/>
<path d="M43.2796 21.2749H39.6826V24.7683H43.2796V21.2749Z" fill="#3B3149"/>
<path d="M43.2796 17.7817H39.6826V21.2752H43.2796V17.7817Z" fill="#3B3149"/>
<path d="M43.2796 14.2881H39.6826V17.7815H43.2796V14.2881Z" fill="#3B3149"/>
<path d="M43.2796 10.7942H39.6826V14.2881H43.2796V10.7942Z" fill="#3B3149"/>
<path d="M43.2796 7.30103H39.6826V10.7944H43.2796V7.30103Z" fill="#3B3149"/>
<path d="M43.2796 3.80762H39.6826V7.30104H43.2796V3.80762Z" fill="#3B3149"/>
<path d="M43.2796 0.313477H39.6826V3.80735H43.2796V0.313477Z" fill="#3B3149"/>
<path d="M39.6824 63.198H36.085V66.6914H39.6824V63.198Z" fill="#3B3149"/>
<path d="M39.6824 59.7041H36.085V63.1975H39.6824V59.7041Z" fill="#3B3149"/>
<path d="M39.6824 56.2104H36.085V59.7043H39.6824V56.2104Z" fill="#3B3149"/>
<path d="M39.6824 52.7173H36.085V56.2107H39.6824V52.7173Z" fill="#3B3149"/>
<path d="M39.6824 49.2239H36.085V52.7173H39.6824V49.2239Z" fill="#3B3149"/>
<path d="M39.6824 45.7297H36.085V49.2236H39.6824V45.7297Z" fill="#3B3149"/>
<path d="M39.6824 42.2363H36.085V45.7297H39.6824V42.2363Z" fill="#3B3149"/>
<path d="M39.6824 38.7432H36.085V42.2366H39.6824V38.7432Z" fill="#3B3149"/>
<path d="M39.6824 35.249H36.085V38.7429H39.6824V35.249Z" fill="#3B3149"/>
<path d="M39.6824 31.7556H36.085V35.249H39.6824V31.7556Z" fill="#3B3149"/>
<path d="M39.6824 28.2625H36.085V31.7559H39.6824V28.2625Z" fill="#3B3149"/>
<path d="M39.6824 24.7683H36.085V28.2622H39.6824V24.7683Z" fill="#3B3149"/>
<path d="M39.6824 21.2749H36.085V24.7683H39.6824V21.2749Z" fill="#3B3149"/>
<path d="M39.6824 17.7817H36.085V21.2752H39.6824V17.7817Z" fill="#3B3149"/>
<path d="M39.6824 14.2881H36.085V17.7815H39.6824V14.2881Z" fill="#3B3149"/>
<path d="M39.6824 10.7942H36.085V14.2881H39.6824V10.7942Z" fill="#3B3149"/>
<path d="M39.6824 7.30103H36.085V10.7944H39.6824V7.30103Z" fill="#3B3149"/>
<path d="M39.6824 3.80762H36.085V7.30104H39.6824V3.80762Z" fill="#3B3149"/>
<path d="M39.6824 0.313477H36.085V3.80735H39.6824V0.313477Z" fill="#3B3149"/>
<path d="M36.0852 63.198H32.4878V66.6914H36.0852V63.198Z" fill="#3B3149"/>
<path d="M36.0852 59.7041H32.4878V63.1975H36.0852V59.7041Z" fill="#3B3149"/>
<path d="M36.0852 56.2104H32.4878V59.7043H36.0852V56.2104Z" fill="#3B3149"/>
<path d="M36.0852 52.7173H32.4878V56.2107H36.0852V52.7173Z" fill="#3B3149"/>
<path d="M36.0852 49.2239H32.4878V52.7173H36.0852V49.2239Z" fill="#3B3149"/>
<path d="M36.0852 45.7297H32.4878V49.2236H36.0852V45.7297Z" fill="#3B3149"/>
<path d="M36.0852 42.2363H32.4878V45.7297H36.0852V42.2363Z" fill="#3B3149"/>
<path d="M36.0852 38.7432H32.4878V42.2366H36.0852V38.7432Z" fill="#3B3149"/>
<path d="M36.0852 35.249H32.4878V38.7429H36.0852V35.249Z" fill="#3B3149"/>
<path d="M36.0852 31.7556H32.4878V35.249H36.0852V31.7556Z" fill="#3B3149"/>
<path d="M36.0852 28.2625H32.4878V31.7559H36.0852V28.2625Z" fill="#3B3149"/>
<path d="M36.0852 24.7683H32.4878V28.2622H36.0852V24.7683Z" fill="#3B3149"/>
<path d="M36.0852 21.2749H32.4878V24.7683H36.0852V21.2749Z" fill="#3B3149"/>
<path d="M36.0852 17.7817H32.4878V21.2752H36.0852V17.7817Z" fill="#3B3149"/>
<path d="M36.0852 14.2881H32.4878V17.7815H36.0852V14.2881Z" fill="#3B3149"/>
<path d="M36.0852 10.7942H32.4878V14.2881H36.0852V10.7942Z" fill="#3B3149"/>
<path d="M36.0852 7.30103H32.4878V10.7944H36.0852V7.30103Z" fill="#3B3149"/>
<path d="M36.0852 3.80762H32.4878V7.30104H36.0852V3.80762Z" fill="#3B3149"/>
<path d="M36.0852 0.313477H32.4878V3.80735H36.0852V0.313477Z" fill="#3B3149"/>
<path d="M32.4876 63.198H28.8901V66.6914H32.4876V63.198Z" fill="#3B3149"/>
<path d="M32.4876 59.7041H28.8901V63.1975H32.4876V59.7041Z" fill="#3B3149"/>
<path d="M32.4876 56.2104H28.8901V59.7043H32.4876V56.2104Z" fill="#3B3149"/>
<path d="M32.4876 52.7173H28.8901V56.2107H32.4876V52.7173Z" fill="#3B3149"/>
<path d="M32.4876 49.2239H28.8901V52.7173H32.4876V49.2239Z" fill="#3B3149"/>
<path d="M32.4876 45.7297H28.8901V49.2236H32.4876V45.7297Z" fill="#3B3149"/>
<path d="M32.4876 42.2363H28.8901V45.7297H32.4876V42.2363Z" fill="#3B3149"/>
<path d="M32.4876 38.7432H28.8901V42.2366H32.4876V38.7432Z" fill="#3B3149"/>
<path d="M32.4876 35.249H28.8901V38.7429H32.4876V35.249Z" fill="#3B3149"/>
<path d="M32.4876 31.7556H28.8901V35.249H32.4876V31.7556Z" fill="#3B3149"/>
<path d="M32.4876 28.2625H28.8901V31.7559H32.4876V28.2625Z" fill="#3B3149"/>
<path d="M32.4876 24.7683H28.8901V28.2622H32.4876V24.7683Z" fill="#3B3149"/>
<path d="M32.4876 21.2749H28.8901V24.7683H32.4876V21.2749Z" fill="#3B3149"/>
<path d="M32.4876 17.7817H28.8901V21.2752H32.4876V17.7817Z" fill="#3B3149"/>
<path d="M32.4876 14.2881H28.8901V17.7815H32.4876V14.2881Z" fill="#3B3149"/>
<path d="M32.4876 10.7942H28.8901V14.2881H32.4876V10.7942Z" fill="#3B3149"/>
<path d="M32.4876 7.30103H28.8901V10.7944H32.4876V7.30103Z" fill="#3B3149"/>
<path d="M32.4876 3.80762H28.8901V7.30104H32.4876V3.80762Z" fill="#3B3149"/>
<path d="M32.4876 0.313477H28.8901V3.80735H32.4876V0.313477Z" fill="#3B3149"/>
<path d="M28.8904 63.198H25.293V66.6914H28.8904V63.198Z" fill="#3B3149"/>
<path d="M28.8904 59.7041H25.293V63.1975H28.8904V59.7041Z" fill="#3B3149"/>
<path d="M28.8904 56.2104H25.293V59.7043H28.8904V56.2104Z" fill="#3B3149"/>
<path d="M28.8904 52.7173H25.293V56.2107H28.8904V52.7173Z" fill="#3B3149"/>
<path d="M28.8904 49.2239H25.293V52.7173H28.8904V49.2239Z" fill="#3B3149"/>
<path d="M28.8904 45.7297H25.293V49.2236H28.8904V45.7297Z" fill="#3B3149"/>
<path d="M28.8904 42.2363H25.293V45.7297H28.8904V42.2363Z" fill="#3B3149"/>
<path d="M28.8904 38.7432H25.293V42.2366H28.8904V38.7432Z" fill="#3B3149"/>
<path d="M28.8904 35.249H25.293V38.7429H28.8904V35.249Z" fill="#3B3149"/>
<path d="M28.8904 31.7556H25.293V35.249H28.8904V31.7556Z" fill="#3B3149"/>
<path d="M28.8904 28.2625H25.293V31.7559H28.8904V28.2625Z" fill="#3B3149"/>
<path d="M28.8904 24.7683H25.293V28.2622H28.8904V24.7683Z" fill="#3B3149"/>
<path d="M28.8904 21.2749H25.293V24.7683H28.8904V21.2749Z" fill="#3B3149"/>
<path d="M28.8904 17.7817H25.293V21.2752H28.8904V17.7817Z" fill="#3B3149"/>
<path d="M28.8904 14.2881H25.293V17.7815H28.8904V14.2881Z" fill="#3B3149"/>
<path d="M28.8904 10.7942H25.293V14.2881H28.8904V10.7942Z" fill="#3B3149"/>
<path d="M28.8904 7.30103H25.293V10.7944H28.8904V7.30103Z" fill="#3B3149"/>
<path d="M28.8904 3.80762H25.293V7.30104H28.8904V3.80762Z" fill="#3B3149"/>
<path d="M28.8904 0.313477H25.293V3.80735H28.8904V0.313477Z" fill="#3B3149"/>
<path d="M25.2928 59.7041H21.6958V63.1975H25.2928V59.7041Z" fill="#3B3149"/>
<path d="M25.2928 56.2104H21.6958V59.7043H25.2928V56.2104Z" fill="#3B3149"/>
<path d="M25.2928 52.7173H21.6958V56.2107H25.2928V52.7173Z" fill="#3B3149"/>
<path d="M25.2928 49.2239H21.6958V52.7173H25.2928V49.2239Z" fill="#3B3149"/>
<path d="M25.2928 45.7297H21.6958V49.2236H25.2928V45.7297Z" fill="#3B3149"/>
<path d="M25.2928 42.2363H21.6958V45.7297H25.2928V42.2363Z" fill="#3B3149"/>
<path d="M25.2928 38.7432H21.6958V42.2366H25.2928V38.7432Z" fill="#3B3149"/>
<path d="M25.2928 35.249H21.6958V38.7429H25.2928V35.249Z" fill="#3B3149"/>
<path d="M25.2928 31.7556H21.6958V35.249H25.2928V31.7556Z" fill="#3B3149"/>
<path d="M25.2928 28.2625H21.6958V31.7559H25.2928V28.2625Z" fill="#3B3149"/>
<path d="M25.2928 24.7683H21.6958V28.2622H25.2928V24.7683Z" fill="#3B3149"/>
<path d="M25.2928 21.2749H21.6958V24.7683H25.2928V21.2749Z" fill="#3B3149"/>
<path d="M25.2928 17.7817H21.6958V21.2752H25.2928V17.7817Z" fill="#3B3149"/>
<path d="M25.2928 14.2881H21.6958V17.7815H25.2928V14.2881Z" fill="#3B3149"/>
<path d="M25.2928 10.7942H21.6958V14.2881H25.2928V10.7942Z" fill="#3B3149"/>
<path d="M25.2928 7.30103H21.6958V10.7944H25.2928V7.30103Z" fill="#3B3149"/>
<path d="M25.2928 3.80762H21.6958V7.30104H25.2928V3.80762Z" fill="#3B3149"/>
<path d="M21.6961 59.7041H18.0986V63.1975H21.6961V59.7041Z" fill="#3B3149"/>
<path d="M21.6961 56.2104H18.0986V59.7043H21.6961V56.2104Z" fill="#3B3149"/>
<path d="M21.6961 52.7173H18.0986V56.2107H21.6961V52.7173Z" fill="#3B3149"/>
<path d="M21.6961 49.2239H18.0986V52.7173H21.6961V49.2239Z" fill="#3B3149"/>
<path d="M21.6961 45.7297H18.0986V49.2236H21.6961V45.7297Z" fill="#3B3149"/>
<path d="M21.6961 42.2363H18.0986V45.7297H21.6961V42.2363Z" fill="#3B3149"/>
<path d="M21.6961 38.7432H18.0986V42.2366H21.6961V38.7432Z" fill="#3B3149"/>
<path d="M21.6961 35.249H18.0986V38.7429H21.6961V35.249Z" fill="#3B3149"/>
<path d="M21.6961 31.7556H18.0986V35.249H21.6961V31.7556Z" fill="#3B3149"/>
<path d="M21.6961 28.2625H18.0986V31.7559H21.6961V28.2625Z" fill="#3B3149"/>
<path d="M21.6961 24.7683H18.0986V28.2622H21.6961V24.7683Z" fill="#3B3149"/>
<path d="M21.6961 21.2749H18.0986V24.7683H21.6961V21.2749Z" fill="#3B3149"/>
<path d="M21.6961 17.7817H18.0986V21.2752H21.6961V17.7817Z" fill="#3B3149"/>
<path d="M21.6961 14.2881H18.0986V17.7815H21.6961V14.2881Z" fill="#3B3149"/>
<path d="M21.6961 10.7942H18.0986V14.2881H21.6961V10.7942Z" fill="#3B3149"/>
<path d="M21.6961 7.30103H18.0986V10.7944H21.6961V7.30103Z" fill="#3B3149"/>
<path d="M21.6961 3.80762H18.0986V7.30104H21.6961V3.80762Z" fill="#3B3149"/>
<path d="M18.0984 56.2104H14.501V59.7043H18.0984V56.2104Z" fill="#3B3149"/>
<path d="M18.0984 52.7173H14.501V56.2107H18.0984V52.7173Z" fill="#3B3149"/>
<path d="M18.0984 49.2239H14.501V52.7173H18.0984V49.2239Z" fill="#3B3149"/>
<path d="M18.0984 45.7297H14.501V49.2236H18.0984V45.7297Z" fill="#3B3149"/>
<path d="M18.0984 42.2363H14.501V45.7297H18.0984V42.2363Z" fill="#3B3149"/>
<path d="M18.0984 38.7432H14.501V42.2366H18.0984V38.7432Z" fill="#3B3149"/>
<path d="M18.0984 35.249H14.501V38.7429H18.0984V35.249Z" fill="#3B3149"/>
<path d="M18.0984 31.7556H14.501V35.249H18.0984V31.7556Z" fill="#3B3149"/>
<path d="M18.0984 28.2625H14.501V31.7559H18.0984V28.2625Z" fill="#3B3149"/>
<path d="M18.0984 24.7683H14.501V28.2622H18.0984V24.7683Z" fill="#3B3149"/>
<path d="M18.0984 21.2749H14.501V24.7683H18.0984V21.2749Z" fill="#3B3149"/>
<path d="M18.0984 17.7817H14.501V21.2752H18.0984V17.7817Z" fill="#3B3149"/>
<path d="M18.0984 14.2881H14.501V17.7815H18.0984V14.2881Z" fill="#3B3149"/>
<path d="M18.0984 10.7942H14.501V14.2881H18.0984V10.7942Z" fill="#3B3149"/>
<path d="M18.0984 7.30103H14.501V10.7944H18.0984V7.30103Z" fill="#3B3149"/>
<path d="M14.5012 52.7173H10.9038V56.2107H14.5012V52.7173Z" fill="#3B3149"/>
<path d="M14.5012 49.2239H10.9038V52.7173H14.5012V49.2239Z" fill="#3B3149"/>
<path d="M14.5012 45.7297H10.9038V49.2236H14.5012V45.7297Z" fill="#3B3149"/>
<path d="M14.5012 42.2363H10.9038V45.7297H14.5012V42.2363Z" fill="#3B3149"/>
<path d="M14.5012 38.7432H10.9038V42.2366H14.5012V38.7432Z" fill="#3B3149"/>
<path d="M14.5012 35.249H10.9038V38.7429H14.5012V35.249Z" fill="#3B3149"/>
<path d="M14.5012 31.7556H10.9038V35.249H14.5012V31.7556Z" fill="#3B3149"/>
<path d="M14.5012 28.2625H10.9038V31.7559H14.5012V28.2625Z" fill="#3B3149"/>
<path d="M14.5012 24.7683H10.9038V28.2622H14.5012V24.7683Z" fill="#3B3149"/>
<path d="M14.5012 21.2749H10.9038V24.7683H14.5012V21.2749Z" fill="#3B3149"/>
<path d="M14.5012 17.7817H10.9038V21.2752H14.5012V17.7817Z" fill="#3B3149"/>
<path d="M14.5012 14.2881H10.9038V17.7815H14.5012V14.2881Z" fill="#3B3149"/>
<path d="M14.5012 10.7942H10.9038V14.2881H14.5012V10.7942Z" fill="#3B3149"/>
<path d="M10.9036 49.2239H7.30615V52.7173H10.9036V49.2239Z" fill="#3B3149"/>
<path d="M10.9036 45.7297H7.30615V49.2236H10.9036V45.7297Z" fill="#3B3149"/>
<path d="M10.9036 42.2363H7.30615V45.7297H10.9036V42.2363Z" fill="#3B3149"/>
<path d="M10.9036 38.7432H7.30615V42.2366H10.9036V38.7432Z" fill="#3B3149"/>
<path d="M10.9036 35.249H7.30615V38.7429H10.9036V35.249Z" fill="#3B3149"/>
<path d="M10.9036 31.7556H7.30615V35.249H10.9036V31.7556Z" fill="#3B3149"/>
<path d="M10.9036 28.2625H7.30615V31.7559H10.9036V28.2625Z" fill="#3B3149"/>
<path d="M10.9036 24.7683H7.30615V28.2622H10.9036V24.7683Z" fill="#3B3149"/>
<path d="M10.9036 21.2749H7.30615V24.7683H10.9036V21.2749Z" fill="#3B3149"/>
<path d="M10.9036 17.7817H7.30615V21.2752H10.9036V17.7817Z" fill="#3B3149"/>
<path d="M10.9036 14.2881H7.30615V17.7815H10.9036V14.2881Z" fill="#3B3149"/>
<path d="M7.30644 45.7297H3.70947V49.2236H7.30644V45.7297Z" fill="#3B3149"/>
<path d="M7.30644 42.2363H3.70947V45.7297H7.30644V42.2363Z" fill="#3B3149"/>
<path d="M7.30644 38.7432H3.70947V42.2366H7.30644V38.7432Z" fill="#3B3149"/>
<path d="M7.30644 35.249H3.70947V38.7429H7.30644V35.249Z" fill="#3B3149"/>
<path d="M7.30644 31.7556H3.70947V35.249H7.30644V31.7556Z" fill="#3B3149"/>
<path d="M7.30644 28.2625H3.70947V31.7559H7.30644V28.2625Z" fill="#3B3149"/>
<path d="M7.30644 24.7683H3.70947V28.2622H7.30644V24.7683Z" fill="#3B3149"/>
<path d="M7.30644 21.2749H3.70947V24.7683H7.30644V21.2749Z" fill="#3B3149"/>
<path d="M7.30644 17.7817H3.70947V21.2752H7.30644V17.7817Z" fill="#3B3149"/>
<path d="M3.70924 38.7432H0.111816V42.2366H3.70924V38.7432Z" fill="#3B3149"/>
<path d="M3.70924 35.249H0.111816V38.7429H3.70924V35.249Z" fill="#3B3149"/>
<path d="M3.70924 31.7556H0.111816V35.249H3.70924V31.7556Z" fill="#3B3149"/>
<path d="M3.70924 28.2625H0.111816V31.7559H3.70924V28.2625Z" fill="#3B3149"/>
<path d="M3.70924 24.7683H0.111816V28.2622H3.70924V24.7683Z" fill="#3B3149"/>
<path d="M56.1897 42.0132H54.2891V43.9138H56.1897V42.0132Z" fill="#726683"/>
<path d="M56.1897 22.8416H54.2891V24.7422H56.1897V22.8416Z" fill="#726683"/>
<path d="M56.1897 20.9409H54.2891V22.8415H56.1897V20.9409Z" fill="#726683"/>
<path d="M54.2888 43.9138H52.3882V45.8144H54.2888V43.9138Z" fill="#726683"/>
<path d="M54.2888 42.0132H52.3882V43.9138H54.2888V42.0132Z" fill="#726683"/>
<path d="M54.2888 40.1125H52.3882V42.0132H54.2888V40.1125Z" fill="#726683"/>
<path d="M54.2888 26.6841H52.3882V28.5847H54.2888V26.6841Z" fill="#726683"/>
<path d="M54.2888 24.7834H52.3882V26.6841H54.2888V24.7834Z" fill="#726683"/>
<path d="M54.2888 22.8416H52.3882V24.7422H54.2888V22.8416Z" fill="#726683"/>
<path d="M54.2888 20.9409H52.3882V22.8415H54.2888V20.9409Z" fill="#726683"/>
<path d="M52.3884 43.9138H50.4878V45.8144H52.3884V43.9138Z" fill="#726683"/>
<path d="M52.3884 42.0132H50.4878V43.9138H52.3884V42.0132Z" fill="#726683"/>
<path d="M52.3884 40.1125H50.4878V42.0132H52.3884V40.1125Z" fill="#726683"/>
<path d="M52.3884 38.1707H50.4878V40.0713H52.3884V38.1707Z" fill="#726683"/>
<path d="M52.3884 28.5847H50.4878V30.4853H52.3884V28.5847Z" fill="#726683"/>
<path d="M52.3884 26.6841H50.4878V28.5847H52.3884V26.6841Z" fill="#726683"/>
<path d="M52.3884 24.7834H50.4878V26.6841H52.3884V24.7834Z" fill="#726683"/>
<path d="M52.3884 22.8416H50.4878V24.7422H52.3884V22.8416Z" fill="#726683"/>
<path d="M52.3884 20.9409H50.4878V22.8415H52.3884V20.9409Z" fill="#726683"/>
<path d="M50.4465 43.9138H48.5459V45.8144H50.4465V43.9138Z" fill="#726683"/>
<path d="M50.4465 42.0132H48.5459V43.9138H50.4465V42.0132Z" fill="#726683"/>
<path d="M50.4465 40.1125H48.5459V42.0132H50.4465V40.1125Z" fill="#726683"/>
<path d="M50.4465 38.1707H48.5459V40.0713H50.4465V38.1707Z" fill="#726683"/>
<path d="M50.4465 36.27H48.5459V38.1706H50.4465V36.27Z" fill="#726683"/>
<path d="M50.4465 34.3694H48.5459V36.27H50.4465V34.3694Z" fill="#726683"/>
<path d="M50.4465 32.4272H48.5459V34.3279H50.4465V32.4272Z" fill="#726683"/>
<path d="M50.4465 30.5266H48.5459V32.4272H50.4465V30.5266Z" fill="#726683"/>
<path d="M50.4465 28.5847H48.5459V30.4853H50.4465V28.5847Z" fill="#726683"/>
<path d="M50.4465 26.6841H48.5459V28.5847H50.4465V26.6841Z" fill="#726683"/>
<path d="M50.4465 24.7834H48.5459V26.6841H50.4465V24.7834Z" fill="#726683"/>
<path d="M50.4465 22.8416H48.5459V24.7422H50.4465V22.8416Z" fill="#726683"/>
<path d="M50.4465 20.9409H48.5459V22.8415H50.4465V20.9409Z" fill="#726683"/>
<path d="M48.5456 43.9138H46.645V45.8144H48.5456V43.9138Z" fill="#726683"/>
<path d="M48.5456 42.0132H46.645V43.9138H48.5456V42.0132Z" fill="#726683"/>
<path d="M48.5456 40.1125H46.645V42.0132H48.5456V40.1125Z" fill="#726683"/>
<path d="M48.5456 38.1707H46.645V40.0713H48.5456V38.1707Z" fill="#726683"/>
<path d="M48.5456 36.27H46.645V38.1706H48.5456V36.27Z" fill="#726683"/>
<path d="M48.5456 34.3694H46.645V36.27H48.5456V34.3694Z" fill="#726683"/>
<path d="M48.5456 32.4272H46.645V34.3279H48.5456V32.4272Z" fill="#726683"/>
<path d="M48.5456 30.5266H46.645V32.4272H48.5456V30.5266Z" fill="#726683"/>
<path d="M48.5456 28.5847H46.645V30.4853H48.5456V28.5847Z" fill="#726683"/>
<path d="M48.5456 26.6841H46.645V28.5847H48.5456V26.6841Z" fill="#726683"/>
<path d="M48.5456 24.7834H46.645V26.6841H48.5456V24.7834Z" fill="#726683"/>
<path d="M48.5456 22.8416H46.645V24.7422H48.5456V22.8416Z" fill="#726683"/>
<path d="M46.6448 42.0132H44.7441V43.9138H46.6448V42.0132Z" fill="#726683"/>
<path d="M46.6448 40.1125H44.7441V42.0132H46.6448V40.1125Z" fill="#726683"/>
<path d="M46.6448 38.1707H44.7441V40.0713H46.6448V38.1707Z" fill="#726683"/>
<path d="M46.6448 36.27H44.7441V38.1706H46.6448V36.27Z" fill="#726683"/>
<path d="M46.6448 34.3694H44.7441V36.27H46.6448V34.3694Z" fill="#726683"/>
<path d="M46.6448 32.4272H44.7441V34.3279H46.6448V32.4272Z" fill="#726683"/>
<path d="M46.6448 30.5266H44.7441V32.4272H46.6448V30.5266Z" fill="#726683"/>
<path d="M46.6448 28.5847H44.7441V30.4853H46.6448V28.5847Z" fill="#726683"/>
<path d="M46.6448 26.6841H44.7441V28.5847H46.6448V26.6841Z" fill="#726683"/>
<path d="M46.6448 24.7834H44.7441V26.6841H46.6448V24.7834Z" fill="#726683"/>
<path d="M44.7033 40.1125H42.8027V42.0132H44.7033V40.1125Z" fill="#726683"/>
<path d="M44.7033 38.1707H42.8027V40.0713H44.7033V38.1707Z" fill="#726683"/>
<path d="M44.7033 36.27H42.8027V38.1706H44.7033V36.27Z" fill="#726683"/>
<path d="M44.7033 34.3694H42.8027V36.27H44.7033V34.3694Z" fill="#726683"/>
<path d="M44.7033 32.4272H42.8027V34.3279H44.7033V32.4272Z" fill="#726683"/>
<path d="M44.7033 30.5266H42.8027V32.4272H44.7033V30.5266Z" fill="#726683"/>
<path d="M44.7033 28.5847H42.8027V30.4853H44.7033V28.5847Z" fill="#726683"/>
<path d="M42.8025 38.1707H40.9019V40.0713H42.8025V38.1707Z" fill="#726683"/>
<path d="M42.8025 36.27H40.9019V38.1706H42.8025V36.27Z" fill="#726683"/>
<path d="M42.8025 34.3694H40.9019V36.27H42.8025V34.3694Z" fill="#726683"/>
<path d="M42.8025 32.4272H40.9019V34.3279H42.8025V32.4272Z" fill="#726683"/>
<path d="M42.8025 30.5266H40.9019V32.4272H42.8025V30.5266Z" fill="#726683"/>
<path d="M40.9021 36.27H39.0015V38.1706H40.9021V36.27Z" fill="#726683"/>
<path d="M40.9021 34.3694H39.0015V36.27H40.9021V34.3694Z" fill="#726683"/>
<path d="M40.9021 32.4272H39.0015V34.3279H40.9021V32.4272Z" fill="#726683"/>
<path d="M38.9602 43.9138H37.0596V45.8144H38.9602V43.9138Z" fill="#726683"/>
<path d="M38.9602 42.0132H37.0596V43.9138H38.9602V42.0132Z" fill="#726683"/>
<path d="M38.9602 40.1125H37.0596V42.0132H38.9602V40.1125Z" fill="#726683"/>
<path d="M38.9602 38.1707H37.0596V40.0713H38.9602V38.1707Z" fill="#726683"/>
<path d="M38.9602 36.27H37.0596V38.1706H38.9602V36.27Z" fill="#726683"/>
<path d="M38.9602 34.3694H37.0596V36.27H38.9602V34.3694Z" fill="#726683"/>
<path d="M38.9602 32.4272H37.0596V34.3279H38.9602V32.4272Z" fill="#726683"/>
<path d="M38.9602 30.5266H37.0596V32.4272H38.9602V30.5266Z" fill="#726683"/>
<path d="M38.9602 28.5847H37.0596V30.4853H38.9602V28.5847Z" fill="#726683"/>
<path d="M38.9602 26.6841H37.0596V28.5847H38.9602V26.6841Z" fill="#726683"/>
<path d="M38.9602 24.7834H37.0596V26.6841H38.9602V24.7834Z" fill="#726683"/>
<path d="M38.9602 22.8416H37.0596V24.7422H38.9602V22.8416Z" fill="#726683"/>
<path d="M38.9602 20.9409H37.0596V22.8415H38.9602V20.9409Z" fill="#726683"/>
<path d="M37.0593 43.9138H35.1587V45.8144H37.0593V43.9138Z" fill="#726683"/>
<path d="M37.0593 42.0132H35.1587V43.9138H37.0593V42.0132Z" fill="#726683"/>
<path d="M37.0593 40.1125H35.1587V42.0132H37.0593V40.1125Z" fill="#726683"/>
<path d="M37.0593 38.1707H35.1587V40.0713H37.0593V38.1707Z" fill="#726683"/>
<path d="M37.0593 36.27H35.1587V38.1706H37.0593V36.27Z" fill="#726683"/>
<path d="M37.0593 34.3694H35.1587V36.27H37.0593V34.3694Z" fill="#726683"/>
<path d="M37.0593 32.4272H35.1587V34.3279H37.0593V32.4272Z" fill="#726683"/>
<path d="M37.0593 30.5266H35.1587V32.4272H37.0593V30.5266Z" fill="#726683"/>
<path d="M37.0593 28.5847H35.1587V30.4853H37.0593V28.5847Z" fill="#726683"/>
<path d="M37.0593 26.6841H35.1587V28.5847H37.0593V26.6841Z" fill="#726683"/>
<path d="M37.0593 24.7834H35.1587V26.6841H37.0593V24.7834Z" fill="#726683"/>
<path d="M37.0593 22.8416H35.1587V24.7422H37.0593V22.8416Z" fill="#726683"/>
<path d="M37.0593 20.9409H35.1587V22.8415H37.0593V20.9409Z" fill="#726683"/>
<path d="M35.1174 43.9138H33.2168V45.8144H35.1174V43.9138Z" fill="#726683"/>
<path d="M35.1174 42.0132H33.2168V43.9138H35.1174V42.0132Z" fill="#726683"/>
<path d="M35.1174 40.1125H33.2168V42.0132H35.1174V40.1125Z" fill="#726683"/>
<path d="M35.1174 38.1707H33.2168V40.0713H35.1174V38.1707Z" fill="#726683"/>
<path d="M35.1174 36.27H33.2168V38.1706H35.1174V36.27Z" fill="#726683"/>
<path d="M35.1174 34.3694H33.2168V36.27H35.1174V34.3694Z" fill="#726683"/>
<path d="M35.1174 32.4272H33.2168V34.3279H35.1174V32.4272Z" fill="#726683"/>
<path d="M35.1174 30.5266H33.2168V32.4272H35.1174V30.5266Z" fill="#726683"/>
<path d="M35.1174 28.5847H33.2168V30.4853H35.1174V28.5847Z" fill="#726683"/>
<path d="M35.1174 26.6841H33.2168V28.5847H35.1174V26.6841Z" fill="#726683"/>
<path d="M35.1174 24.7834H33.2168V26.6841H35.1174V24.7834Z" fill="#726683"/>
<path d="M35.1174 22.8416H33.2168V24.7422H35.1174V22.8416Z" fill="#726683"/>
<path d="M35.1174 20.9409H33.2168V22.8415H35.1174V20.9409Z" fill="#726683"/>
<path d="M33.2165 43.9138H31.3159V45.8144H33.2165V43.9138Z" fill="#726683"/>
<path d="M33.2165 42.0132H31.3159V43.9138H33.2165V42.0132Z" fill="#726683"/>
<path d="M33.2165 40.1125H31.3159V42.0132H33.2165V40.1125Z" fill="#726683"/>
<path d="M33.2165 38.1707H31.3159V40.0713H33.2165V38.1707Z" fill="#726683"/>
<path d="M33.2165 36.27H31.3159V38.1706H33.2165V36.27Z" fill="#726683"/>
<path d="M33.2165 34.3694H31.3159V36.27H33.2165V34.3694Z" fill="#726683"/>
<path d="M33.2165 32.4272H31.3159V34.3279H33.2165V32.4272Z" fill="#726683"/>
<path d="M33.2165 30.5266H31.3159V32.4272H33.2165V30.5266Z" fill="#726683"/>
<path d="M33.2165 28.5847H31.3159V30.4853H33.2165V28.5847Z" fill="#726683"/>
<path d="M33.2165 26.6841H31.3159V28.5847H33.2165V26.6841Z" fill="#726683"/>
<path d="M33.2165 24.7834H31.3159V26.6841H33.2165V24.7834Z" fill="#726683"/>
<path d="M33.2165 22.8416H31.3159V24.7422H33.2165V22.8416Z" fill="#726683"/>
<path d="M33.2165 20.9409H31.3159V22.8415H33.2165V20.9409Z" fill="#726683"/>
<path d="M31.3162 43.9138H29.4155V45.8144H31.3162V43.9138Z" fill="#726683"/>
<path d="M31.3162 42.0132H29.4155V43.9138H31.3162V42.0132Z" fill="#726683"/>
<path d="M31.3162 40.1125H29.4155V42.0132H31.3162V40.1125Z" fill="#726683"/>
<path d="M31.3162 38.1707H29.4155V40.0713H31.3162V38.1707Z" fill="#726683"/>
<path d="M31.3162 36.27H29.4155V38.1706H31.3162V36.27Z" fill="#726683"/>
<path d="M31.3162 34.3694H29.4155V36.27H31.3162V34.3694Z" fill="#726683"/>
<path d="M31.3162 24.7834H29.4155V26.6841H31.3162V24.7834Z" fill="#726683"/>
<path d="M31.3162 22.8416H29.4155V24.7422H31.3162V22.8416Z" fill="#726683"/>
<path d="M31.3162 20.9409H29.4155V22.8415H31.3162V20.9409Z" fill="#726683"/>
<path d="M29.3743 43.9138H27.4736V45.8144H29.3743V43.9138Z" fill="#726683"/>
<path d="M29.3743 42.0132H27.4736V43.9138H29.3743V42.0132Z" fill="#726683"/>
<path d="M29.3743 40.1125H27.4736V42.0132H29.3743V40.1125Z" fill="#726683"/>
<path d="M29.3743 38.1707H27.4736V40.0713H29.3743V38.1707Z" fill="#726683"/>
<path d="M29.3743 36.27H27.4736V38.1706H29.3743V36.27Z" fill="#726683"/>
<path d="M29.3743 34.3694H27.4736V36.27H29.3743V34.3694Z" fill="#726683"/>
<path d="M29.3743 20.9409H27.4736V22.8415H29.3743V20.9409Z" fill="#726683"/>
<path d="M27.4734 42.0132H25.5728V43.9138H27.4734V42.0132Z" fill="#726683"/>
<path d="M27.4734 40.1125H25.5728V42.0132H27.4734V40.1125Z" fill="#726683"/>
<path d="M27.4734 38.1707H25.5728V40.0713H27.4734V38.1707Z" fill="#726683"/>
<path d="M27.4734 36.27H25.5728V38.1706H27.4734V36.27Z" fill="#726683"/>
<path d="M27.4734 34.3694H25.5728V36.27H27.4734V34.3694Z" fill="#726683"/>
<path d="M27.4734 32.4272H25.5728V34.3279H27.4734V32.4272Z" fill="#726683"/>
<path d="M25.573 40.1125H23.6724V42.0132H25.573V40.1125Z" fill="#726683"/>
<path d="M25.573 38.1707H23.6724V40.0713H25.573V38.1707Z" fill="#726683"/>
<path d="M25.573 36.27H23.6724V38.1706H25.573V36.27Z" fill="#726683"/>
<path d="M25.573 34.3694H23.6724V36.27H25.573V34.3694Z" fill="#726683"/>
<path d="M25.573 32.4272H23.6724V34.3279H25.573V32.4272Z" fill="#726683"/>
<path d="M25.573 30.5266H23.6724V32.4272H25.573V30.5266Z" fill="#726683"/>
<path d="M25.573 28.5847H23.6724V30.4853H25.573V28.5847Z" fill="#726683"/>
<path d="M23.6311 38.1707H21.7305V40.0713H23.6311V38.1707Z" fill="#726683"/>
<path d="M23.6311 36.27H21.7305V38.1706H23.6311V36.27Z" fill="#726683"/>
<path d="M23.6311 34.3694H21.7305V36.27H23.6311V34.3694Z" fill="#726683"/>
<path d="M23.6311 32.4272H21.7305V34.3279H23.6311V32.4272Z" fill="#726683"/>
<path d="M23.6311 30.5266H21.7305V32.4272H23.6311V30.5266Z" fill="#726683"/>
<path d="M23.6311 28.5847H21.7305V30.4853H23.6311V28.5847Z" fill="#726683"/>
<path d="M23.6311 26.6841H21.7305V28.5847H23.6311V26.6841Z" fill="#726683"/>
<path d="M23.6311 24.7834H21.7305V26.6841H23.6311V24.7834Z" fill="#726683"/>
<path d="M21.7302 36.27H19.8296V38.1706H21.7302V36.27Z" fill="#726683"/>
<path d="M21.7302 34.3694H19.8296V36.27H21.7302V34.3694Z" fill="#726683"/>
<path d="M21.7302 32.4272H19.8296V34.3279H21.7302V32.4272Z" fill="#726683"/>
<path d="M21.7302 30.5266H19.8296V32.4272H21.7302V30.5266Z" fill="#726683"/>
<path d="M21.7302 28.5847H19.8296V30.4853H21.7302V28.5847Z" fill="#726683"/>
<path d="M21.7302 26.6841H19.8296V28.5847H21.7302V26.6841Z" fill="#726683"/>
<path d="M21.7302 24.7834H19.8296V26.6841H21.7302V24.7834Z" fill="#726683"/>
<path d="M21.7302 22.8416H19.8296V24.7422H21.7302V22.8416Z" fill="#726683"/>
<path d="M21.7302 20.9409H19.8296V22.8415H21.7302V20.9409Z" fill="#726683"/>
<path d="M19.8298 34.3694H17.9292V36.27H19.8298V34.3694Z" fill="#726683"/>
<path d="M19.8298 32.4272H17.9292V34.3279H19.8298V32.4272Z" fill="#726683"/>
<path d="M19.8298 30.5266H17.9292V32.4272H19.8298V30.5266Z" fill="#726683"/>
<path d="M19.8298 28.5847H17.9292V30.4853H19.8298V28.5847Z" fill="#726683"/>
<path d="M19.8298 26.6841H17.9292V28.5847H19.8298V26.6841Z" fill="#726683"/>
<path d="M19.8298 24.7834H17.9292V26.6841H19.8298V24.7834Z" fill="#726683"/>
<path d="M19.8298 22.8416H17.9292V24.7422H19.8298V22.8416Z" fill="#726683"/>
<path d="M19.8298 20.9409H17.9292V22.8415H19.8298V20.9409Z" fill="#726683"/>
<path d="M17.8879 30.5266H15.9873V32.4272H17.8879V30.5266Z" fill="#726683"/>
<path d="M17.8879 28.5847H15.9873V30.4853H17.8879V28.5847Z" fill="#726683"/>
<path d="M17.8879 26.6841H15.9873V28.5847H17.8879V26.6841Z" fill="#726683"/>
<path d="M17.8879 24.7834H15.9873V26.6841H17.8879V24.7834Z" fill="#726683"/>
<path d="M17.8879 22.8416H15.9873V24.7422H17.8879V22.8416Z" fill="#726683"/>
<path d="M17.8879 20.9409H15.9873V22.8415H17.8879V20.9409Z" fill="#726683"/>
<path d="M15.987 26.6841H14.0864V28.5847H15.987V26.6841Z" fill="#726683"/>
<path d="M15.987 24.7834H14.0864V26.6841H15.987V24.7834Z" fill="#726683"/>
<path d="M15.987 22.8416H14.0864V24.7422H15.987V22.8416Z" fill="#726683"/>
<path d="M15.987 20.9409H14.0864V22.8415H15.987V20.9409Z" fill="#726683"/>
<path d="M14.0452 20.9409H12.1445V22.8415H14.0452V20.9409Z" fill="#726683"/>
<path d="M56.1897 43.9138H54.2891V45.8144H56.1897V43.9138Z" fill="#726683"/>
</svg>
